<svg width="24" height="24" fill="none" xmlns="http://www.w3.org/2000/svg"><path fill-rule="evenodd" clip-rule="evenodd" d="M1.5 1.5v6.75H0V1.5A1.5 1.5 0 011.5 0h6.75v1.5H1.5zm21 6.75H24V1.5A1.5 1.5 0 0022.5 0h-6.75v1.5h6.75v6.75zM15.75 22.5V24h6.75a1.5 1.5 0 001.5-1.5v-6.75h-1.5v6.75h-6.75zM1.5 15.75H0v6.75A1.5 1.5 0 001.5 24h6.75v-1.5H1.5v-6.75z" fill="#6F6EFF"/><path d="M18.087 10.053H15.42V8.18a.983.983 0 00-.149-.52.895.895 0 00-.394-.345.83.83 0 00-.508-.054.864.864 0 00-.45.256l-3.516 3.75a.942.942 0 00-.191.304.991.991 0 00.191 1.023l2.016 2.15-2.456 2.617a.944.944 0 00-.191.305.992.992 0 00.19 1.022.88.88 0 00.286.203.834.834 0 00.96-.203l3.077-3.281a.943.943 0 00.191-.305.991.991 0 00-.191-1.022l-2.016-2.15 1.393-1.494v.55a.97.97 0 00.258.662.852.852 0 00.621.274h3.546a.831.831 0 00.347-.06.874.874 0 00.296-.201.943.943 0 00.2-.31.992.992 0 00-.2-1.042.874.874 0 00-.296-.2.831.831 0 00-.347-.062v.006zM12.172 5.29a.838.838 0 00-1.11.117L8.646 7.984a.945.945 0 00-.191.304.992.992 0 00.19 1.023.879.879 0 00.286.203.833.833 0 00.96-.203l1.907-2.034.643.493.86-.915c.144-.152.312-.276.497-.365l-1.625-1.2z" fill="#6F6EFF"/><path d="M9.781 13.253a1.892 1.892 0 01-.45-.845l-4.643 4.95a.97.97 0 00-.257.664.97.97 0 00.257.663.853.853 0 00.623.275.853.853 0 00.622-.275l4.472-4.767-.624-.665zm6.079-6.012c.73 0 1.32-.63 1.32-1.406 0-.777-.59-1.407-1.32-1.407-.728 0-1.319.63-1.319 1.407s.591 1.406 1.32 1.406z" fill="#6F6EFF"/></svg>