<svg width="24" height="24" fill="none" xmlns="http://www.w3.org/2000/svg"><path fill-rule="evenodd" clip-rule="evenodd" d="M1.5 1.5v6.75H0V1.5A1.5 1.5 0 011.5 0h6.75v1.5H1.5zm21 6.75H24V1.5A1.5 1.5 0 0022.5 0h-6.75v1.5h6.75v6.75zM15.75 22.5V24h6.75a1.5 1.5 0 001.5-1.5v-6.75h-1.5v6.75h-6.75zM1.5 15.75H0v6.75A1.5 1.5 0 001.5 24h6.75v-1.5H1.5v-6.75z" fill="#6F6EFF"/><path d="M17.28 10.162a.194.194 0 00-.023-.027l-.407-.393c.337-.076.7-.36.7-.65 0-.337-.468-.457-.869-.457-.418 0-.467.286-.472.49l-1.05-1.013a1.482 1.482 0 00-.92-.378h-4.092c-.302 0-.706.167-.92.378l-1.05 1.012c-.005-.203-.054-.49-.472-.49-.4 0-.87.12-.87.459 0 .29.364.573.701.65l-.407.392c-.009.009-.015.018-.023.027-.436.372-.72 1.062-.72 1.563v1.488c0 .361.142.69.372.934v.577c0 .337.283.613.63.613h.762c.348 0 .63-.275.63-.613v-.148h6.826v.148c0 .338.282.613.63.613h.761c.348 0 .63-.276.63-.613v-.577c.23-.245.373-.573.373-.934v-1.488c0-.501-.284-1.191-.72-1.563zm-7.667-1.6c.147-.123.405-.217.534-.217h4.092c.129 0 .387.094.534.217l1.378 1.334H8.236l1.377-1.334zM6.858 11.5c0-.367.287-.664.641-.664.354 0 1.51.678 1.51 1.045 0 .366-1.156.282-1.51.282a.652.652 0 01-.64-.663zm1.922 2.424h-.968a1.377 1.377 0 01-.443-.213.63.63 0 01-.12-.122.477.477 0 01-.067-.123c-.09-.255.096-.489.096-.489h1.236l.824.946H8.78zm5.19 0h-3.554c-.37 0-.671-.3-.671-.671h4.897c0 .37-.301.671-.672.671zm.156-1.129H10.26c-.403 0-.73-.497-.73-1.11h5.326c0 .613-.327 1.11-.73 1.11zm3.079.671a.478.478 0 01-.068.123.612.612 0 01-.12.122c-.1.078-.242.152-.443.214l-.724-.001h-.802l.825-.946h1.235s.186.233.097.488zm-.318-1.303c-.354 0-1.51.084-1.51-.282s1.156-1.045 1.51-1.045c.354 0 .641.297.641.664a.652.652 0 01-.641.663z" fill="#6F6EFF"/></svg>