<svg width="24" height="24" fill="none" xmlns="http://www.w3.org/2000/svg"><path fill-rule="evenodd" clip-rule="evenodd" d="M1.5 1.5v6.75H0V1.5A1.5 1.5 0 011.5 0h6.75v1.5H1.5zm21 6.75H24V1.5A1.5 1.5 0 0022.5 0h-6.75v1.5h6.75v6.75zM15.75 22.5V24h6.75a1.5 1.5 0 001.5-1.5v-6.75h-1.5v6.75h-6.75zM1.5 15.75H0v6.75A1.5 1.5 0 001.5 24h6.75v-1.5H1.5v-6.75z" fill="#6F6EFF"/><path d="M18.482 8.955a1.15 1.15 0 00-1.148-1.143h-2.155c.283.33.456.756.459 1.223l.02 3.916a1.161 1.161 0 01-.919 1.142v3.022a.582.582 0 101.164 0v-4.653h.252v4.653a.582.582 0 101.164 0c0-7.706-.01-3.283-.01-8.168a.102.102 0 11.203.013l.018 3.564a.485.485 0 00.485.482h.002a.485.485 0 00.483-.487l-.018-3.564zm-2.447-1.464a1.006 1.006 0 100-2.012 1.006 1.006 0 000 2.012z" fill="#6F6EFF"/><path d="M15.158 13.172l-.02-3.917A1.264 1.264 0 0013.876 8H11c.32.352.517.818.52 1.328l.021 4.22c.002.411-.203.775-.516.994v3.68a.64.64 0 101.28 0V13.11h.276v5.113a.64.64 0 101.28 0c0-8.462-.012-3.614-.013-8.964a.112.112 0 11.224 0v.003l.02 3.916c0 .294.24.53.532.53h.003a.533.533 0 00.53-.535zM9.402 7.761H6.318c-.746 0-1.356.607-1.36 1.353l-.02 4.22a.574.574 0 00.557.577h.017a.575.575 0 00.574-.571l.022-4.22a.11.11 0 01.222 0v9.657a.69.69 0 001.379 0v-5.51h.297v5.51a.69.69 0 101.379 0c0-2.466-.012-7.076-.012-9.657a.12.12 0 01.24 0l.021 4.22a.574.574 0 00.575.572h.002a.575.575 0 00.572-.578l-.021-4.22a1.363 1.363 0 00-1.36-1.353zm-1.537-.38A1.191 1.191 0 107.864 5a1.191 1.191 0 00.001 2.382zm4.455.049a1.106 1.106 0 100-2.21 1.106 1.106 0 000 2.21z" fill="#6F6EFF"/></svg>