<svg width="41" height="46" viewBox="0 0 41 46" fill="none" xmlns="http://www.w3.org/2000/svg">
<path d="M5.62762 45.586H26.5298V43.9781H24.9219C23.1459 43.9781 21.7062 42.5384 21.7062 40.7624V20.6642C21.7062 18.8882 23.1459 17.4484 24.9219 17.4484H26.5298V15.8406H5.62762V45.586ZM12.863 20.6642C12.863 20.2202 13.2229 19.8602 13.6669 19.8602H18.4905C18.9345 19.8602 19.2944 20.2202 19.2944 20.6642V22.272C19.2944 22.716 18.9345 23.0759 18.4905 23.0759H13.6669C13.2229 23.0759 12.863 22.716 12.863 22.272V20.6642ZM7.23548 18.2524C7.23548 17.8084 7.59541 17.4484 8.03941 17.4484C8.48341 17.4484 8.84334 17.8084 8.84334 18.2524V19.8602C8.84334 20.3042 8.48341 20.6642 8.03941 20.6642C7.59541 20.6642 7.23548 20.3042 7.23548 19.8602V18.2524ZM7.23548 23.0759C7.23548 22.6319 7.59541 22.272 8.03941 22.272C8.48341 22.272 8.84334 22.6319 8.84334 23.0759V43.1742C8.84334 43.6182 8.48341 43.9781 8.03941 43.9781C7.59541 43.9781 7.23548 43.6182 7.23548 43.1742V23.0759Z" fill="#6F6EFF"/>
<path d="M0.803929 11.1875V40.8999C0.803761 41.1134 0.888507 41.3181 1.03948 41.4691L4.01965 44.4492V15.1806L0 4.26965V6.62597C0 8.52485 0.803929 8.96621 0.803929 11.1875V11.1875Z" fill="#6F6EFF"/>
<path d="M27.7357 35.1347C28.4017 35.1347 28.9416 34.5948 28.9416 33.9288C28.9416 33.2628 28.4017 32.7229 27.7357 32.7229C27.0697 32.7229 26.5298 33.2628 26.5298 33.9288C26.5298 34.5948 27.0697 35.1347 27.7357 35.1347Z" fill="#6F6EFF"/>
<path d="M21.5685 11.0169L18.9035 3.78149H4.96094L7.62596 11.0169H21.5685ZM14.2351 4.82097C14.5489 5.13491 14.5489 5.6438 14.2351 5.95773L10.2154 9.97738C9.89997 10.282 9.39856 10.2777 9.08846 9.96758C8.77835 9.65748 8.774 9.15607 9.07866 8.84062L13.0983 4.82097C13.4122 4.50714 13.9211 4.50714 14.2351 4.82097V4.82097ZM7.4708 6.42883L9.07866 4.82097C9.28051 4.61199 9.57941 4.52817 9.86049 4.60175C10.1416 4.67532 10.3611 4.89483 10.4346 5.1759C10.5082 5.45698 10.4244 5.75588 10.2154 5.95773L8.60756 7.56559C8.29212 7.87026 7.7907 7.8659 7.4806 7.5558C7.17049 7.24569 7.16614 6.74428 7.4708 6.42883V6.42883Z" fill="#6F6EFF"/>
<path d="M26.1798 14.2327L21.1432 0.565918H0.349548L5.38616 14.2327H26.1798ZM3.80725 2.17378H19.4638C19.8004 2.17386 20.1014 2.38369 20.2179 2.69955L23.4762 11.5428C23.5671 11.7894 23.5318 12.0649 23.3815 12.2806C23.2312 12.4962 22.985 12.6248 22.7221 12.6249H7.06557C6.72892 12.6248 6.42797 12.4149 6.31149 12.0991L3.05477 3.25586C2.96392 3.0095 2.9991 2.7343 3.14901 2.51872C3.29893 2.30314 3.54467 2.17436 3.80725 2.17378V2.17378Z" fill="#6F6EFF"/>
<path d="M23.3138 20.6641V40.7624C23.3138 41.6504 24.0337 42.3702 24.9217 42.3702H32.1571V19.0563H24.9217C24.0337 19.0563 23.3138 19.7761 23.3138 20.6641ZM27.7355 31.1152C28.8776 31.1177 29.905 31.8103 30.3356 32.8682C30.7662 33.9262 30.5145 35.1394 29.6986 35.9388C30.5188 36.7375 30.7732 37.9536 30.3421 39.0141C29.911 40.0746 28.8803 40.7682 27.7355 40.7682C26.5906 40.7682 25.56 40.0746 25.1288 39.0141C24.6977 37.9536 24.9521 36.7375 25.7723 35.9388C24.9564 35.1394 24.7047 33.9262 25.1353 32.8682C25.5659 31.8103 26.5933 31.1177 27.7355 31.1152Z" fill="#6F6EFF"/>
<path d="M27.7357 39.1547C28.4017 39.1547 28.9416 38.6148 28.9416 37.9488C28.9416 37.2828 28.4017 36.7429 27.7357 36.7429C27.0697 36.7429 26.5298 37.2828 26.5298 37.9488C26.5298 38.6148 27.0697 39.1547 27.7357 39.1547Z" fill="#6F6EFF"/>
<path d="M33.7651 19.0563H36.1769V42.3702H33.7651V19.0563Z" fill="#6F6EFF"/>
<path d="M40.1963 40.7624V20.6641C40.1963 19.7761 39.4765 19.0563 38.5885 19.0563H37.7845V42.3702H38.5885C39.4765 42.3702 40.1963 41.6504 40.1963 40.7624Z" fill="#6F6EFF"/>
</svg>
