<svg width="83" height="29" viewBox="0 0 83 29" fill="none" xmlns="http://www.w3.org/2000/svg">
<path d="M54.9467 0.690918H16.1932C14.632 0.690918 13.3666 1.42037 13.0108 3.59274L13.0075 3.60872H5.90548C5.51296 3.60872 5.19495 3.9352 5.19495 4.33817C5.19495 4.74114 5.51296 5.06762 5.90548 5.06762H12.7239H57.513L57.771 3.60872L57.7732 3.59274C57.7732 1.99 56.5079 0.690918 54.9467 0.690918Z" fill="#29AAE1"/>
<path d="M14.9722 12.4536H11.2172L10.7135 15.2972L14.2539 15.3406L14.9722 12.4536Z" fill="#0000FF"/>
<path d="M14.0006 16.3735H10.5247H10.5225H5.94903C5.53205 16.3735 5.19513 16.7 5.19513 17.103C5.19513 17.506 5.53316 17.8324 5.94903 17.8324H10.2411L9.79858 20.1087H13.1044L13.9917 16.4101L14.0006 16.3735Z" fill="#0000FF"/>
<path d="M17.8723 20.1715C19.5969 20.1715 20.5588 19.039 21.2448 16.1817C21.9298 13.3244 21.5061 12.2148 19.7582 12.2148C18.7919 12.2148 18.058 12.5927 17.5031 13.3712C17.0517 14.0082 16.6981 14.9055 16.3701 16.2753C15.7062 19.039 16.1477 20.1715 17.8723 20.1715Z" fill="#0000FF"/>
<path d="M26.204 18.6143C25.926 19.7707 26.5098 20.3141 28.0965 20.3141C29.9134 20.3141 30.8197 19.6063 31.2389 17.8586L31.4657 16.9146H28.7059C27.3248 16.9146 26.4753 17.4808 26.204 18.6143Z" fill="#0000FF"/>
<path d="M0.753899 21.814C0.336919 21.814 0 22.1404 0 22.5434C0 22.9464 0.338031 23.2729 0.753899 23.2729H9.18244C9.18022 23.2854 9.1791 23.298 9.17688 23.3105H9.17354L9.09348 23.7215C9.09348 24.0994 9.16465 24.4589 9.29252 24.7888C9.63278 25.7637 10.4779 26.5103 11.5309 26.6599L11.5464 26.5948L11.5553 26.5583L12.7084 21.814H9.4671H0.753899V21.814Z" fill="#0000FF"/>
<path d="M56.8682 8.71484H12.0146H1.33099C0.914007 8.71484 0.577087 9.04133 0.577087 9.44429C0.577087 9.84726 0.915119 10.1737 1.33099 10.1737H11.731H17.8011L17.4786 11.4603C18.1947 10.8587 18.8508 10.3884 19.6814 10.1943C19.6569 10.2 19.6325 10.2046 19.6091 10.2103H22.0198C23.4598 10.6304 24.068 11.6475 24.0391 13.16C24.0191 14.0094 23.8957 14.813 23.5554 16.2285C22.9327 18.8256 22.2133 20.289 21.0669 21.2331C20.2074 21.942 19.1043 22.3198 17.9079 22.3198C16.5735 22.3198 15.883 21.942 15.2459 20.95L13.8848 26.6223H33.1582L33.6074 24.7513H34.2056C35.1719 24.7513 35.5967 24.515 36.1849 23.5002L37.2824 21.6121L35.9236 10.2103H38.431L39.186 18.66L43.9263 10.2103H46.4337H46.4504L37.8395 24.563C37.2257 25.5984 36.5307 26.2696 35.6756 26.6223H51.0305C52.5916 26.6223 53.857 25.5287 54.2129 23.7205L56.6102 10.1726L56.8682 8.71484ZM34.4447 14.1749L32.5255 22.1783H30.2249L30.4851 21.0927C29.2808 22.0847 28.4713 22.297 27.0914 22.297C24.4917 22.297 23.3553 20.9991 23.9101 18.6851C24.4316 16.5128 26.2608 15.2148 28.7438 15.2148H31.8717L32.0807 14.3415C32.4543 12.7833 31.8316 12.1224 29.9914 12.1224C29.3242 12.1224 28.8183 12.2171 28.3535 12.4294C27.9687 12.595 27.6596 12.8313 27.2071 13.2799L26.0228 11.7925C26.8368 11.0836 27.2037 10.8005 27.8409 10.5413C28.0666 10.442 28.5347 10.3073 28.9973 10.2126H32.0918C34.0411 10.6658 34.9618 12.0196 34.4447 14.1749ZM53.6925 10.539C54.2162 10.7514 54.453 10.9169 54.9545 11.4123L53.1143 12.9466C52.4282 12.2616 51.5987 12.0733 50.5179 12.0733C49.1146 12.0733 48.2028 12.6167 47.9593 13.6315C47.7614 14.458 48.165 14.8826 49.2469 14.9774L51.0471 15.1429C53.2733 15.3552 54.1684 16.5116 53.6869 18.5196C53.1098 20.9271 50.9348 22.321 47.6691 22.321C46.6116 22.321 45.6842 22.1555 44.9415 21.8016C44.3599 21.5424 44.0719 21.3061 43.4592 20.5972L45.3796 19.0151C46.1946 19.9363 47.0119 20.2662 48.4141 20.2662C50.0709 20.2662 51.1372 19.6532 51.393 18.5904C51.5964 17.7399 51.1984 17.2913 50.1632 17.1977L48.3162 17.0322C46.0845 16.8438 45.2005 15.7331 45.6709 13.7742C46.1146 11.9249 48.0505 10.5744 50.0887 10.1498C50.4256 10.1018 50.7725 10.0687 51.1372 10.0687C51.5586 10.0687 51.9701 10.111 52.3648 10.1749H52.3848C52.8174 10.2685 53.4334 10.4237 53.6925 10.539Z" fill="#0000FF"/>
<path d="M17.7789 10.2092H15.4783V10.2104H17.7778L17.7789 10.2092Z" fill="#0000FF"/>
<path d="M67.8964 23.4387L65.5925 17.836L63.5176 19.8714L62.9049 23.4387H60.5587L63.4865 6.38965H65.8327L64.0269 16.901L69.521 11.2983H72.3731L67.5061 16.0632L70.7942 23.4387H67.8964V23.4387Z" fill="#29AAE1"/>
<path d="M74.6861 28.4911C72.9381 28.4911 72.0731 28.0368 70.9822 26.8872L72.7402 25.3541C73.3985 26.0722 73.9623 26.4078 75.0431 26.4078C76.791 26.4078 78.0197 25.2822 78.3567 23.3187L78.6235 21.7628C77.6272 22.7445 76.7065 23.1521 75.4411 23.1521C74.2447 23.1521 73.3173 22.7925 72.7513 22.0745C71.7917 20.829 72.0264 18.7936 72.3099 17.1418L72.3755 16.7582C72.7625 14.5071 73.4063 13.1669 74.4371 12.2571C75.2777 11.5151 76.3051 11.1555 77.5249 11.1555C78.8359 11.1555 79.5665 11.587 80.2725 12.5688L80.4905 11.2994H82.7677L80.6906 23.3918C80.1569 26.5037 77.814 28.4911 74.6861 28.4911ZM77.6806 13.3336C76.0016 13.3336 75.1187 14.4592 74.6572 17.1407C74.1924 19.8461 74.6939 20.9477 76.3952 20.9477C78.0509 20.9477 78.9538 19.8461 79.4141 17.1646C79.8834 14.4352 79.383 13.3336 77.6806 13.3336Z" fill="#29AAE1"/>
<path d="M57.1516 23.3462C57.716 23.3462 58.1735 22.8765 58.1735 22.2971C58.1735 21.7177 57.716 21.248 57.1516 21.248C56.5873 21.248 56.1298 21.7177 56.1298 22.2971C56.1298 22.8765 56.5873 23.3462 57.1516 23.3462Z" fill="#29AAFF"/>
</svg>
