<svg width="73" height="53" viewBox="0 0 73 53" fill="none" xmlns="http://www.w3.org/2000/svg">
<path d="M34.1344 32.0678L34.069 32.3919C34.0037 32.5009 33.9492 32.5526 33.9084 32.5526C33.8648 32.5526 33.8321 32.52 33.8103 32.4546C33.7449 32.3238 33.617 32.2612 33.4209 32.2612H33.1621C32.5358 32.2612 31.9693 32.4028 31.4628 32.6834C30.9562 32.9639 30.496 33.3535 30.0875 33.8492C29.5265 34.5411 29.0662 35.2003 28.7122 35.824C28.3554 36.4505 28.0259 37.1097 27.7236 37.7988C27.4431 38.4253 27.1681 39.1009 26.8985 39.8227C26.6288 40.5472 26.3865 41.2909 26.1686 42.059C25.9535 42.8271 25.7628 43.5871 25.6021 44.3416C25.4415 45.0988 25.3271 45.8316 25.2617 46.5452C25.2399 46.7822 25.2236 47.0056 25.2127 47.2098C25.2018 47.4141 25.1964 47.6266 25.1964 47.8418C25.1964 48.6835 25.3108 49.4298 25.5368 50.0781C25.7628 50.7264 26.1359 51.1785 26.6534 51.4373C27.0428 51.6307 27.4186 51.7288 27.7863 51.7288C28.1103 51.7288 28.4344 51.6688 28.7585 51.5517C29.0826 51.4319 29.3958 51.2766 29.6981 51.0832C30.3244 50.6719 30.8201 50.1544 31.1877 49.5279C31.2095 49.4407 31.264 49.3971 31.3484 49.3971C31.392 49.3971 31.4138 49.4298 31.4138 49.4952L31.3484 49.6886C31.1741 49.9474 30.9481 50.2388 30.6676 50.5629C30.3871 50.8871 30.1175 51.135 29.8587 51.3093C29.3821 51.6552 28.8811 51.9249 28.3527 52.1183C27.8244 52.3117 27.2797 52.4097 26.7187 52.4097C26.2013 52.4097 25.7138 52.3226 25.2617 52.151C24.6136 51.8922 24.1615 51.4591 23.9001 50.8544C23.6413 50.2497 23.5106 49.5578 23.5106 48.7815C23.5106 48.5881 23.5161 48.392 23.527 48.1986C23.5379 48.0052 23.5542 47.7982 23.576 47.583C23.6849 46.676 23.8892 45.7199 24.1915 44.7175C24.4938 43.7124 24.8505 42.6937 25.259 41.6559C25.4742 41.1383 25.7002 40.6317 25.9398 40.1332C26.1768 39.6375 26.4137 39.139 26.6534 38.6432C27.1708 37.6708 27.5602 36.9762 27.819 36.554C28.0777 36.1318 28.2084 35.9003 28.2084 35.8567C28.2084 35.8349 28.1975 35.824 28.1757 35.824C28.1321 35.824 28.0886 35.8458 28.045 35.8894C27.6773 36.2571 27.2743 36.6793 26.8304 37.1533C26.3865 37.6272 25.9834 38.0821 25.6158 38.5125C25.0983 39.0954 24.472 39.8363 23.7367 40.7325C23.0014 41.6286 22.2524 42.5629 21.4872 43.5353C20.7192 44.5078 19.9975 45.4693 19.3167 46.4172C18.6358 47.3678 18.0912 48.1768 17.6827 48.8469C17.5519 49.0621 17.424 49.2854 17.2932 49.5115C17.1625 49.7376 17.0781 49.9501 17.0345 50.1435C17.0127 50.3587 16.8929 50.5221 16.6778 50.6283C16.5035 50.7373 16.2938 50.8435 16.0459 50.9525C15.7981 51.0614 15.5557 51.1894 15.3161 51.342C15.2725 51.3856 15.218 51.4074 15.1554 51.4074C15.0683 51.4074 15.0247 51.3638 15.0247 51.2766V51.1785L15.2507 50.4976C15.2943 50.4104 15.3215 50.2987 15.3324 50.1571C15.3433 50.0155 15.3597 49.882 15.3814 49.7512C15.4468 48.8224 15.4795 47.8609 15.4795 46.8694C15.4795 46.3736 15.4795 45.8915 15.4795 45.4284C15.4795 44.9654 15.4904 44.5268 15.5122 44.1155C15.5122 43.8568 15.5176 43.5925 15.5285 43.3229C15.5394 43.0532 15.5557 42.7781 15.5775 42.4975L15.4168 42.7236C14.9838 43.3501 14.401 44.042 13.6685 44.7965C12.9332 45.5537 12.1897 46.2429 11.4326 46.8694C10.7627 47.4305 10.0246 47.9644 9.21307 48.4737C8.40424 48.9804 7.5137 49.3971 6.54147 49.7213C5.78438 49.98 5.01912 50.1108 4.24297 50.1108C3.63839 50.1108 3.07193 50.0291 2.5436 49.8684C2.01527 49.7076 1.55503 49.4434 1.16831 49.0757C0.866021 48.7952 0.6182 48.4438 0.422119 48.0216C0.226038 47.5994 0.098039 47.1853 0.0326788 46.774C0.010892 46.7087 0 46.6133 0 46.4826V46.1911C0 45.867 0.0326803 45.5319 0.0980405 45.186C0.163401 44.8401 0.269612 44.5159 0.422119 44.2136C0.59369 43.8241 0.811554 43.41 1.07027 42.966C1.32899 42.5248 1.57682 42.1189 1.81647 41.7512C1.83826 41.6858 1.89272 41.6531 1.97715 41.6531C2.02072 41.6531 2.04251 41.6858 2.04251 41.7512C2.04251 41.8166 2.02072 41.871 1.97715 41.9119C1.74021 42.1707 1.5169 42.5493 1.31265 43.045C1.1084 43.5435 1.00491 44.0066 1.00491 44.4369V44.6303C1.00491 45.1479 1.07572 45.6354 1.21461 46.0876C1.3535 46.5425 1.57681 46.9184 1.87911 47.2207C2.39654 47.7819 2.97934 48.1877 3.62749 48.4356C4.27565 48.6835 4.94287 48.8088 5.6346 48.8088C6.80019 48.8088 7.99846 48.5064 9.22941 47.9017C9.79042 47.6212 10.3351 47.2861 10.8661 46.8966C11.3945 46.5071 11.8656 46.1312 12.2741 45.7635C12.8569 45.2241 13.4125 44.6739 13.9408 44.1128C14.4691 43.5517 14.9294 42.9797 15.3161 42.3968L15.5748 42.0072C15.6184 41.1002 15.6783 40.2149 15.7518 39.3514C15.8281 38.488 15.9288 37.7226 16.0596 37.0525C16.3183 35.7777 16.8248 34.5384 17.5819 33.3262C17.7753 33.0239 17.9986 32.6997 18.2464 32.3538C18.4942 32.0079 18.7039 31.7164 18.8782 31.4794C18.9871 31.3705 19.0825 31.3187 19.1696 31.3187C19.2785 31.3187 19.3848 31.3732 19.4937 31.4794C19.7524 31.7818 19.8831 32.1168 19.8831 32.4845C19.8831 32.6561 19.8722 32.776 19.8504 32.8414C19.7197 33.7048 19.5209 34.5411 19.2513 35.3528C18.9817 36.1618 18.7175 36.87 18.4588 37.4747C18.2219 37.9732 17.9795 38.4798 17.729 38.9973C17.4811 39.5149 17.1952 40.0351 16.8711 40.5527C16.8711 40.727 16.8657 40.8877 16.8548 41.0375C16.8439 41.1901 16.8384 41.3508 16.8384 41.5224V42.2687C16.8384 42.4839 16.8439 42.7018 16.8548 42.917C16.8657 43.1322 16.8711 43.361 16.8711 43.598V45.5728C16.8711 46.0685 16.8657 46.5616 16.8548 47.0464C16.8439 47.5313 16.8602 48.0025 16.9038 48.4547C16.9038 48.6481 16.9583 48.7461 17.0645 48.7461C17.1734 48.7461 17.2687 48.6698 17.3559 48.52C17.8297 47.85 18.418 47.0519 19.1206 46.123C19.8232 45.1942 20.5503 44.2544 21.3074 43.3038C22.0618 42.3532 22.8026 41.4352 23.527 40.55C24.2514 39.6647 24.8805 38.9184 25.4224 38.3137C25.9181 37.7525 26.4546 37.1696 27.0265 36.5649C27.5984 35.9602 28.1757 35.3446 28.7585 34.7181C29.3849 34.0263 29.9568 33.4161 30.4742 32.8877C30.9916 32.3592 31.5418 31.8335 32.1246 31.316C32.4704 31.0354 32.8163 30.8938 33.1621 30.8938C33.4644 30.8938 33.7014 31.0136 33.8757 31.2506C34.0472 31.4958 34.1344 31.7654 34.1344 32.0678ZM19.1369 33.7185C19.1369 33.3507 19.0825 33.092 18.9763 32.9422C18.8455 32.7706 18.7066 32.6834 18.5541 32.6834C18.4016 32.6834 18.2845 32.7597 18.1974 32.9095C17.8951 33.3834 17.669 33.9255 17.5165 34.5302C17.364 35.1349 17.236 35.805 17.1271 36.5377C17.0835 36.9054 17.0345 37.314 16.98 37.7689C16.9256 38.2238 16.8875 38.6215 16.8657 38.9674C16.8439 39.3133 16.8493 39.5503 16.882 39.681C16.9147 39.8118 16.9964 39.7464 17.1244 39.4876C17.2551 39.2289 17.4103 38.9156 17.5928 38.5479C17.7753 38.1802 17.9604 37.7988 18.1429 37.3984C18.3254 36.998 18.4888 36.6003 18.6277 36.1999C18.7666 35.7995 18.87 35.4508 18.9354 35.1458C18.979 34.9088 19.0226 34.6664 19.0661 34.4158C19.1151 34.1679 19.1369 33.9364 19.1369 33.7185Z" fill="#5E5E7B"/>
<path d="M42.3265 46.1916C41.9589 46.7963 41.5286 47.3193 41.0302 47.7633C40.5318 48.2072 40.0089 48.5831 39.4588 48.8964C38.9087 49.2096 38.3613 49.463 37.8221 49.6564C37.2829 49.8497 36.7845 49.9914 36.3324 50.0786C35.254 50.3155 34.4642 50.2338 33.9686 49.8361C33.4702 49.4357 33.2877 48.8583 33.4185 48.1037C33.462 47.7578 33.6064 47.3438 33.8569 46.8562C34.1047 46.3714 34.4234 45.8892 34.8128 45.4153C35.2022 44.9413 35.6325 44.4919 36.1091 44.0697C36.583 43.6475 37.0596 43.3097 37.5334 43.0482C38.0509 42.7895 38.4893 42.6859 38.8461 42.7404C39.2028 42.7949 39.3799 42.9828 39.3799 43.307C39.3799 43.544 39.2818 43.8055 39.0885 44.0833C38.6146 44.797 37.9719 45.448 37.1603 46.0418C36.3515 46.6356 35.5345 47.1803 34.7148 47.6788C34.5432 48.3925 34.7039 48.91 35.1995 49.2342C35.5236 49.4711 35.9648 49.5855 36.5285 49.5746C37.0895 49.5637 37.6996 49.4275 38.3586 49.1688C39.0177 48.91 39.6876 48.515 40.3657 47.9866C41.0465 47.4582 41.6566 46.7936 42.1958 45.9955C42.2829 45.8865 42.3347 45.8702 42.3565 45.9464C42.381 46.0254 42.3701 46.1044 42.3265 46.1916ZM38.473 43.8926C38.7099 43.5031 38.7372 43.2389 38.5547 43.1C38.3722 42.9611 38.0863 43.0074 37.6968 43.2471C37.0922 43.6366 36.5095 44.2086 35.9484 44.9631C35.3874 45.7203 34.9871 46.5075 34.7502 47.3274C36.4332 46.3959 37.675 45.2518 38.473 43.8926Z" fill="#5E5E7B"/>
<path d="M41.3241 45.252C42.0376 43.89 42.6531 42.8332 43.1705 42.0786C43.688 41.3241 44.0011 40.9237 44.1101 40.8801C44.1319 40.793 44.2272 40.7821 44.4015 40.8474C44.0992 41.3459 43.9113 41.8035 43.835 42.223C43.7588 42.6452 43.8187 42.9939 44.012 43.2744C44.249 43.6204 44.5349 43.7566 44.8699 43.6803C45.2049 43.604 45.4908 43.4923 45.7277 43.3398C45.8775 43.2526 46.0246 43.1627 46.1662 43.0647C46.3051 42.9666 46.4304 42.8658 46.5393 42.7569L46.6373 42.5635C46.6591 42.5635 46.6755 42.558 46.6864 42.5472C46.6973 42.5363 46.7136 42.5308 46.7354 42.5308C46.7354 42.509 46.7572 42.4763 46.8007 42.4327C46.8225 42.411 46.8661 42.4219 46.9315 42.4654C47.1466 42.3783 47.34 42.4001 47.5143 42.5308C47.6014 42.7024 47.5687 42.8985 47.4162 43.1137C46.877 43.9554 46.3514 44.8243 45.8448 45.7205C45.3383 46.6166 44.9652 47.4011 44.7283 48.0685C44.554 48.6732 44.6357 49.0463 44.9707 49.1853C45.3056 49.3269 45.7849 49.1798 46.4113 48.7467C47.0377 48.3163 47.6586 47.7852 48.2741 47.1587C48.8895 46.5322 49.4124 45.9057 49.8454 45.2792C49.9108 45.192 49.9762 45.1702 50.0388 45.2138C50.1042 45.2574 50.0824 45.3446 49.9734 45.4726C49.4968 46.0991 48.9522 46.7256 48.3367 47.3521C47.7212 47.9786 47.1112 48.4961 46.5066 48.9074C45.8802 49.3623 45.3574 49.6374 44.9353 49.7328C44.5131 49.8281 44.1891 49.7981 43.963 49.6347C43.737 49.4713 43.6226 49.1934 43.6226 48.793C43.6226 48.3926 43.7424 47.9132 43.9794 47.3521L46.3105 43.141C46.1362 43.2717 45.9429 43.4106 45.7277 43.5632C45.5126 43.7157 45.2838 43.8655 45.0469 44.018C44.5077 44.3422 44.091 44.5301 43.7996 44.5846C43.5082 44.6391 43.3094 44.5683 43.2005 44.3749C43.0698 44.2659 43.0126 44.0725 43.0235 43.792C43.0344 43.5114 43.0725 43.2744 43.1378 43.0783C43.1814 42.9067 43.1542 42.8359 43.0561 42.8686C42.9581 42.9013 42.8573 42.9939 42.7484 43.1437C42.5959 43.3807 42.4734 43.5822 42.3753 43.7429C42.2773 43.9036 42.1847 44.0616 42.1003 44.2114C42.0131 44.364 41.926 44.5192 41.8415 44.6799C41.7544 44.8407 41.6482 45.0422 41.5175 45.2792L41.3241 45.252Z" fill="#5E5E7B"/>
<path d="M63.6367 45.445C63.0321 46.1805 62.3404 46.9132 61.5642 47.6486C60.7881 48.3841 59.8158 48.9452 58.6502 49.332C58.3915 49.4191 58.1165 49.4736 57.8251 49.4927C57.5337 49.5145 57.2695 49.4927 57.0326 49.4273C56.5778 49.2966 56.3245 49.0705 56.2728 48.7463C56.2183 48.4222 56.3327 48.0327 56.6132 47.5805C56.9373 47.0848 57.2613 46.54 57.5854 45.9435C57.9095 45.3497 58.1791 44.7722 58.3943 44.2111C58.544 43.8434 58.5713 43.59 58.476 43.4511C58.3779 43.3122 58.1573 43.3585 57.8115 43.5982C57.2505 43.9659 56.684 44.4671 56.1121 45.1045C55.5402 45.7419 55.0064 46.4392 54.508 47.1937C54.3365 47.5615 54.1949 47.8747 54.0859 48.1335C53.977 48.3922 53.8599 48.6102 53.7292 48.7818C53.4922 49.1495 53.2444 49.2666 52.983 49.1386C52.874 49.095 52.825 49.0078 52.8359 48.8798C52.8468 48.7491 52.9067 48.621 53.0129 48.4903C53.5957 47.714 54.0859 46.9241 54.4863 46.126C54.8866 45.3279 55.1181 44.6142 55.1834 43.9877C55.227 43.729 55.1671 43.5546 55.0064 43.4702C54.8457 43.383 54.6115 43.4593 54.3092 43.6963C54.0287 43.9332 53.7428 44.2138 53.4514 44.538C53.16 44.8621 52.8849 45.208 52.6262 45.5757C52.1932 46.2022 51.7901 46.8669 51.4116 47.5669C51.0331 48.2697 50.66 48.9016 50.295 49.4627C50.2079 49.6125 50.1017 49.716 49.9709 49.7705C49.8402 49.825 49.7231 49.7869 49.6142 49.6561C49.4617 49.4845 49.399 49.3047 49.4208 49.1222C49.4426 48.9397 49.5516 48.6837 49.7449 48.3623C49.9601 48.0163 50.1752 47.6296 50.3931 47.1965C50.6082 46.7661 50.8016 46.333 50.9759 45.8999C51.1474 45.4695 51.3108 45.0528 51.4606 44.6524C51.6104 44.2519 51.7302 43.9033 51.8174 43.5982C51.8609 43.4266 51.9209 43.1978 51.9944 42.9172C52.0706 42.6367 52.1496 42.476 52.2368 42.4324C52.3457 42.3888 52.4574 42.3561 52.5772 42.3343C52.6943 42.3125 52.7869 42.2799 52.8522 42.2363C53.0238 42.1709 53.1436 42.1981 53.209 42.318C53.2744 42.4378 53.2526 42.6476 53.1436 42.9499C53.1001 43.0807 53.0347 43.2577 52.9503 43.4838C52.8631 43.7099 52.7678 43.9605 52.6589 44.2302C52.55 44.4998 52.4437 44.7749 52.3348 45.0555C52.2259 45.336 52.1306 45.5839 52.0434 45.8018C52.5609 45.0691 53.0538 44.4535 53.5167 43.955C53.9797 43.4593 54.3528 43.146 54.6333 43.0153C54.9356 42.8655 55.1889 42.8491 55.3931 42.9663C55.5974 43.0861 55.6791 43.3612 55.6355 43.7916C55.5701 44.4835 55.3659 45.2053 55.02 45.9625C55.5157 45.336 56.0358 44.7531 56.5751 44.2138C57.1143 43.6745 57.6862 43.2196 58.2908 42.8519C58.6366 42.6367 58.9716 42.5168 59.2957 42.495C59.6633 42.4515 59.8676 42.5386 59.9112 42.7538C59.9547 42.969 59.8894 43.2387 59.7178 43.5628C59.2004 44.5352 58.7565 45.3932 58.3888 46.1396C58.0212 46.8859 57.7733 47.526 57.6426 48.0681C57.5337 48.5012 57.5772 48.7981 57.7733 48.9588C57.9694 49.1195 58.269 49.1359 58.6802 49.0078C59.7804 48.6619 60.7091 48.1389 61.4662 47.4362C62.2206 46.7334 62.8796 46.017 63.4406 45.2816C63.5278 45.1726 63.6013 45.1481 63.6667 45.1999C63.7347 45.2571 63.7238 45.3388 63.6367 45.445Z" fill="#5E5E7B"/>
<path d="M72.9313 45.6411C72.629 46.0306 72.2995 46.4337 71.9427 46.8559C71.5859 47.2781 71.202 47.6758 70.7934 48.0545C70.3822 48.4331 69.9683 48.7844 69.5462 49.1059C69.124 49.43 68.7101 49.6997 68.2989 49.9149C67.0026 50.5849 66.1774 50.7075 65.8206 50.288C65.4639 49.8658 65.502 48.9642 65.935 47.5832C66.0439 47.2373 66.1719 46.875 66.3245 46.4991C66.4742 46.1205 66.6594 45.7174 66.8746 45.2843C66.3136 46.0415 65.7362 46.7579 65.1425 47.4389C64.5488 48.1198 63.9388 48.6428 63.3124 49.0105C62.6861 49.4 62.2476 49.4491 61.9998 49.1576C61.752 48.8662 61.801 48.3977 62.1468 47.7494C62.5771 46.9731 63.1191 46.254 63.7672 45.5948C64.4154 44.9356 65.0526 44.3908 65.679 43.9577C66.0031 43.7208 66.349 43.5165 66.7166 43.3421C67.0843 43.1705 67.4492 43.0834 67.8168 43.0834C67.9666 42.7592 68.13 42.4514 68.3016 42.16C68.4732 41.8685 68.6475 41.6043 68.819 41.3673C68.8844 41.2802 68.9579 41.2366 69.0451 41.2366C69.154 41.2366 69.2057 41.3019 69.2057 41.43C69.2057 41.5171 69.2166 41.588 69.2384 41.6397C69.2602 41.6942 69.282 41.7432 69.3038 41.7868L69.3691 41.9175C69.4345 42.0483 69.4345 42.1545 69.3691 42.2417C68.6774 43.3421 68.1382 44.3418 67.7488 45.238C67.3593 46.1341 67.0679 47.0684 66.8746 48.0408C66.7221 48.7763 66.7929 49.272 67.0843 49.5308C67.3757 49.7896 67.855 49.7678 68.5249 49.4654C68.8708 49.3156 69.2384 49.0922 69.6251 48.8008C70.0119 48.5093 70.3904 48.1852 70.7581 47.8284C71.1257 47.4715 71.4825 47.0956 71.8256 46.6952C72.1715 46.2948 72.4738 45.9026 72.7325 45.5131C72.7978 45.4041 72.8632 45.3796 72.9258 45.4314C72.9966 45.4831 72.9966 45.5539 72.9313 45.6411ZM67.6534 43.4048C67.3511 43.4048 67.0216 43.4974 66.6649 43.6799C66.3081 43.8624 65.9568 44.1075 65.6137 44.4099C65.4394 44.5406 65.246 44.7231 65.0309 44.9601C64.8157 45.1971 64.6033 45.4613 64.399 45.7528C64.1948 46.0442 64.0042 46.3411 63.8326 46.6435C63.6583 46.9458 63.5303 47.2373 63.4431 47.5178C63.2906 47.9509 63.2906 48.2152 63.4431 48.3105C63.5929 48.4086 63.8326 48.305 64.1567 48.0027C64.7612 47.4416 65.3713 46.777 65.9868 46.0115C66.5995 45.2461 67.1551 44.3772 67.6534 43.4048Z" fill="#5E5E7B"/>
<path d="M64.8775 13.8691C64.7304 13.2589 64.4853 12.6896 64.164 12.1694C63.6057 11.6273 62.7124 11.1479 61.4842 10.9191C61.1383 10.8537 60.8578 10.821 60.6318 10.8074C60.5664 10.3634 60.4548 9.93578 60.3077 9.52719C60.2641 9.51902 60.2233 9.5054 60.1797 9.49995C59.3028 7.15197 57.1078 5.4223 54.4634 5.17988C54.4253 5.17443 54.3872 5.16898 54.349 5.16353C54.3463 5.16081 54.3409 5.15809 54.3381 5.15536C54.2592 5.15264 54.1802 5.14719 54.0985 5.14719C53.7771 5.14719 53.464 5.17715 53.1562 5.22073C51.7455 3.79614 49.8691 2.83734 47.7749 2.58129C47.4508 2.5486 47.1267 2.52409 46.7972 2.51592C46.6692 2.5132 46.5412 2.5132 46.4132 2.51592C45.8604 2.51864 45.3157 2.55678 44.7765 2.63032C44.6648 2.64394 44.5532 2.65756 44.4415 2.67663C42.8565 1.66062 40.9801 1.05864 38.9676 1.02051C36.955 1.05864 35.0787 1.66062 33.4937 2.67663C33.382 2.65756 33.2704 2.64666 33.1587 2.63032C33.1287 2.64939 33.0961 2.66573 33.0661 2.6848C32.8401 2.63849 32.6086 2.60853 32.3771 2.57857C32.0966 2.54588 31.8106 2.52409 31.522 2.51592C31.4403 2.5132 31.3586 2.50775 31.2769 2.50775C30.8983 2.50775 30.528 2.53771 30.1603 2.58129C28.066 2.83734 26.1897 3.79342 24.779 5.22073C24.4712 5.17715 24.1581 5.14719 23.8367 5.14719C23.755 5.14719 23.676 5.15264 23.597 5.15536C23.4037 5.16353 23.2103 5.17988 23.0197 5.20167C20.5142 5.51219 18.4527 7.22279 17.6275 9.52719C17.4804 9.9385 17.3688 10.3634 17.3034 10.8074C17.0774 10.821 16.7996 10.8537 16.451 10.9191C15.22 11.1479 14.3295 11.6273 13.7712 12.1694C13.5833 12.3519 13.4335 12.5398 13.3219 12.725C13.1258 13.0546 13.0414 13.4414 13.0577 13.8663C13.0577 13.8691 13.0577 13.8718 13.0577 13.8745C13.153 16.4213 16.8568 20.4935 22.2572 23.7241C24.0627 24.8054 25.8629 25.6744 27.5432 26.3118C28.3929 26.6332 29.2099 26.8947 29.9833 27.0962C30.0378 27.1099 30.0895 27.1235 30.144 27.1371C30.2366 27.1616 30.3291 27.1807 30.4217 27.2025C30.5089 27.2215 30.596 27.2433 30.6832 27.2624H30.6859C30.8275 27.2924 30.9691 27.3223 31.108 27.3496C31.1625 27.3605 31.2142 27.3686 31.2687 27.3768C31.3259 27.3877 31.3831 27.3986 31.4403 27.4068C31.6227 27.4367 31.8025 27.464 31.9768 27.4858C32.0394 27.4939 32.1021 27.4994 32.1647 27.5048C32.3036 27.3305 32.4452 27.1534 32.5868 26.9791C32.6059 26.9846 32.6249 26.9873 32.6467 26.9927C32.6277 26.9873 32.6113 26.9818 32.5922 26.9737C33.5781 25.7724 34.6729 24.5712 35.8712 23.3836C36.2824 22.975 36.7045 22.5691 37.1402 22.166C37.2001 22.1115 37.2601 22.0571 37.32 22.0026C37.851 21.5123 38.4066 21.0301 38.9703 20.5507C39.21 20.3465 39.4469 20.1422 39.692 19.9406C39.8826 19.7826 40.076 19.6355 40.2694 19.483C40.4818 19.3141 40.6942 19.1425 40.9066 18.9791C41.1871 18.7612 41.4676 18.5541 41.7481 18.3444C42.1376 18.0557 42.527 17.7724 42.9192 17.4973C42.9573 17.47 42.9954 17.4428 43.0336 17.4156C43.7389 16.9225 44.4442 16.4622 45.1469 16.0209C45.5935 15.7431 46.0374 15.4707 46.4786 15.2147C46.8816 14.9804 47.282 14.7543 47.6823 14.5391C47.8348 14.4574 47.9873 14.373 48.1398 14.2913C48.3958 14.1578 48.6491 14.027 48.9051 13.9017C48.9568 13.8745 49.0113 13.8473 49.063 13.82C49.5777 13.564 50.0897 13.3297 50.5935 13.1064C50.6916 13.0628 50.7896 13.0165 50.8849 12.9756C51.9852 12.5017 53.0527 12.1149 54.0822 11.8016C54.2483 11.7526 54.4144 11.6981 54.5778 11.6518C54.6078 11.6437 54.6377 11.6355 54.6704 11.6273C55.0489 11.5211 55.422 11.4312 55.7897 11.3495C55.9204 11.3195 56.0511 11.2895 56.1791 11.2623C57.1214 11.0716 58.0119 10.9654 58.848 10.9382C58.9651 10.9354 59.0849 10.9273 59.202 10.9273C59.262 10.9273 59.3219 10.9273 59.3818 10.93C59.6868 10.9327 59.9836 10.9463 60.2669 10.9736C60.3649 10.9817 60.4575 10.9954 60.5528 11.009C61.2582 11.0989 61.9009 11.2678 62.4701 11.5184C63.0474 11.7717 63.5485 12.104 63.9679 12.5262C64.0687 12.627 64.1694 12.7305 64.2593 12.8422C64.5153 13.1554 64.7168 13.5013 64.8829 13.8718C64.8857 13.8745 64.8857 13.8772 64.8884 13.8827C64.8802 13.88 64.8802 13.8745 64.8775 13.8691ZM24.0627 23.4244C17.7555 19.6464 14.1116 15.0022 15.4869 12.706C15.5741 12.5616 15.7456 12.4063 15.9444 12.2592C16.3203 11.9841 16.7615 11.8234 17.2217 11.7553C17.2217 11.7581 17.2217 11.7581 17.2217 11.7608C17.2217 12.6079 17.3824 13.4196 17.6738 14.1632C17.9107 14.945 18.2402 15.7513 18.6596 16.5657C19.9478 18.6168 21.432 20.5344 23.0851 22.2886C23.5181 22.7462 23.9593 23.1956 24.414 23.6315C24.2969 23.5634 24.1798 23.4953 24.0627 23.4244ZM24.7517 23.8276C24.8334 23.8766 24.8607 23.8902 24.7517 23.8276V23.8276ZM25.596 22.8579C23.7659 21.2862 22.2735 19.5511 21.1787 17.8132C19.8797 15.7567 19.1417 13.7029 19.0654 11.9242C19.0572 11.7172 19.0545 11.5129 19.0627 11.3113C19.0681 11.186 19.079 11.0635 19.0926 10.9409C19.1961 9.96029 19.5365 9.09409 20.133 8.39678C20.7457 7.68312 21.5818 7.22006 22.5622 6.97219C22.8726 6.8932 23.194 6.83327 23.5317 6.80059C23.5072 6.84144 23.4827 6.88503 23.4582 6.92589C22.9516 7.76484 22.5731 8.68824 22.3552 9.67428C22.2354 10.2163 22.1646 10.7747 22.1455 11.3495C22.1428 11.3903 22.1401 11.4312 22.1401 11.4748C22.1401 11.532 22.1319 11.5892 22.1319 11.6491C22.1319 11.7553 22.1455 11.8588 22.1482 11.9651C22.1564 12.2211 22.1727 12.4744 22.2 12.725C22.2054 12.7904 22.2081 12.8558 22.2136 12.9184C22.3797 14.817 22.81 16.642 23.469 18.3526C24.1798 20.2075 25.1575 21.929 26.3558 23.4735C26.1025 23.2746 25.8465 23.0758 25.596 22.8579ZM25.0649 18.3471C25.054 18.3172 25.0431 18.2899 25.0322 18.26C24.4249 16.6747 24.041 15.1139 23.8993 13.6375C23.8639 13.2671 23.8476 12.9048 23.8421 12.5453C23.8394 12.2947 23.8449 12.0468 23.8558 11.8016C23.883 11.2024 23.9565 10.6222 24.0764 10.0692C24.3405 8.84622 24.828 7.7485 25.5551 6.836C25.5742 6.81148 25.5987 6.78697 25.6178 6.76245C25.8275 6.50641 26.0535 6.26126 26.304 6.03517C26.4075 5.93984 26.5165 5.85268 26.6254 5.76824C27.8536 4.78219 29.3842 4.25648 31.089 4.1557C31.0781 4.16931 31.0699 4.18293 31.0617 4.19655C30.8602 4.47167 30.6641 4.75495 30.4735 5.04096C30.2066 5.37872 29.9669 5.73555 29.7436 6.10327C29.4767 6.54454 29.2398 7.00488 29.0383 7.48156C29.0192 7.52514 29.0002 7.566 28.9811 7.60958C28.9648 7.65044 28.9484 7.69402 28.9321 7.73488C28.8722 7.88741 28.8177 8.04268 28.7632 8.19794C28.3275 9.20305 27.9762 10.2517 27.7038 11.3331C27.5568 11.916 27.437 12.5071 27.3416 13.1064C27.2899 13.4278 27.2436 13.7492 27.2082 14.0761C27.1619 14.4901 27.1265 14.9096 27.1074 15.3318C27.0911 15.6695 27.0829 16.0073 27.0829 16.3478C27.0829 16.7346 27.0965 17.1159 27.1156 17.4973C27.1619 18.3199 27.2599 19.1289 27.3988 19.9215C27.712 21.7138 28.2567 23.4272 29.0056 25.0288C27.2599 22.8742 25.9337 20.5889 25.0649 18.3471ZM31.0781 16.4186C30.9528 16.8708 30.8384 17.3311 30.7376 17.7969C30.7022 17.9576 30.6696 18.121 30.6369 18.2818C30.4789 19.0826 30.3537 19.9025 30.272 20.736C30.2066 21.3761 30.163 22.0244 30.1467 22.6808C30.1303 23.3455 30.1385 24.0046 30.1712 24.6556C29.9288 23.9365 29.7137 23.1984 29.5312 22.4357C29.3787 21.7983 29.2562 21.1663 29.1554 20.5371C28.9321 19.1371 28.8313 17.7588 28.8476 16.4295C28.8504 16.3042 28.8531 16.1816 28.8585 16.0563C28.8667 15.7948 28.8776 15.5388 28.8939 15.2828C28.8994 15.1983 28.9048 15.1112 28.9103 15.0267C28.9402 14.6454 28.9865 14.2749 29.0356 13.9045C29.1173 13.2807 29.2207 12.6733 29.3542 12.0849C29.5503 11.2296 29.7954 10.4097 30.0949 9.63887C30.2502 9.24119 30.419 8.85439 30.6015 8.48395C30.6505 8.38589 30.7023 8.29327 30.7513 8.19794C30.9855 7.74577 31.2415 7.3154 31.5165 6.91227C32.211 5.89081 33.0225 5.02461 33.9485 4.35182C33.9839 4.3273 34.0193 4.30551 34.0547 4.28099C34.4823 3.98137 34.9289 3.71443 35.3973 3.49924C35.8712 3.28133 36.3668 3.10428 36.8815 2.9817C37.5705 2.81827 38.2704 2.7529 38.9676 2.77196C39.9507 2.7992 40.9339 2.99532 41.8979 3.35215C40.8767 3.73622 39.8963 4.24559 38.9676 4.86391C38.6544 5.07092 38.3494 5.29155 38.0471 5.52581C38.0035 5.55849 37.96 5.59391 37.9164 5.62932C37.8674 5.66745 37.8183 5.71103 37.7693 5.75189C36.6664 6.64532 35.6506 7.70219 34.7437 8.89525C34.4523 9.27932 34.1745 9.67701 33.9076 10.0883C33.8395 10.1918 33.7715 10.2926 33.7061 10.3961C33.0933 11.374 32.5568 12.4281 32.0912 13.5395C31.8624 14.0842 31.6527 14.6454 31.4593 15.2174C31.3259 15.6123 31.1924 16.01 31.0781 16.4186ZM31.3586 24.8381C31.3613 24.6693 31.3586 24.5031 31.364 24.3342C31.3967 23.1166 31.5029 21.929 31.6718 20.7714C31.7317 20.3574 31.7998 19.946 31.876 19.5429C31.9196 19.3087 31.9686 19.0771 32.0176 18.8483C32.1266 18.3444 32.2437 17.8487 32.3771 17.3638C32.5024 16.9062 32.644 16.4649 32.7911 16.0237C32.9817 15.4462 33.1887 14.8823 33.412 14.3376C33.8504 13.2698 34.3488 12.262 34.9044 11.3277C34.9725 11.216 35.0405 11.1098 35.1086 10.9981C35.3673 10.5813 35.6397 10.1782 35.9202 9.79141C36.8189 8.56021 37.8238 7.49518 38.9104 6.63171C38.9295 6.61809 38.9485 6.60447 38.9649 6.58812C39.0793 6.49823 39.1909 6.40835 39.308 6.32391C39.4932 6.18771 39.6811 6.05424 39.8745 5.92894C39.9698 5.86629 40.0678 5.80637 40.1631 5.74644C41.3206 5.03006 42.5488 4.52887 43.8288 4.28372C43.8451 4.28099 43.8614 4.27827 43.8778 4.27555C44.5423 4.15297 45.2204 4.09305 45.9094 4.11211C46.0238 4.11484 46.1354 4.12573 46.2471 4.13391C46.4568 4.14753 46.6638 4.16659 46.8707 4.19383C48.1344 4.35454 49.3463 4.75768 50.4846 5.37872C49.7357 5.55032 48.9677 5.79547 48.1888 6.10055C48.0799 6.14413 47.9682 6.18499 47.8593 6.23129C47.5134 6.37566 47.1621 6.53365 46.8135 6.70525C46.6828 6.7679 46.5494 6.84144 46.4187 6.90954C45.3457 7.45704 44.2645 8.11894 43.1915 8.89253C43.1724 8.90615 43.1561 8.91704 43.137 8.93066C42.7612 9.20305 42.3854 9.49451 42.0123 9.79413C41.4676 10.23 40.9257 10.693 40.3919 11.1833C39.9099 11.6273 39.436 12.0985 38.9676 12.5861C38.9213 12.6351 38.8723 12.6814 38.826 12.7305C38.5455 13.0274 38.2704 13.3379 37.9954 13.6457C37.8892 13.7656 37.7802 13.8745 37.6767 13.9971C37.271 14.4683 36.8706 14.9559 36.4785 15.4625C36.3178 15.6695 36.1653 15.8766 36.0128 16.0836C35.6669 16.5521 35.3347 17.0233 35.0187 17.4973C34.7219 17.944 34.4332 18.3907 34.1636 18.8401C33.8995 19.2787 33.6516 19.7172 33.4147 20.1558C33.3493 20.2784 33.2785 20.4009 33.2159 20.5235C33.205 20.5453 33.1941 20.5671 33.1832 20.5889C32.4316 22.0216 31.8243 23.4462 31.3586 24.8381ZM55.5773 9.67701C55.4547 9.6988 55.3349 9.71786 55.2096 9.74238C55.0326 9.77779 54.8501 9.82137 54.6677 9.86223C54.4035 9.92216 54.1312 9.99842 53.8588 10.0692C52.6987 10.3825 51.4841 10.802 50.2286 11.3331C50.1932 11.3467 50.1605 11.3604 50.1251 11.374C49.8528 11.4911 49.5777 11.611 49.3 11.7363C49.063 11.8452 48.8207 11.9623 48.581 12.0795C48.1044 12.311 47.6224 12.5507 47.1376 12.8095C47.1049 12.8258 47.075 12.8422 47.0423 12.8612C46.6447 13.0737 46.2444 13.3025 45.844 13.534C45.4056 13.7901 44.9644 14.057 44.5205 14.3321C43.6545 14.8742 42.7884 15.4571 41.9224 16.0809C41.7563 16.2007 41.5929 16.3124 41.4268 16.4322C41.2035 16.5957 40.9802 16.77 40.7596 16.9389C40.5499 17.0996 40.3402 17.2521 40.1305 17.4183C39.8609 17.6307 39.594 17.8432 39.3271 18.0611C39.2045 18.1619 39.0901 18.2681 38.9676 18.3689C38.5264 18.7366 38.088 19.1044 37.6686 19.4803C37.1511 19.9406 36.6473 20.4091 36.1626 20.8776C35.9256 21.1064 35.6914 21.338 35.4599 21.5695C35.3101 21.7193 35.1631 21.8691 35.016 22.0189C34.3406 22.7162 33.7007 23.419 33.1015 24.1218C33.4855 23.1766 33.9294 22.2259 34.4332 21.2753C34.4496 21.2453 34.4632 21.2181 34.4795 21.1881C34.711 20.7523 34.9561 20.3192 35.2121 19.8861C35.223 19.8807 35.2312 19.8752 35.2421 19.8725C35.2366 19.8671 35.2339 19.8643 35.2284 19.8589C35.5307 19.3495 35.8548 18.8429 36.1871 18.339C36.3396 18.1101 36.4866 17.8813 36.6446 17.6553C36.8162 17.4101 36.9959 17.1759 37.1729 16.9362C37.6386 16.3069 38.1125 15.6968 38.5999 15.1166C38.7198 14.975 38.8423 14.8415 38.9649 14.7026C39.1283 14.5146 39.2917 14.3267 39.4578 14.1442C39.6158 13.9698 39.7792 13.8064 39.9398 13.6375C40.046 13.5259 40.1523 13.4114 40.2585 13.3025C41.0945 12.4526 41.9551 11.6872 42.8239 10.9899C43.2242 10.6685 43.6245 10.3634 44.0276 10.0774C44.1065 10.0202 44.1855 9.95757 44.2672 9.90309C45.2395 9.22757 46.2171 8.65555 47.1867 8.18977C47.41 8.08081 47.6333 7.97458 47.8539 7.87924C48.0826 7.78118 48.3114 7.68585 48.5374 7.60141C48.5402 7.60413 48.5401 7.60958 48.5429 7.6123C48.5483 7.60686 48.5538 7.59868 48.5592 7.59324C48.6736 7.54965 48.7853 7.51697 48.8969 7.47883C50.0788 7.05936 51.2281 6.81421 52.3174 6.75973C52.3746 6.757 52.4345 6.74883 52.4917 6.74611C52.9411 6.73249 53.3795 6.75428 53.8071 6.80603C54.0359 6.83327 54.2564 6.87958 54.477 6.92589C55.3376 7.11111 56.1383 7.4407 56.8518 7.93917C57.4319 8.34503 57.9275 8.8435 58.3469 9.41551C57.4836 9.41007 56.5577 9.49995 55.5773 9.67701Z" fill="url(#paint0_linear)"/>
<path d="M13.0496 13.6754C13.2157 13.2995 13.42 12.9509 13.676 12.6349C13.7686 12.5232 13.8666 12.4197 13.9674 12.3189C14.3868 11.8995 14.8906 11.5644 15.4652 11.3111C16.0371 11.0605 16.6771 10.8916 17.3825 10.8017C17.4778 10.7881 17.5731 10.7772 17.6684 10.7663C17.9544 10.7391 18.2512 10.7255 18.5535 10.7228C18.6134 10.7228 18.6733 10.72 18.7332 10.72C19.6673 10.7228 20.6777 10.8372 21.7534 11.0551C22.2436 11.1559 22.7447 11.2784 23.2594 11.4201C23.2894 11.4282 23.3194 11.4364 23.352 11.4446C24.5312 11.7769 25.7676 12.2182 27.0449 12.7684C27.644 13.0272 28.2541 13.3077 28.8695 13.6128C29.1745 13.7653 29.4823 13.9206 29.7927 14.084C29.9452 14.163 30.0978 14.2475 30.2503 14.3319C31.7808 15.16 33.3385 16.1215 34.899 17.211C35.6098 17.7068 36.3179 18.227 37.0259 18.7745C37.4317 19.0878 37.8375 19.4065 38.2406 19.7361C39.0657 20.4116 39.8555 21.1007 40.6126 21.7981C40.6725 21.8525 40.7324 21.907 40.7923 21.9615C41.2281 22.3646 41.6502 22.7705 42.0614 23.1791C43.2597 24.3667 44.3572 25.5706 45.3403 26.7691C45.3212 26.7746 45.3049 26.78 45.2858 26.7882C45.3049 26.7855 45.324 26.78 45.3458 26.7746C45.4901 26.9489 45.629 27.126 45.7679 27.3003C45.8305 27.2921 45.8931 27.2894 45.9558 27.2812C46.1301 27.2594 46.3098 27.2322 46.4923 27.2022C46.5495 27.1941 46.6067 27.1832 46.6639 27.1723C46.7183 27.1614 46.7701 27.1532 46.8245 27.145C46.9634 27.1178 47.105 27.0906 47.2466 27.0579H47.2494C47.3365 27.0388 47.4237 27.0197 47.5108 26.998C47.6034 26.9762 47.696 26.9544 47.7886 26.9326C47.8431 26.919 47.8948 26.9053 47.9493 26.8917C48.7227 26.6929 49.5424 26.4287 50.3894 26.1072C52.0697 25.4699 53.8698 24.6009 55.6754 23.5196C61.9827 19.7415 65.9833 14.8167 64.608 12.5205C64.1613 11.7742 63.121 11.0169 61.4788 10.7146C61.133 10.6492 60.8525 10.6165 60.6264 10.6029C60.2016 7.66928 57.8622 5.36215 54.9101 4.99715C54.6433 4.96447 54.3709 4.94268 54.0931 4.94268C53.7718 4.94268 53.4586 4.97264 53.1509 5.01622C51.4951 3.34103 49.1966 2.30324 46.6557 2.30324C46.2826 2.30324 45.9177 2.3332 45.5555 2.37678C45.324 2.40402 45.0925 2.4367 44.8664 2.48301C43.2243 1.42614 41.2689 0.810547 39.1719 0.810547C37.0804 0.810547 35.1305 1.42342 33.491 2.47484C32.7203 2.35226 31.9333 2.29506 31.1354 2.31685C28.3821 2.3904 25.8112 3.34376 23.5862 4.96174C23.5481 4.96719 23.51 4.97264 23.4719 4.97809C20.8275 5.22051 18.6325 6.95018 17.7556 9.29816C16.9249 9.43436 16.1515 9.74216 15.4788 10.1916C14.2751 10.9842 13.3955 12.2263 13.0496 13.6754ZM34.7982 8.7207C33.5755 7.83272 32.3418 7.0891 31.1217 6.49529C30.7704 6.32641 30.4218 6.1657 30.076 6.02133C29.1827 5.65089 28.3031 5.36488 27.4507 5.16876C28.7742 4.44693 30.1958 4.01656 31.6882 3.92394C31.7998 3.91577 31.9115 3.90488 32.0259 3.90215C32.7312 3.88309 33.4257 3.94301 34.1092 4.07376C35.4954 4.33798 36.8244 4.90182 38.0635 5.71626C38.2542 5.84156 38.4421 5.97503 38.63 6.11122C38.7634 6.20928 38.8969 6.31279 39.0276 6.41902C40.5445 7.6257 41.9035 9.21645 43.0336 11.115C44.093 12.8882 44.9509 14.9284 45.5609 17.1511C45.6943 17.636 45.8114 18.1344 45.9204 18.6356C45.9694 18.8672 46.0184 19.0987 46.062 19.3302C46.1383 19.7361 46.2063 20.1447 46.2662 20.5587C46.4351 21.7136 46.5413 22.904 46.574 24.1215C46.5794 24.2904 46.5767 24.4566 46.5794 24.6255C46.1137 23.2308 45.5064 21.8062 44.7602 20.3789C44.7493 20.3571 44.7384 20.3353 44.7276 20.3135C44.6622 20.191 44.5941 20.0684 44.5288 19.9458C44.2918 19.5073 44.0413 19.0687 43.7798 18.6302C43.0936 17.4916 42.3201 16.3585 41.465 15.2498C41.0756 14.7459 40.6752 14.2584 40.2667 13.7844C39.8909 13.3459 39.5069 12.9264 39.1175 12.5178C38.6028 11.9757 38.0799 11.4609 37.5488 10.9706C36.6419 10.1426 35.7242 9.39078 34.7982 8.7207ZM42.538 3.28656C43.0473 3.52081 43.532 3.80409 43.9895 4.13641C45.3566 5.13062 46.4896 6.54704 47.3365 8.26854C47.519 8.63899 47.6851 9.02578 47.8431 9.42346C48.4722 11.036 48.8779 12.861 49.0277 14.8113C49.0332 14.8957 49.0386 14.9829 49.0441 15.0673C49.0604 15.3234 49.0713 15.5822 49.0795 15.8409C49.0822 15.9662 49.0876 16.0888 49.0904 16.2141C49.1067 17.5434 49.0087 18.9216 48.7826 20.3217C48.6819 20.9509 48.5593 21.5829 48.4068 22.2203C48.2243 22.9829 48.0092 23.7211 47.7668 24.4402C47.7968 23.7892 47.8077 23.1328 47.7913 22.4654C47.775 21.809 47.7314 21.1607 47.666 20.5206C47.5816 19.6843 47.4591 18.8672 47.3011 18.0663C47.2684 17.9029 47.2358 17.7422 47.2004 17.5815C47.0996 17.1157 46.9852 16.6554 46.8599 16.2032C46.2472 14.0023 45.3539 11.9703 44.2346 10.1807C43.0581 8.2985 41.6311 6.68324 40.0243 5.41391C39.9808 5.3785 39.9372 5.34581 39.8936 5.3104C38.6981 4.38428 37.4072 3.64883 36.0455 3.13674C37.6932 2.52659 39.398 2.37133 41.0619 2.76629C41.5685 2.89432 42.0641 3.06865 42.538 3.28656ZM51.3099 5.55827C51.4188 5.64544 51.5277 5.7326 51.6312 5.82521C51.9036 6.07309 52.1541 6.34003 52.3802 6.62603C53.573 8.12145 54.1258 10.1044 54.0931 12.3353C54.0877 12.6948 54.0714 13.0571 54.0359 13.4276C53.8943 14.9039 53.5103 16.4647 52.903 18.05C52.8921 18.08 52.8813 18.1072 52.8704 18.1372C51.9989 20.3789 50.6753 22.6615 48.9297 24.8188C49.6759 23.2172 50.2205 21.5066 50.5364 19.7116C50.6753 18.9162 50.7734 18.1099 50.8197 17.2873C50.8415 16.906 50.8524 16.5246 50.8524 16.1378C50.8524 15.7973 50.8442 15.4569 50.8278 15.1218C50.8061 14.6996 50.7707 14.2829 50.7271 13.8661C50.501 11.7987 49.9673 9.82387 49.1721 7.98798C49.1203 7.83271 49.0631 7.67745 49.0032 7.52492C48.9869 7.48406 48.9705 7.44048 48.9542 7.39962C48.5784 6.46805 48.0745 5.60458 47.4618 4.82827C47.263 4.52865 47.0587 4.23447 46.8463 3.94574C48.5511 4.04652 50.0789 4.57223 51.3099 5.55827ZM58.8726 11.1014C58.8808 11.3002 58.8781 11.5045 58.8699 11.7142C58.7936 13.4929 58.0556 15.5467 56.7566 17.6033C55.6618 19.3384 54.1694 21.0762 52.3393 22.6479C52.0888 22.8631 51.8328 23.0647 51.5795 23.2662C52.775 21.7218 53.7527 20.0003 54.4662 18.1453C55.1226 16.4347 55.5529 14.6097 55.7217 12.7112C55.7271 12.6458 55.7326 12.5804 55.7353 12.5178C55.7653 12.2672 55.7789 12.0139 55.7871 11.7578C55.7898 11.6516 55.8034 11.5481 55.8034 11.4419C55.8034 11.3819 55.7952 11.3275 55.7952 11.2675C55.7625 9.55148 55.256 7.95257 54.4036 6.59335C54.7413 6.62604 55.0626 6.68596 55.3731 6.76495C56.3535 7.01283 57.1896 7.47589 57.8023 8.18954C58.475 8.9713 58.8209 9.96824 58.8726 11.1014ZM53.5185 23.4188C52.7696 23.8573 53.2162 23.5958 53.5185 23.4188C53.9733 22.9829 54.4172 22.5335 54.8475 22.0759C56.5006 20.3217 57.9848 18.4068 59.2729 16.353C59.6923 15.5386 60.0219 14.7323 60.2588 13.9506C60.5502 13.2069 60.7109 12.3952 60.7109 11.5481C60.7109 11.5454 60.7109 11.5454 60.7109 11.5426C61.1711 11.6107 61.6123 11.7714 61.9881 12.0466C62.1869 12.1937 62.3585 12.3489 62.4456 12.4933C63.8209 14.7922 60.1798 19.4365 53.8698 23.2118C53.7527 23.2826 53.6356 23.3507 53.5185 23.4188ZM23.2676 9.65227C23.0851 9.61141 22.9054 9.56783 22.7257 9.53242C21.6064 9.30634 20.5552 9.19738 19.5911 9.20828C20.0105 8.63626 20.5061 8.13779 21.0862 7.73193C21.9822 7.10544 23.0089 6.73771 24.1282 6.5988C24.553 6.54704 24.9915 6.52525 25.4436 6.53887C26.6854 6.57973 28.0117 6.86846 29.3761 7.38872C29.3815 7.39417 29.387 7.40234 29.3924 7.40779C29.3951 7.40507 29.3951 7.39962 29.3979 7.39689C29.6239 7.48406 29.8527 7.57667 30.0814 7.67473C31.2661 8.18682 32.4725 8.87051 33.6681 9.7013C35.0297 10.6465 36.3805 11.7851 37.6741 13.1007C37.9437 13.3731 38.2079 13.6564 38.472 13.9451C38.7607 14.2611 39.0467 14.5825 39.3299 14.9175C40.0053 15.7156 40.6616 16.56 41.2853 17.4535C41.7945 18.1807 42.2657 18.9162 42.7014 19.6544C42.6959 19.6598 42.6932 19.6625 42.6878 19.668C42.6987 19.6734 42.7068 19.6789 42.7177 19.6816C42.9737 20.1147 43.2188 20.5505 43.4503 20.9836C43.4667 21.0136 43.4803 21.0408 43.4966 21.0708C44.0004 22.0214 44.4443 22.9721 44.8283 23.9172C44.2265 23.2145 43.5892 22.5117 42.9138 21.8144C42.7695 21.6646 42.6197 21.5148 42.4699 21.365C42.2384 21.1334 42.0069 20.9019 41.7673 20.6731C40.776 19.717 39.7221 18.7746 38.6028 17.8566C38.3359 17.6387 38.0663 17.4235 37.7994 17.2138C37.3691 16.876 36.9361 16.5464 36.5031 16.2277C34.6267 14.844 32.7367 13.6482 30.8875 12.654C30.8548 12.6376 30.8249 12.6213 30.7922 12.6022C30.0651 12.2127 29.3407 11.8532 28.6299 11.529C28.3521 11.4037 28.0798 11.2812 27.8047 11.1667C26.2224 10.4885 24.6946 9.98186 23.2676 9.65227Z" fill="url(#paint1_linear)"/>
<defs>
<linearGradient id="paint0_linear" x1="33.6742" y1="33.2322" x2="40.1971" y2="9.13849" gradientUnits="userSpaceOnUse">
<stop offset="0.0295" stop-color="#DADEED"/>
<stop offset="0.9996" stop-color="#868C92"/>
</linearGradient>
<linearGradient id="paint1_linear" x1="54.0804" y1="27.9886" x2="35.6021" y2="9.8762" gradientUnits="userSpaceOnUse">
<stop stop-color="#EF8396"/>
<stop offset="0.5305" stop-color="#F29F99"/>
<stop offset="1" stop-color="#F5B99C"/>
</linearGradient>
</defs>
</svg>
