<svg width="71" height="46" viewBox="0 0 71 46" fill="none" xmlns="http://www.w3.org/2000/svg">
<path fill-rule="evenodd" clip-rule="evenodd" d="M67.645 31.8505C67.6973 31.798 67.7424 31.7474 67.7839 31.6896C67.9894 31.6588 68.3826 31.6064 68.7378 31.384C69.1093 31.1562 69.4447 30.7476 69.6034 30.3498C69.7639 29.9575 69.7477 29.5796 69.6503 29.1927C69.5529 28.8057 69.3672 28.408 69.1562 28.1639C68.965 27.9469 68.7541 27.8547 68.6044 27.8023C68.5377 27.6215 68.4547 27.4515 68.3627 27.3123C68.3627 27.1369 68.3573 26.9199 68.3158 26.6759C68.2491 26.2835 68.0796 25.8225 67.8362 25.4825C67.645 25.2095 67.398 25.007 67.1455 24.8624C67.0734 24.7123 66.9958 24.5731 66.9093 24.4483C66.7902 24.2784 66.6514 24.1392 66.5071 24.0198C66.6207 23.9421 66.7434 23.8553 66.8786 23.7504C67.2807 23.4413 67.7334 23.0164 68.2022 22.4685C68.6711 21.9207 69.1562 21.2535 69.378 20.6659C69.5944 20.0819 69.5529 19.5811 69.3672 19.2032C69.1923 18.8307 68.8821 18.5722 68.516 18.3552C68.4962 18.2883 68.4691 18.2269 68.4385 18.1636C68.2581 17.7857 67.939 17.5271 67.5567 17.3066C67.1906 17.095 66.7632 16.9142 66.2997 16.8979C66.5107 16.7117 66.7271 16.5472 66.9345 16.408C67.3835 16.1024 67.8055 15.9071 68.0742 15.6323C68.3375 15.3593 68.4457 15.0067 68.4655 14.6144C68.4908 14.2166 68.4295 13.7773 68.2798 13.4572C68.1247 13.1426 67.8831 12.9401 67.5729 12.8063C67.5368 12.7901 67.5008 12.7756 67.4647 12.7593C67.434 12.64 67.398 12.5261 67.3457 12.423C67.196 12.103 66.9543 11.9059 66.6388 11.7667C66.3304 11.6329 65.9535 11.5552 65.3819 11.5498C64.8156 11.5389 64.0582 11.6022 63.4289 11.7468C62.7995 11.8915 62.3 12.1193 61.9285 12.3471C61.8402 12.4032 61.759 12.461 61.6815 12.5116C61.5011 12.0886 61.2288 11.7577 60.7852 11.5244L60.769 11.5136L60.7528 11.4829C60.5724 11.0543 60.3001 10.7235 59.8511 10.4848C59.4075 10.248 58.7835 10.1124 58.156 10.1178C57.5266 10.1286 56.8937 10.2787 56.3364 10.4631C55.7846 10.6439 55.3158 10.8555 55.0579 11.067C54.8 11.2785 54.7531 11.4955 54.7225 11.5841C54.6918 11.6763 54.6756 11.6456 54.4646 11.4648C54.2536 11.2785 53.8461 10.9477 53.2636 10.7416C52.6757 10.5354 51.9183 10.4631 51.0221 10.5969C50.1204 10.7361 49.0745 11.0833 48.2594 11.5317C47.4497 11.9819 46.8727 12.5243 46.4453 13.0088L46.4146 13.045C46.3263 13.1065 46.2397 13.1734 46.1622 13.2367C46.0233 12.772 45.7763 12.3995 45.4048 12.1102C45.3218 12.0488 45.2299 11.9855 45.1325 11.9294C44.9882 11.5877 44.7718 11.3039 44.4779 11.076C44.0757 10.7614 43.5293 10.5481 42.9216 10.5174C42.3193 10.4866 41.6485 10.6421 41.1273 10.8229C40.6026 11.0037 40.2257 11.2207 39.8848 11.5678C39.7243 11.7324 39.5711 11.924 39.4268 12.1356C39.1437 12.2748 38.9056 12.4447 38.6892 12.6671C38.3448 13.0179 38.0455 13.5043 37.7263 13.9906C37.5514 14.26 37.371 14.5222 37.2015 14.7663C37.1709 14.7608 37.1294 14.7554 37.0735 14.75C36.9094 14.7446 36.6046 14.7753 36.3107 14.8476C36.1358 14.8946 35.9608 14.9561 35.7949 15.0339C35.7589 14.7337 35.6867 14.43 35.5587 14.0629C35.3982 13.6091 35.1566 13.0613 34.7544 12.6418C34.621 12.5026 34.4713 12.3778 34.3018 12.2694C34.1738 12.0361 34.0187 11.8047 33.8275 11.6076C33.4254 11.19 32.8646 10.8989 32.0296 10.7343C31.4003 10.606 30.6068 10.5481 29.8494 10.615C30.2299 10.2642 30.596 9.92794 30.9314 9.6278C31.8024 8.84311 32.4822 8.26815 32.9872 7.85592L33.0395 7.87581C33.3803 7.98971 34.0656 8.18498 34.7093 8.11809C35.3531 8.05119 35.9572 7.71489 36.3269 7.35871C36.363 7.32255 36.399 7.28639 36.4351 7.25022C37.0013 7.14174 37.5279 6.84161 37.8633 6.51616C38.2348 6.15997 38.3683 5.78209 38.4404 5.35359C38.5071 4.9305 38.5071 4.46041 38.3484 4.05722C38.2096 3.70646 37.9463 3.4009 37.4468 3.09534C37.4359 3.07003 37.4269 3.04291 37.4215 3.02302C37.261 2.61982 36.9418 2.28353 36.2981 1.93277C35.6543 1.58743 34.6859 1.2204 33.8041 1.00705C32.9277 0.795507 32.1396 0.734033 31.3209 0.846132C30.5058 0.960039 29.6565 1.24933 28.7548 1.76643C27.8531 2.28353 26.8992 3.02663 25.7613 4.08072C25.5972 4.23622 25.4313 4.39532 25.2564 4.56166C25.0346 4.75874 24.8038 4.96486 24.5657 5.18182C23.4314 6.24134 22.1132 7.6046 20.9681 8.94436C20.1801 9.87008 19.4678 10.7795 18.9322 11.4973C18.6328 10.9802 18.2253 10.3962 17.5977 9.83392C17.3146 9.44157 16.9593 9.03296 16.4905 8.64061C15.7024 7.97887 14.5988 7.35871 13.4086 6.98625C12.2184 6.61379 10.9453 6.49085 9.65233 6.59933C8.35394 6.70239 7.03933 7.03868 6.10702 7.52505C5.39651 7.8975 4.90601 8.35675 4.53092 8.84854C3.82403 9.29874 3.37681 9.84658 3.01614 10.4035C2.60319 11.0598 2.31466 11.7269 2.18662 12.2585C2.14514 12.414 2.12531 12.5532 2.10908 12.6816C2.08383 12.6924 2.05678 12.7069 2.03154 12.7232C1.71235 12.904 1.41841 13.2403 1.27955 13.6525C1.13529 13.6832 0.985615 13.7357 0.83594 13.8225C0.464458 14.034 0.129042 14.4426 0.0316633 14.9435C-0.0657155 15.4443 0.0731394 16.0391 0.289537 16.4622C0.453638 16.7768 0.661019 16.9992 0.84135 17.1493C0.85217 17.18 0.866596 17.2107 0.882826 17.2379C0.960369 17.3879 1.04693 17.5163 1.13529 17.6248C1.02168 17.717 0.872006 17.8616 0.769218 18.0949C0.614133 18.4366 0.572657 18.9682 0.722332 19.5305C0.84676 19.9843 1.09381 20.4598 1.51038 20.8214C1.70153 21.2083 1.99908 21.5754 2.42826 21.8393C3.04139 22.2172 3.9178 22.3872 4.65896 22.3619C5.40553 22.342 6.00964 22.1286 6.39555 21.8918C6.63178 21.7471 6.78687 21.5971 6.9113 21.4416C7.08622 21.4 7.25212 21.353 7.39999 21.3023C7.74082 21.4886 8.12132 21.6748 8.66772 21.8393C9.37462 22.0509 10.3574 22.2317 11.1148 22.2733C11.4286 22.2895 11.7081 22.2787 11.9389 22.257C11.8975 22.4432 11.8668 22.6493 11.8614 22.8573C11.856 23.3581 12.0056 23.8915 12.2942 24.3561C12.4276 24.5731 12.5935 24.7738 12.7829 24.9564C12.8135 25.0125 12.8496 25.0703 12.8857 25.1264C13.1742 25.591 13.5962 25.9888 14.1173 26.2473C14.6421 26.5059 15.2606 26.6252 15.8738 26.6451C16.4869 26.6704 17.0946 26.5927 17.5797 26.3613C17.9205 26.1967 18.1982 25.9526 18.3984 25.7465C18.6256 25.7049 18.8366 25.6435 19.0332 25.5549C19.0999 25.6326 19.1828 25.7357 19.2856 25.864C19.7743 26.4896 20.7643 27.7751 22.1403 29.321C23.5216 30.8615 25.2943 32.6532 26.8758 34.0906C28.4573 35.5262 29.8494 36.6074 31.6473 37.8423C33.4416 39.0827 35.6362 40.4785 38.022 41.547C40.4078 42.621 42.9847 43.3659 45.5671 43.8884C48.1548 44.4146 50.7408 44.7147 53.0707 44.7617C55.3951 44.8087 57.4563 44.5972 59.2452 44.1723C61.0341 43.7438 62.5489 43.1074 63.6867 42.3841C63.739 42.3534 63.7841 42.3227 63.831 42.2955C64.3413 42.0587 64.8048 41.8056 65.2232 41.547C66.3665 40.8238 67.1401 40.0174 67.6504 39.1911C68.1554 38.3649 68.397 37.5115 68.5377 36.7376C68.6711 35.962 68.7018 35.2659 68.6044 34.5824C68.507 33.8954 68.2798 33.2282 68.0886 32.7581C67.8975 32.288 67.7478 32.0132 67.6667 31.8686L67.645 31.8505ZM9.30429 12.4339C9.17625 12.7593 9.12937 13.1625 9.12937 13.5657C9.12937 14.0159 9.19068 14.4697 9.52069 14.9977C9.53151 15.014 9.54052 15.0284 9.55134 15.0447C9.74249 15.2092 9.93184 15.3702 10.1284 15.5094C10.7271 15.9433 11.3186 16.2181 11.8956 16.3881C11.9425 16.4044 11.993 16.4188 12.0399 16.4351C11.9678 16.1765 11.8902 15.9126 11.8073 15.645C11.5711 14.8802 11.2663 14.0593 10.9164 13.4392C10.8858 13.3777 10.8497 13.3144 10.8137 13.2584C10.6748 13.1137 10.536 12.9944 10.4007 12.8967C10.04 12.6328 9.70462 12.5243 9.39626 12.4574C9.3656 12.4484 9.33495 12.4375 9.30429 12.4339ZM44.229 27.2779C43.9657 27.428 43.6682 27.5564 43.3833 27.6341C43.2588 27.7426 43.1056 27.8619 42.9252 27.9758C42.6006 28.1874 42.1931 28.3899 41.8072 28.4875C41.7549 28.4984 41.7098 28.5074 41.6575 28.5182L41.6377 28.5436C41.3491 28.822 40.9272 29.1276 40.3952 29.2722C40.3176 29.2921 40.2401 29.3084 40.1626 29.3246C40.1427 29.3445 40.1211 29.3608 40.1012 29.3807C39.8127 29.6645 39.3907 29.9647 38.8588 30.1093C38.3286 30.254 37.6938 30.2377 37.133 30.0207C36.5722 29.7983 36.0871 29.3753 35.8454 28.9196C35.8256 28.8726 35.7985 28.831 35.7841 28.7858C35.5569 28.5942 35.3766 28.3718 35.2539 28.1458C35.0123 27.6865 35.0123 27.2002 35.1403 26.7717C35.2684 26.3377 35.5262 25.9544 35.8256 25.7122C36.042 25.5314 36.2836 25.4283 36.4549 25.356C36.491 25.2782 36.5325 25.2059 36.574 25.139C36.3936 25.2945 36.2079 25.412 35.9915 25.4843C35.6831 25.5928 35.3008 25.6091 35.0231 25.5621C34.9311 25.5458 34.8482 25.5259 34.7815 25.5006C34.4929 25.6869 34.1269 25.8514 33.7356 25.9508C33.6165 26.0702 33.4669 26.1931 33.2865 26.3124C32.9259 26.5547 32.4263 26.7663 31.9106 26.8494C33.9051 28.5237 36.3846 30.5288 38.5233 32.0783C40.8785 33.7887 42.817 34.9404 44.5843 35.877C46.3461 36.8117 47.9384 37.5259 49.4135 37.9291C50.8923 38.3323 52.2574 38.4191 53.572 38.4354C54.892 38.4516 56.1633 38.3938 57.4004 38.0738C58.385 37.8206 59.348 37.3976 60.1 36.8949C60.466 36.4086 60.6878 35.8933 60.8213 35.3762C61.0269 34.6005 61.0431 33.8267 60.7546 33.1125C60.6987 32.9678 60.6265 32.8232 60.5382 32.6786C60.2605 32.3784 59.9142 32.0638 59.5067 31.7221C58.5437 30.9266 57.2074 29.981 55.3843 29.2162C53.5594 28.4459 51.2403 27.8565 49.2314 27.5582C47.2261 27.2635 45.531 27.2635 44.6654 27.2743C44.4869 27.2725 44.348 27.2725 44.229 27.2779Z" fill="#1A1B1B"/>
<g opacity="0.3">
<path opacity="0.3" fill-rule="evenodd" clip-rule="evenodd" d="M68.2366 32.7328C68.2889 32.6804 68.3339 32.6297 68.3754 32.5719C68.581 32.5411 68.9741 32.4887 69.3294 32.2663C69.7009 32.0385 70.0363 31.6299 70.195 31.2321C70.3555 30.8398 70.3392 30.4619 70.2419 30.075C70.1445 29.6881 69.9587 29.2903 69.7477 29.0462C69.5566 28.8292 69.3456 28.737 69.1959 28.6846C69.1292 28.5038 69.0463 28.3338 68.9543 28.1946C68.9543 28.0192 68.9489 27.8023 68.9074 27.5582C68.8407 27.1658 68.6712 26.7048 68.4277 26.3649C68.2366 26.0919 67.9895 25.8894 67.7371 25.7447C67.6649 25.5946 67.5874 25.4554 67.5008 25.3307C67.3818 25.1607 67.2429 25.0215 67.0987 24.9022C67.2123 24.8244 67.3349 24.7376 67.4702 24.6328C67.8723 24.3236 68.3249 23.8987 68.7938 23.3509C69.2627 22.803 69.7477 22.1359 69.9696 21.5482C70.1859 20.9642 70.1445 20.4634 69.9587 20.0855C69.7838 19.7131 69.4736 19.4545 69.1076 19.2376C69.0877 19.1707 69.0607 19.1092 69.03 19.0459C68.8497 18.668 68.5305 18.4095 68.1482 18.1889C67.7821 17.9774 67.3547 17.7965 66.8913 17.7803C67.1023 17.594 67.3187 17.4295 67.5261 17.2903C67.9751 16.9847 68.3971 16.7895 68.6658 16.5146C68.929 16.2416 69.0372 15.8891 69.0571 15.4967C69.0823 15.0989 69.021 14.6596 68.8713 14.3396C68.7163 14.025 68.4746 13.8225 68.1644 13.6887C68.1284 13.6724 68.0923 13.6579 68.0562 13.6417C68.0256 13.5223 67.9895 13.4084 67.9372 13.3054C67.7875 12.9853 67.5459 12.7883 67.2303 12.649C66.922 12.5152 66.5451 12.4375 65.9734 12.4321C65.4072 12.4212 64.6498 12.4845 64.0204 12.6292C63.3911 12.7738 62.8916 13.0016 62.5201 13.2294C62.4317 13.2855 62.3506 13.3433 62.273 13.394C62.0927 12.9709 61.8204 12.64 61.3768 12.4068L61.3605 12.3959L61.3443 12.3652C61.164 11.9367 60.8917 11.6058 60.4427 11.3671C59.999 11.1303 59.3751 10.9947 58.7475 11.0001C58.1182 11.011 57.4852 11.161 56.928 11.3454C56.3762 11.5262 55.9073 11.7378 55.6495 11.9493C55.3916 12.1609 55.3447 12.3778 55.314 12.4664C55.2834 12.5586 55.2672 12.5279 55.0562 12.3471C54.8452 12.1609 54.4376 11.83 53.8552 11.6239C53.2673 11.4178 52.5099 11.3454 51.6136 11.4792C50.712 11.6185 49.6661 11.9656 48.851 12.414C48.0413 12.8642 47.4642 13.4066 47.0368 13.8912L47.0062 13.9273C46.9178 13.9888 46.8313 14.0557 46.7537 14.119C46.6149 13.6543 46.3678 13.2819 45.9963 12.9926C45.9134 12.9311 45.8214 12.8678 45.724 12.8118C45.5798 12.47 45.3634 12.1862 45.0694 11.9584C44.6673 11.6438 44.1209 11.4304 43.5132 11.3997C42.9109 11.3689 42.24 11.5244 41.7189 11.7052C41.1941 11.886 40.8172 12.103 40.4764 12.4502C40.3159 12.6147 40.1626 12.8063 40.0184 13.0179C39.7352 13.1571 39.4972 13.3271 39.2808 13.5494C38.9364 13.9002 38.637 14.3866 38.3178 14.8729C38.1429 15.1423 37.9626 15.4045 37.7931 15.6486C37.7624 15.6432 37.7209 15.6377 37.665 15.6323C37.5009 15.6269 37.1962 15.6576 36.9022 15.73C36.7273 15.777 36.5524 15.8384 36.3865 15.9162C36.3504 15.616 36.2783 15.3123 36.1503 14.9453C35.9898 14.4914 35.7481 13.9436 35.346 13.5241C35.2125 13.3849 35.0629 13.2602 34.8933 13.1517C34.7653 12.9184 34.6102 12.687 34.4191 12.4899C34.0169 12.0723 33.4561 11.7812 32.6212 11.6167C31.9918 11.4883 31.1984 11.4304 30.441 11.4973C30.8215 11.1466 31.1875 10.8103 31.523 10.5101C32.394 9.72544 33.0738 9.15048 33.5787 8.73824L33.631 8.75813C33.9719 8.87204 34.6571 9.06731 35.3009 9.00041C35.9447 8.93351 36.5488 8.59722 36.9185 8.24103C36.9545 8.20487 36.9906 8.16871 37.0267 8.13255C37.5929 8.02407 38.1195 7.72393 38.4549 7.39848C38.8264 7.0423 38.9598 6.66442 39.0319 6.23591C39.0987 5.81283 39.0987 5.34274 38.94 4.93954C38.8011 4.58878 38.5378 4.28322 38.0383 3.97766C38.0275 3.95235 38.0185 3.92523 38.0131 3.90534C37.8526 3.50215 37.5334 3.16585 36.8896 2.81509C36.2458 2.46975 35.2774 2.10272 34.3956 1.88937C33.5192 1.67783 32.7312 1.61636 31.9125 1.72846C31.0974 1.84236 30.248 2.13165 29.3464 2.64875C28.4447 3.16585 27.4908 3.90896 26.3529 4.96305C26.1888 5.11854 26.0229 5.27765 25.8479 5.44399C25.6261 5.64106 25.3953 5.84718 25.1573 6.06415C24.023 7.12366 22.7048 8.48693 21.5597 9.82669C20.7716 10.7524 20.0593 11.6619 19.5237 12.3796C19.2244 11.8625 18.8168 11.2785 18.1893 10.7162C17.9062 10.3239 17.5509 9.91528 17.082 9.52294C16.294 8.86119 15.1904 8.24103 14.0002 7.86858C12.81 7.49612 11.5369 7.37317 10.2439 7.48165C8.9455 7.58471 7.63088 7.92101 6.69857 8.40737C5.98807 8.77983 5.49757 9.23907 5.12248 9.73086C4.41558 10.1811 3.96836 10.7289 3.6077 11.2858C3.19474 11.9421 2.90621 12.6093 2.77817 13.1408C2.7367 13.2963 2.71686 13.4355 2.70063 13.5639C2.67538 13.5748 2.64833 13.5892 2.62309 13.6055C2.3039 13.7863 2.00996 14.1226 1.87111 14.5348C1.72684 14.5656 1.57717 14.618 1.42749 14.7048C1.05601 14.9163 0.720595 15.3249 0.623216 15.8258C0.525837 16.3266 0.664692 16.9215 0.881089 17.3445C1.04519 17.6591 1.25257 17.8815 1.4329 18.0316C1.44372 18.0623 1.45815 18.0931 1.47438 18.1202C1.55192 18.2703 1.63848 18.3986 1.72684 18.5071C1.61323 18.5993 1.46356 18.744 1.36077 18.9772C1.20569 19.3189 1.16421 19.8505 1.31388 20.4128C1.43831 20.8666 1.68537 21.3421 2.10193 21.7037C2.29308 22.0907 2.59063 22.4577 3.01982 22.7217C3.63294 23.0995 4.50935 23.2695 5.25051 23.2442C5.99708 23.2243 6.60119 23.0109 6.9871 22.7741C7.22334 22.6294 7.37842 22.4794 7.50285 22.3239C7.67777 22.2823 7.84367 22.2353 7.99155 22.1847C8.33237 22.3709 8.71287 22.5571 9.25927 22.7217C9.96617 22.9332 10.949 23.114 11.7064 23.1556C12.0201 23.1719 12.2997 23.161 12.5305 23.1393C12.489 23.3255 12.4583 23.5317 12.4529 23.7396C12.4475 24.2404 12.5972 24.7738 12.8857 25.2385C13.0192 25.4554 13.1851 25.6561 13.3744 25.8387C13.4051 25.8948 13.4412 25.9526 13.4772 26.0087C13.7657 26.4734 14.1877 26.8711 14.7089 27.1297C15.2336 27.3882 15.8522 27.5076 16.4653 27.5274C17.0784 27.5528 17.6861 27.475 18.1712 27.2436C18.5121 27.079 18.7898 26.835 18.9899 26.6288C19.2172 26.5873 19.4281 26.5258 19.6247 26.4372C19.6914 26.5149 19.7744 26.618 19.8772 26.7464C20.3659 27.372 21.3559 28.6575 22.7318 30.2033C24.1131 31.7438 25.8858 33.5356 27.4673 34.973C29.0488 36.4086 30.441 37.4898 32.2389 38.7247C34.0332 39.965 36.2278 41.3608 38.6136 42.4293C40.9994 43.5033 43.5763 44.2482 46.1586 44.7708C48.7464 45.2969 51.3323 45.597 53.6622 45.644C55.9867 45.6911 58.0479 45.4795 59.8367 45.0546C61.6256 44.6261 63.1404 43.9897 64.2783 43.2665C64.3306 43.2357 64.3757 43.205 64.4226 43.1779C64.9329 42.941 65.3964 42.6879 65.8147 42.4293C66.958 41.7061 67.7316 40.8997 68.242 40.0735C68.7469 39.2472 68.9885 38.3938 69.1292 37.6199C69.2627 36.8443 69.2933 36.1482 69.1959 35.4648C69.0985 34.7777 68.8713 34.1105 68.6802 33.6404C68.489 33.1703 68.3394 32.8955 68.2582 32.7509L68.2366 32.7328ZM9.89404 13.3144C9.766 13.6399 9.71912 14.043 9.71912 14.4462C9.71912 14.8964 9.78043 15.3503 10.1104 15.8782C10.1213 15.8945 10.1303 15.9089 10.1411 15.9252C10.3322 16.0898 10.5216 16.2507 10.7182 16.3899C11.3169 16.8238 11.9083 17.0986 12.4854 17.2686C12.5323 17.2849 12.5828 17.2993 12.6297 17.3156C12.5575 17.0571 12.48 16.7931 12.397 16.5255C12.1608 15.7607 11.856 14.9398 11.5062 14.3197C11.4755 14.2582 11.4395 14.1949 11.4034 14.1389C11.2646 13.9942 11.1257 13.8749 10.9905 13.7773C10.6298 13.5133 10.2944 13.4048 9.98601 13.3379C9.95535 13.3307 9.9247 13.3198 9.89404 13.3144ZM44.8188 28.1603C44.5555 28.3103 44.2579 28.4387 43.973 28.5164C43.8486 28.6249 43.6953 28.7443 43.515 28.8582C43.1904 29.0697 42.7828 29.2722 42.3969 29.3698C42.3446 29.3807 42.2995 29.3897 42.2472 29.4006L42.2274 29.4259C41.9389 29.7043 41.5169 30.0099 40.9849 30.1545C40.9074 30.1744 40.8298 30.1907 40.7523 30.207C40.7325 30.2269 40.7108 30.2431 40.691 30.263C40.4025 30.5469 39.9805 30.847 39.4485 30.9917C38.9183 31.1363 38.2836 31.12 37.7227 30.9031C37.1619 30.6807 36.6768 30.2576 36.4352 29.802C36.4153 29.755 36.3883 29.7134 36.3739 29.6682C36.1466 29.4765 35.9663 29.2541 35.8437 29.0281C35.602 28.5689 35.602 28.0825 35.7301 27.654C35.8581 27.2201 36.116 26.8368 36.4153 26.5945C36.6317 26.4137 36.8734 26.3106 37.0447 26.2383C37.0808 26.1606 37.1222 26.0882 37.1637 26.0213C36.9834 26.1768 36.7976 26.2944 36.5812 26.3667C36.2729 26.4752 35.8906 26.4914 35.6129 26.4444C35.5209 26.4282 35.4379 26.4083 35.3712 26.3829C35.0827 26.5692 34.7166 26.7337 34.3253 26.8332C34.2063 26.9525 34.0566 27.0754 33.8763 27.1948C33.5156 27.437 33.0161 27.6486 32.5003 27.7318C34.4948 29.406 36.9744 31.4111 39.1131 32.9606C41.4682 34.671 43.4068 35.8227 45.174 36.7593C46.9359 37.6941 48.5282 38.4083 50.0033 38.8114C51.482 39.2146 52.8471 39.3014 54.1617 39.3177C55.4817 39.334 56.7531 39.2761 57.9902 38.9561C58.9748 38.703 59.9377 38.2799 60.6897 37.7772C61.0558 37.2909 61.2776 36.7756 61.411 36.2585C61.6166 35.4828 61.6328 34.709 61.3443 33.9948C61.2884 33.8502 61.2163 33.7055 61.1279 33.5609C60.8502 33.2607 60.504 32.9462 60.0964 32.6044C59.1335 31.8089 57.7972 30.8633 55.9741 30.0985C54.1491 29.3283 51.83 28.7388 49.8212 28.4405C47.8159 28.1458 46.1208 28.1458 45.2552 28.1566C45.0766 28.1548 44.9378 28.1548 44.8188 28.1603Z" fill="#1A1B1B"/>
</g>
<path fill-rule="evenodd" clip-rule="evenodd" d="M7.44867 20.3692C7.87065 20.6115 8.29984 20.8556 8.99952 21.0671C9.70642 21.2787 10.6892 21.4595 11.4466 21.5011C12.204 21.5372 12.7342 21.4287 12.9776 21.3926C13.2193 21.3564 13.1742 21.3872 13.0696 21.6349C12.9614 21.888 12.7973 22.3581 12.7865 22.8589C12.7811 23.3597 12.9307 23.8931 13.2193 24.3523C13.5078 24.817 13.9298 25.2094 14.4563 25.4679C14.9775 25.7265 15.5996 25.8494 16.2128 25.8711C16.8259 25.8964 17.4282 25.8187 17.9187 25.5818C18.4038 25.3486 18.7645 24.9508 18.9448 24.7338C19.1305 24.5115 19.1305 24.4644 19.6192 25.09C20.1133 25.7102 21.0979 27.0011 22.4739 28.547C23.8552 30.0875 25.6279 31.8792 27.2094 33.3166C28.7909 34.7522 30.1884 35.828 31.9809 37.0683C33.7788 38.3086 35.9753 39.7045 38.361 40.773C40.7468 41.847 43.3238 42.5919 45.9061 43.1144C48.4884 43.6369 51.0798 43.9407 53.4043 43.9877C55.7287 44.0347 57.7899 43.8232 59.5788 43.3929C61.3677 42.9698 62.8825 42.3333 64.0258 41.6101C65.1691 40.8869 65.9427 40.0805 66.4476 39.2542C66.958 38.428 67.1996 37.5746 67.3348 36.8007C67.4737 36.0305 67.5044 35.329 67.4016 34.6455C67.3042 33.9639 67.077 33.2913 66.8912 32.8212C66.7001 32.3511 66.5468 32.0763 66.4638 31.9317C66.3809 31.787 66.3665 31.7708 66.5612 31.7454C66.7614 31.7147 67.1689 31.6677 67.5404 31.4399C67.9119 31.2121 68.2473 30.7998 68.406 30.4057C68.5611 30.0079 68.5449 29.63 68.4475 29.2431C68.3501 28.8562 68.1698 28.462 67.9588 28.2143C67.7478 27.972 67.5062 27.8835 67.3601 27.8364C67.2158 27.7894 67.1689 27.7894 67.1599 27.6249C67.1545 27.455 67.1852 27.1241 67.1184 26.7263C67.0463 26.334 66.8822 25.8783 66.6388 25.5384C66.3971 25.1931 66.0779 24.9653 65.7515 24.8152C65.4269 24.6651 65.0915 24.5874 64.8968 24.5512C64.7002 24.5096 64.6389 24.5096 64.7832 24.412C64.9274 24.3144 65.2719 24.1173 65.674 23.8027C66.0761 23.4935 66.5288 23.0686 67.003 22.5208C67.4719 21.973 67.957 21.3058 68.1734 20.7218C68.3952 20.1378 68.3483 19.6315 68.168 19.2537C67.9876 18.8722 67.6685 18.6172 67.2862 18.3966C66.9093 18.1743 66.4711 17.9935 65.9932 17.988C65.5135 17.9772 65.0032 18.1435 64.5866 18.3605C64.17 18.572 63.849 18.8306 63.6272 19.0005C63.4108 19.1759 63.2864 19.2699 63.2413 19.2844C63.1999 19.3007 63.2305 19.2374 63.4271 18.9427C63.6236 18.6425 63.9879 18.1164 64.4009 17.6409C64.8174 17.1708 65.2881 16.7622 65.7353 16.4584C66.1843 16.1529 66.6063 15.9576 66.875 15.6828C67.1383 15.4098 67.2465 15.0626 67.2663 14.6648C67.2862 14.2725 67.2303 13.8277 67.0752 13.5131C66.9255 13.1931 66.6838 12.996 66.3737 12.8568C66.0599 12.723 65.683 12.6453 65.1168 12.6398C64.5451 12.629 63.7877 12.6923 63.1584 12.8369C62.529 12.9816 62.0295 13.2094 61.658 13.4372C61.2865 13.665 61.0449 13.891 60.9313 13.9904C60.8177 14.0881 60.8339 14.0628 60.7978 13.7898C60.7564 13.5167 60.6698 12.9996 60.4841 12.5711C60.3037 12.148 60.0314 11.8118 59.5878 11.5785C59.1388 11.3417 58.5167 11.2061 57.8873 11.2115C57.2579 11.2223 56.625 11.3724 56.0678 11.5532C55.5159 11.7394 55.0471 11.951 54.7892 12.1625C54.5313 12.3741 54.4844 12.5856 54.4538 12.6796C54.4285 12.7718 54.4123 12.7411 54.1959 12.5603C53.9849 12.3741 53.5774 12.0432 52.9949 11.8371C52.4124 11.6309 51.6551 11.5532 50.7534 11.6924C49.8517 11.8262 48.8058 12.1788 47.9961 12.6272C47.181 13.072 46.6094 13.6198 46.1766 14.1044C45.7438 14.5907 45.4553 15.0192 45.3056 15.2615C45.1505 15.5038 45.1361 15.5671 45.1307 15.5255C45.1198 15.4893 45.1198 15.3501 45.1198 14.9614C45.1198 14.5799 45.1199 13.938 44.9918 13.4173C44.8638 12.8893 44.6113 12.4825 44.2092 12.1716C43.807 11.857 43.2606 11.6436 42.6529 11.6129C42.0506 11.5821 41.3798 11.7376 40.8586 11.9184C40.3339 12.0992 39.957 12.3108 39.6161 12.6633C39.2753 13.0141 38.9724 13.5005 38.6532 13.9868C38.334 14.4732 38.004 14.9577 37.7299 15.2832C37.4558 15.6086 37.2448 15.7786 37.1222 15.8419C37.0031 15.8979 36.9725 15.8527 36.8084 15.8473C36.6389 15.8419 36.3341 15.8672 36.0402 15.9449C35.7462 16.0227 35.4577 16.142 35.1998 16.312C34.942 16.4765 34.7147 16.6899 34.4569 16.9014C34.199 17.1129 33.9105 17.3299 33.6995 17.5161C33.4885 17.7078 33.3496 17.8723 33.2468 18.017C33.1386 18.1616 33.0611 18.2864 33.0052 18.2755C32.9439 18.2701 32.897 18.1309 32.8609 18.0278C32.8195 17.9193 32.7888 17.847 32.8663 17.8C32.9439 17.753 33.1242 17.7385 33.3605 17.63C33.5931 17.527 33.8816 17.3299 34.0926 17.1129C34.3036 16.9014 34.4424 16.6736 34.5254 16.368C34.6083 16.0679 34.639 15.6864 34.6174 15.3139C34.5921 14.9415 34.52 14.5799 34.3595 14.1206C34.199 13.6668 33.9574 13.119 33.5552 12.6995C33.1531 12.2855 32.5922 11.9962 31.7609 11.8262C30.926 11.6617 29.8188 11.6147 28.8756 11.8099C27.9271 12.0106 27.139 12.45 26.4484 13.034C25.7577 13.618 25.1698 14.3466 24.7064 15.0084C24.2429 15.6701 23.9129 16.2632 23.6298 16.8164C23.3521 17.3697 23.1249 17.8868 23.0167 18.4346C22.9139 18.9825 22.9283 19.561 22.9337 19.834C22.9445 20.1071 22.9445 20.0763 22.656 19.7256C22.3675 19.3802 21.7904 18.7076 21.5271 18.3659C21.2584 18.0242 21.3053 18.0097 21.8211 17.4619C22.3368 16.9141 23.3214 15.8401 24.8055 14.3557C26.2897 12.8731 28.2733 10.9927 29.7322 9.68549C31.1857 8.37828 32.1072 7.64963 32.5724 7.29887C33.0304 6.95354 33.0304 6.98427 33.3767 7.09818C33.7175 7.21209 34.3974 7.40736 35.0411 7.34046C35.6849 7.26814 36.2926 6.93726 36.6641 6.58108C37.0356 6.22489 37.169 5.84159 37.2358 5.41851C37.3079 4.99 37.3079 4.51991 37.1474 4.11671C36.9869 3.71894 36.6677 3.38265 36.0239 3.03189C35.3802 2.68655 34.4118 2.31952 33.5354 2.10617C32.6536 1.89463 31.8655 1.83315 31.0468 1.94525C30.2317 2.05916 29.3824 2.34845 28.4807 2.86555C27.579 3.38265 26.6251 4.12575 25.4872 5.17984C24.3529 6.23936 23.0347 7.60262 21.8896 8.94238C20.7445 10.2821 19.7761 11.5821 19.2459 12.3216C18.7158 13.0611 18.6274 13.2256 18.5805 13.2871C18.5336 13.3432 18.5336 13.3034 18.4363 13.034C18.3389 12.77 18.1423 12.2855 17.8069 11.6906C17.4715 11.0958 17.0026 10.3997 16.2146 9.73792C15.4265 9.07618 14.3229 8.45602 13.1327 8.08356C11.9425 7.71111 10.6694 7.58816 9.37641 7.69664C8.08344 7.7997 6.76341 8.136 5.8311 8.62236C4.89879 9.10872 4.35239 9.74877 3.93943 10.3997C3.52286 11.0506 3.23253 11.7232 3.10449 12.2547C2.97646 12.7863 3.00712 13.1804 3.00712 13.3757C3.00712 13.571 2.97646 13.5728 2.75465 13.5818C2.53826 13.5873 2.1253 13.6017 1.75562 13.8187C1.38414 14.0302 1.05413 14.4388 0.951341 14.9397C0.853962 15.4405 0.992817 16.0353 1.20921 16.4584C1.43102 16.8815 1.73398 17.1401 1.94136 17.2793C2.14153 17.4131 2.24973 17.4293 2.17399 17.5125C2.09644 17.6011 1.83857 17.7494 1.6889 18.0911C1.53922 18.4328 1.49233 18.9644 1.64201 19.5267C1.79709 20.0908 2.14153 20.6784 2.75465 21.0617C3.36778 21.4396 4.2496 21.6095 4.99076 21.5842C5.73372 21.5643 6.34144 21.351 6.72194 21.1141C7.11506 20.8863 7.28457 20.6278 7.44867 20.3692ZM13.3239 17.8072C13.1489 17.0985 12.974 16.3915 12.736 15.6267C12.4997 14.8673 12.195 14.0447 11.8451 13.4209C11.5007 12.8008 11.1022 12.3777 10.7415 12.1083C10.3754 11.8443 10.0454 11.7358 9.73167 11.6689C9.4233 11.602 9.13297 11.5713 8.86067 11.6743C8.58296 11.7828 8.31426 12.0251 8.15377 12.3722C7.98967 12.7176 7.93196 13.1624 7.93196 13.618C7.93196 14.0682 7.98786 14.5274 8.32328 15.05C8.65869 15.5725 9.261 16.1655 9.8597 16.5995C10.4584 17.0334 11.0499 17.3082 11.6269 17.4782C12.2058 17.6517 12.763 17.7295 13.3239 17.8072ZM48.6057 22.7938C48.5948 22.7685 48.703 22.7378 48.7914 22.66C48.8798 22.5823 48.9465 22.4593 48.9825 22.3906C49.0186 22.3219 49.0294 22.3183 49.0384 22.4015C49.0493 22.4901 49.0583 22.6745 49.0583 22.7739C49.0637 22.877 49.0637 22.9023 49.033 22.9023C49.0024 22.9077 48.9447 22.8914 48.8473 22.8716C48.7499 22.8499 48.6147 22.8245 48.6057 22.7938ZM53.5936 17.4619C53.8353 17.4818 54.0733 17.5089 54.2843 17.4782C54.4953 17.4474 54.6756 17.3643 54.8559 17.1997C55.0417 17.0352 55.2274 16.7857 55.3248 16.6573C55.4222 16.5289 55.4384 16.5181 55.341 16.7821C55.2436 17.0406 55.0363 17.5776 54.8667 18.0007C54.6972 18.4292 54.562 18.7456 54.4592 18.9626C54.3564 19.1795 54.2897 19.3043 54.2266 19.3658C54.1707 19.4327 54.1238 19.4381 54.0769 19.382C54.0354 19.326 54.0048 19.2012 53.9272 18.9174C53.8497 18.6335 53.7361 18.1779 53.6694 17.9103C53.608 17.6373 53.6044 17.5487 53.5936 17.4619ZM60.8231 24.4265C60.8177 24.8803 60.8069 25.3413 60.7455 25.7391C60.6788 26.1369 60.5598 26.4786 60.5039 26.6431C60.4516 26.8041 60.4678 26.7878 60.5454 26.6269C60.6175 26.4714 60.7564 26.1676 60.9313 25.8982C61.1062 25.6252 61.3172 25.392 61.5498 25.2256C61.777 25.0647 62.0295 24.9725 62.1431 24.9363C62.2567 24.8948 62.2351 24.911 62.1125 24.9002C61.9934 24.8893 61.7716 24.8477 61.5408 24.7664C61.3082 24.685 61.0665 24.5548 60.8231 24.4265ZM26.2139 23.15C27.5953 24.4102 28.9712 25.6722 31.0486 27.4333C33.126 29.1961 35.8977 31.458 38.2528 33.1684C40.608 34.8788 42.5465 36.0305 44.3138 36.9671C46.0756 37.9018 47.6679 38.616 49.1484 39.0192C50.6218 39.4224 51.9887 39.5092 53.3015 39.5255C54.6215 39.5417 55.8928 39.4784 57.1299 39.1638C58.3616 38.8438 59.5626 38.2652 60.356 37.5872C61.1495 36.9146 61.5462 36.1408 61.7482 35.3651C61.9538 34.5895 61.97 33.8156 61.6815 33.1015C61.3929 32.3891 60.8051 31.7328 59.8421 30.9372C58.8791 30.1363 57.5483 29.1961 55.7197 28.4313C53.8948 27.6611 51.5757 27.0716 49.5722 26.7733C47.5615 26.4786 45.8664 26.4786 45.0008 26.484C44.1407 26.4949 44.11 26.5093 43.9747 26.6287C43.8359 26.7534 43.5942 26.9794 43.2679 27.1928C42.9433 27.4043 42.5303 27.6068 42.1444 27.7045C41.7585 27.8021 41.3978 27.8021 41.2175 27.8021C41.0317 27.8021 41.0317 27.8021 40.9596 27.9305C40.8821 28.0588 40.727 28.3174 40.4439 28.5976C40.1553 28.8761 39.7279 29.1816 39.2014 29.3263C38.6712 29.4709 38.031 29.4546 37.4702 29.2377C36.913 29.0153 36.4297 28.5922 36.1862 28.1312C35.9392 27.6773 35.9392 27.191 36.0672 26.757C36.1953 26.3285 36.4531 25.9452 36.7525 25.703C37.0464 25.4607 37.3818 25.3522 37.5405 25.2799C37.6956 25.2021 37.6848 25.1551 37.6956 24.893C37.7118 24.6236 37.7569 24.139 37.82 23.8081C37.8814 23.4718 37.9535 23.291 37.9841 23.2133C38.0148 23.1355 38.0004 23.1663 37.8507 23.3471C37.6956 23.5333 37.4125 23.8642 37.1438 24.1318C36.8805 24.3957 36.6389 24.591 36.3251 24.6995C36.0167 24.808 35.6398 24.8242 35.3567 24.7772C35.079 24.7302 34.8987 24.6217 34.7743 24.5856C34.6552 24.5494 34.5939 24.5747 34.4388 24.7501C34.2892 24.9255 34.0475 25.2455 33.6237 25.5258C33.1964 25.8096 32.5922 26.0537 31.9953 26.0899C31.3966 26.126 30.8052 25.9615 30.3111 25.7644C29.8224 25.5674 29.4238 25.3359 29.0794 24.9888C28.7296 24.638 28.4248 24.1679 28.239 23.7738C28.0479 23.376 27.9704 23.0614 27.9253 22.9204C27.8784 22.7866 27.8694 22.8282 27.7143 22.9005C27.5646 22.9674 27.2761 23.0614 27.0038 23.1012C26.7279 23.15 26.47 23.15 26.2139 23.15Z" fill="url(#paint0_linear)"/>
<path fill-rule="evenodd" clip-rule="evenodd" d="M47.9043 24.4194C50.8256 24.4194 53.7434 24.9836 56.6449 26.0991C59.5464 27.2201 61.8907 28.6358 63.6796 30.3462C65.4739 32.0566 66.3647 33.7363 66.3647 35.3798C66.3647 37.7104 65.3026 39.4461 63.1693 40.5942C61.0414 41.7405 58.2426 42.3155 54.7749 42.3155C45.2985 42.3155 36.8211 38.8585 29.3428 31.9445C26.7153 29.5272 23.6732 26.0792 20.2306 21.6007C19.0296 20.0458 18.2668 19.0694 17.9531 18.6753C17.9531 18.8 17.9422 18.8977 17.917 18.97C17.917 19.29 17.8809 19.7909 17.8142 20.4743C17.7727 20.7274 17.7312 21.0059 17.6952 21.3223C17.6645 21.6369 17.6429 21.8032 17.6429 21.8177C17.8286 22.1015 17.9152 22.427 17.9152 22.7832C17.9152 23.1448 17.7962 23.4503 17.5599 23.7125C17.3237 23.9711 17.055 24.0994 16.7611 24.0994C16.2147 24.0994 15.854 23.7794 15.6737 23.1339C15.6737 22.917 15.7458 22.5029 15.8955 21.899C16.0397 21.2897 16.1119 20.7672 16.1119 20.3387C16.1119 18.979 16.0199 17.7134 15.8233 16.5508C15.6322 15.3883 15.313 14.2781 14.8748 13.2186C14.4312 12.1645 13.7928 11.3328 12.9525 10.7235C12.1121 10.1142 11.1185 9.80865 9.95897 9.80865C8.59928 9.80865 7.62008 10.1865 7.02138 10.9405C6.41907 11.689 6.11972 12.5424 6.11972 13.488C6.11972 14.8513 6.69137 16.0862 7.83648 17.1981C8.98158 18.3101 10.4603 19.0785 12.2744 19.507C12.5467 19.507 12.7595 19.4708 12.9182 19.3985L12.9849 19.3732C13.0571 19.3732 13.0877 19.3985 13.0877 19.4564C13.0877 19.545 13.0408 19.6064 12.9543 19.6426C11.728 19.6426 10.6352 19.4509 9.67225 19.064C8.70928 18.6825 7.95189 18.1799 7.39466 17.5597C6.83744 16.9396 6.42629 16.3049 6.15218 15.6378C5.88349 14.976 5.74463 14.3143 5.74463 13.6544C5.74463 13.2204 5.80054 12.7973 5.91415 12.3779C6.02775 11.9548 6.24415 11.4937 6.56334 10.9929C6.87711 10.4921 7.39827 10.0835 8.12501 9.76887C8.85174 9.45969 9.73356 9.29878 10.7795 9.29878C11.9138 9.29878 12.9182 9.52117 13.8054 9.96052C14.6873 10.3999 15.3869 10.9314 15.8973 11.557C16.4076 12.1826 16.8296 12.895 17.1704 13.6905C17.5112 14.4915 17.7367 15.1984 17.8503 15.8294C17.9639 16.455 18.0198 17.0282 18.0198 17.5453V17.6791C18.7465 16.9667 19.7978 15.7517 21.1792 14.0413C22.5659 12.3309 23.8228 10.7759 24.9571 9.38014C26.0914 7.98433 27.3176 6.69881 28.6467 5.52539C29.9703 4.35197 31.0631 3.71192 31.9251 3.60344C32.0856 3.58717 32.302 3.57812 32.5743 3.57812C33.4092 3.57812 34.1558 3.73362 34.8158 4.03194C35.4758 4.3375 35.8365 4.66295 35.9032 5.00286V5.0553C35.9032 5.28853 35.7337 5.45849 35.3929 5.56697C35.1657 4.95766 34.6914 4.69911 33.9647 4.7859C32.9241 4.91065 30.4969 6.74943 26.6883 10.304C22.8797 13.8587 20.3551 16.4984 19.1072 18.2142C19.5814 18.6283 20.6436 19.6498 22.2864 21.2789C23.9292 22.9079 25.5684 24.5135 27.1968 26.0901C28.8306 27.6667 30.8305 29.4386 33.2001 31.4075C35.566 33.3765 37.8328 35.0869 39.9967 36.5388C42.1607 37.9906 44.4798 39.2147 46.9485 40.2181C49.4226 41.2198 51.675 41.7224 53.7145 41.7224C57.1156 41.7224 59.8836 41.1131 62.0116 39.8836C64.1395 38.6596 65.207 36.8244 65.207 34.3908C65.207 33.4398 64.7796 32.4219 63.914 31.3262C63.0539 30.2359 61.8475 29.1981 60.2966 28.2109C58.7458 27.2291 56.7098 26.4083 54.1942 25.7574C51.675 25.1011 48.943 24.7756 46 24.7756C44.7737 24.7756 43.5979 24.998 42.4799 25.4374C42.0777 25.7429 41.7477 25.8966 41.4845 25.8966H41.4682C40.4007 26.4499 39.7569 26.9869 39.5351 27.5148C39.5152 27.5709 39.4323 27.598 39.2988 27.598C39.2069 27.598 39.1384 27.551 39.0933 27.4642V27.381C39.0933 27.3286 39.1402 27.2472 39.2321 27.1387C39.7731 26.6271 40.3971 26.1823 41.0986 25.8153C40.6766 25.6091 40.4638 25.0197 40.4638 24.0488C40.4638 23.8481 40.4944 23.6402 40.5521 23.4124C40.6081 23.19 40.6603 22.973 40.7018 22.756C40.7271 22.6114 40.7685 22.3474 40.8263 21.9659C40.8822 21.579 40.9543 21.0728 41.0426 20.4472C41.0895 20.1272 41.131 19.7909 41.1617 19.4401C41.1977 19.0893 41.2338 18.753 41.2645 18.4167C41.3005 18.0859 41.3258 17.7912 41.3528 17.5326C41.3727 17.2741 41.3997 17.0734 41.4195 16.9287C41.4664 16.7316 41.4718 16.5617 41.4358 16.417C41.4051 16.2724 41.3835 16.1476 41.3835 16.0392C41.3835 15.8782 41.3636 15.8023 41.3168 15.8023C41.2284 15.7662 41.039 15.8999 40.7559 16.2055C40.4728 16.5056 40.1266 16.9504 39.7208 17.5326C39.3133 18.1166 38.8498 18.8091 38.3287 19.6155C37.8039 20.4219 37.2719 21.315 36.7309 22.3022C36.684 22.3384 36.6029 22.3854 36.4893 22.4469C36.3757 22.5083 36.3198 22.5608 36.3198 22.5969C36.1394 22.7416 35.9952 22.8085 35.8816 22.8085L34.9547 21.8321C33.7753 23.4033 32.8682 24.1934 32.2389 24.1934C31.5789 24.1934 31.0379 23.5733 30.6051 22.3384C30.1777 21.1559 29.9613 19.8487 29.9613 18.4167V17.9051C28.488 20.2718 27.3645 21.4488 26.5963 21.4488C25.8696 21.4488 25.5089 21.0818 25.5089 20.3477C25.5089 18.3788 26.1166 16.6792 27.3429 15.2418C28.5637 13.8098 29.79 13.0975 31.018 13.0975C32.1938 13.0975 32.8989 14.0431 33.1261 15.9451C32.1938 15.1026 31.3318 14.6795 30.5384 14.6795C29.7233 14.6795 28.8937 15.2274 28.0588 16.3176C27.2185 17.3771 26.7965 18.2974 26.7965 19.0875C26.7965 19.5884 27.0237 19.8361 27.4763 19.8361C27.929 19.8361 28.8162 18.7567 30.1308 16.5852C30.2913 15.815 30.5834 15.3756 31.018 15.2726C31.1515 15.2527 31.1515 15.4425 31.018 15.8367C31.0379 16.4098 31.0956 16.9631 31.1821 17.5001C31.2741 18.0371 31.3985 18.565 31.559 19.0857C31.8999 20.1036 32.2497 20.8685 32.6158 21.3693C32.9764 21.8701 33.2704 22.1178 33.4976 22.1178C33.806 22.1178 34.1937 21.8484 34.6517 21.3114C34.5381 20.8721 34.5688 20.4219 34.7437 19.9572C34.9547 19.384 35.2324 18.9085 35.5732 18.5216C35.914 18.1401 36.2476 17.9123 36.5777 17.84C36.758 17.7984 36.886 17.84 36.969 17.9593L37.0519 17.8346C37.1962 17.6122 37.3242 17.4259 37.4378 17.2867C37.4378 17.5814 37.3134 17.9846 37.0718 18.5053C37.0718 18.6807 37.0826 18.8615 37.1024 19.0586C37.1223 19.2864 37.1493 19.4871 37.1691 19.6788C37.1944 19.865 37.2106 20.0295 37.2214 20.1742C37.2323 20.3188 37.2377 20.4074 37.2377 20.4436C37.3765 20.1235 37.5983 19.7203 37.9031 19.234C38.2115 18.7476 38.5379 18.2522 38.8877 17.7405C39.2429 17.2343 39.5946 16.7389 39.9444 16.2688C40.2943 15.7933 40.5936 15.3847 40.8461 15.0447C41.3204 14.4192 41.6756 13.9292 41.9173 13.582C42.1535 13.2313 42.4637 13.0559 42.8496 13.0559C43.0101 13.0559 43.1129 13.0812 43.1543 13.1391C43.2012 13.1915 43.2932 13.2638 43.4266 13.3506C43.5402 13.4428 43.5907 13.5875 43.5817 13.7954C43.5727 14.0033 43.5655 14.2763 43.5655 14.6162C43.5655 14.9941 43.5402 15.4642 43.4934 16.0374C43.4519 16.6105 43.396 17.2054 43.3238 17.8255C43.2571 18.4457 43.1904 19.0496 43.1237 19.6553C43.0569 20.2555 43.0101 20.7509 42.9848 21.1433C42.965 21.3241 42.974 21.4687 43.0209 21.5881C43.0678 21.702 43.0876 21.7996 43.0876 21.8665C43.0876 22.3529 43.2012 22.5951 43.4284 22.5951C43.5673 22.5951 43.7783 22.5065 44.0776 22.3366C44.3716 22.1721 44.6439 21.9027 44.8927 21.5465C45.2173 21.1487 45.7114 20.4761 46.3714 19.5269C46.5355 17.9412 47.1288 16.54 48.1603 15.3358C49.3866 13.9039 50.6074 13.1861 51.8355 13.1861C53.0148 13.1861 53.7163 14.1371 53.9435 16.0337C53.0166 15.1912 52.1492 14.7735 51.3558 14.7735C50.5407 14.7735 49.7166 15.3214 48.8762 16.4116C48.0359 17.4711 47.6193 18.3914 47.6193 19.1761C47.6193 19.6824 47.8465 19.9301 48.2992 19.9301C48.7518 19.9301 49.6336 18.8452 50.9482 16.6792C51.1087 15.909 51.4009 15.4696 51.8355 15.3611C51.9689 15.3449 51.9689 15.5311 51.8355 15.9253C51.8553 16.4984 51.913 17.0571 52.005 17.5941C52.0933 18.1311 52.2214 18.659 52.3765 19.1761C52.7173 20.1995 53.0725 20.9589 53.4332 21.4597C53.7939 21.9605 54.0878 22.2136 54.315 22.2136C54.6811 22.2136 55.1445 21.8466 55.7108 21.1125C55.8713 20.9155 56.0101 20.7256 56.1328 20.5484C56.2608 20.3676 56.3798 20.1977 56.4934 20.0368C56.6016 19.8614 56.7297 19.6643 56.8793 19.4528C57.2238 18.5849 57.5502 17.6393 57.8531 16.6051C57.8531 16.5328 57.8784 16.4297 57.9252 16.2959C57.9667 16.1621 57.9812 16.0681 57.9559 16.012C57.909 15.9596 57.8784 15.8837 57.8531 15.7842C57.8333 15.6866 57.8116 15.6197 57.7864 15.5835C57.6728 15.0827 57.5033 14.741 57.2761 14.5602C57.1156 14.2239 57.0038 13.9455 56.9352 13.7285V13.5947C56.9352 13.4193 56.9821 13.2638 57.0741 13.1409C57.368 12.9239 57.8423 12.7738 58.5023 12.6871C58.6159 12.6672 58.7494 12.7485 58.9099 12.9402C59.0704 13.1264 59.1822 13.3126 59.2507 13.488C59.2976 13.6688 59.3174 13.7936 59.3174 13.8659C59.3174 14.063 59.2399 14.3776 59.0812 14.8061L59.2507 15.2924L59.4202 16.2073C59.4671 16.3827 59.6312 16.6973 59.9089 17.1421C60.192 17.5923 60.3579 17.896 60.403 18.0569C60.9963 17.2506 61.3461 16.775 61.4597 16.6358C62.0675 15.7933 62.7166 15.1315 63.3983 14.647C63.5786 14.5023 63.8563 14.383 64.2278 14.2854C64.6047 14.1877 64.9077 14.1299 65.1511 14.1244C65.3874 14.1136 65.528 14.119 65.5731 14.1353V14.2691C65.3675 14.2691 64.9293 14.5114 64.2495 14.9977C63.2035 15.8547 62.163 17.2867 61.1207 19.2918C61.595 19.8867 62.1053 20.4291 62.6517 20.9353C63.1927 21.4362 63.5227 21.6839 63.6363 21.6839C63.9501 21.6839 64.2855 21.5645 64.6408 21.3223C64.9906 21.08 65.2846 20.8323 65.5226 20.5828C65.7588 20.3297 66.0834 19.9735 66.491 19.5088C66.5379 19.5088 66.6046 19.592 66.6966 19.7511C65.6975 21.2192 64.8824 22.1739 64.2495 22.6241C63.9303 22.8573 63.6922 22.9748 63.5335 22.9748C63.4867 22.9911 63.4308 23.0218 63.364 23.067C63.2973 23.1086 63.245 23.1448 63.209 23.1592C63.1783 23.1755 63.1476 23.1846 63.126 23.1846C63.0593 23.1846 62.9817 23.1683 62.9042 23.1321C62.8267 23.096 62.7401 23.0399 62.6517 22.9567C62.5598 22.8736 62.4822 22.8013 62.4101 22.7289C62.3434 22.6566 62.255 22.5535 62.1414 22.4198C62.0278 22.286 61.9358 22.1721 61.8691 22.0835C61.8024 21.9949 61.7086 21.8665 61.5968 21.7056C61.4832 21.5447 61.3912 21.4217 61.3245 21.3277C61.2109 21.2029 60.9999 20.863 60.6807 20.3098L60.4751 20.7636C59.954 22.0545 59.5482 23.7396 59.2543 25.8171H57.9613C57.487 25.6887 57.2508 25.45 57.2508 25.0884C57.2508 24.7684 57.2923 24.5153 57.3843 24.3399C58.1579 22.154 59.0181 20.3242 59.9666 18.8579C59.8999 18.7693 59.8332 18.6464 59.7664 18.4963C59.6997 18.3462 59.642 18.2323 59.5969 18.16C59.5302 18.0154 59.422 17.8508 59.2723 17.6646C59.1281 17.4729 58.9585 17.2777 58.762 17.0698C58.5708 16.8691 58.4374 16.728 58.3707 16.6557C58.2985 16.9649 58.221 17.2596 58.1435 17.5398C58.1849 17.4784 58.2264 17.4259 58.2679 17.3753C58.2679 17.793 58.0208 18.4402 57.5213 19.3081C57.3608 19.6697 57.1913 19.9897 57.011 20.2591L56.9551 20.2393C56.7278 20.5846 56.4754 20.957 56.1923 21.3548C54.8109 23.3021 53.7704 24.2802 53.0635 24.2802C52.4089 24.2802 51.8625 23.6655 51.4351 22.4306C51.0023 21.2481 50.7859 19.9409 50.7859 18.509V17.9973C49.3126 20.3586 48.1946 21.541 47.421 21.541C46.7772 21.541 46.4219 21.2518 46.3498 20.6732C46.1641 20.9733 45.9729 21.2735 45.7836 21.5718C45.3309 22.2896 44.7989 23.0074 44.1858 23.7215C43.7116 24.2857 43.2896 24.7395 42.9127 25.0812C44.3283 24.6418 45.9982 24.4194 47.9043 24.4194ZM66.3431 30.0099C66.0293 30.0099 65.7715 29.7676 65.7715 29.4729C65.7715 29.1782 66.0293 28.9359 66.3431 28.9359C66.6569 28.9359 66.9148 29.1782 66.9148 29.4729C66.9166 29.7676 66.6587 30.0099 66.3431 30.0099ZM64.2513 27.9126C63.6688 27.9126 63.1945 27.4678 63.1945 26.92C63.1945 26.3721 63.6688 25.9274 64.2513 25.9274C64.8337 25.9274 65.308 26.3721 65.308 26.92C65.308 27.4678 64.8337 27.9126 64.2513 27.9126ZM4.11083 15.8005C3.79706 15.8005 3.53918 15.5637 3.53918 15.2635C3.53918 14.9688 3.79706 14.7319 4.11083 14.7319C4.42461 14.7319 4.68248 14.9688 4.68248 15.2635C4.68248 15.5637 4.42461 15.8005 4.11083 15.8005ZM5.31725 19.6299C4.72937 19.6299 4.26051 19.1852 4.26051 18.6373C4.26051 18.0895 4.72937 17.6447 5.31725 17.6447C5.89972 17.6447 6.37399 18.0895 6.37399 18.6373C6.37399 19.1852 5.89972 19.6299 5.31725 19.6299Z" fill="url(#paint1_linear)"/>
<defs>
<linearGradient id="paint0_linear" x1="32.33" y1="38.2218" x2="35.0488" y2="20.5051" gradientUnits="userSpaceOnUse">
<stop stop-color="#EDD979"/>
<stop offset="1" stop-color="#FFF9CA"/>
</linearGradient>
<linearGradient id="paint1_linear" x1="35.2274" y1="42.3134" x2="35.2274" y2="3.57556" gradientUnits="userSpaceOnUse">
<stop stop-color="#3F2500"/>
<stop offset="1" stop-color="#EBBD64"/>
</linearGradient>
</defs>
</svg>
