<svg width="42" height="42" viewBox="0 0 42 42" fill="none" xmlns="http://www.w3.org/2000/svg">
<path d="M16.0401 15.4993C16.1947 15.7592 16.3563 16.0262 16.5109 16.2932C15.5272 13.4476 14.7262 10.9181 14.1079 8.71879C14.0025 8.55016 13.8971 8.38152 13.7987 8.21289C14.3608 10.3138 15.1197 12.7449 16.0401 15.4993Z" fill="url(#paint0_linear)"/>
<path d="M3.58917 27.2826C3.68754 27.5566 3.78591 27.8306 3.8913 28.1117C2.73897 25.0271 2.6406 21.1977 3.85617 17.3613C4.74852 14.5367 6.27325 11.944 8.15633 9.80091C8.54278 9.35825 8.95031 8.93666 9.36487 8.52913C12.5408 5.46562 16.8129 3.34365 21.0919 3.03449C25.4694 2.7183 29.3479 4.30627 31.8564 7.06061C31.6526 6.83577 31.4559 6.61795 31.2521 6.40716C28.7999 3.77929 24.9986 2.29672 20.7055 2.66912C16.5248 3.03449 12.337 5.14943 9.21029 8.14971C8.79573 8.54318 8.39523 8.96477 8.0158 9.39338C6.1538 11.4872 4.62908 14.0308 3.72267 16.7781C2.479 20.5372 2.51413 24.2683 3.58917 27.2826Z" fill="#3D3E5D"/>
<path d="M2.24017 33.6977C2.34557 33.9787 2.46502 34.2668 2.57744 34.5549C3.2309 33.1285 3.98272 31.6389 4.84697 30.1142C4.72752 29.8261 4.60807 29.531 4.48862 29.2429C3.6314 30.7676 2.87958 32.2572 2.24017 33.6977Z" fill="#3D3E5D"/>
<path d="M0.85614 26.6711C0.933431 26.9381 1.02477 27.2051 1.10909 27.4722C1.46041 28.5542 1.91713 29.5871 2.45113 30.5567C2.33871 30.2687 2.22629 29.9876 2.11387 29.6995C1.61499 28.751 1.18638 27.7392 0.85614 26.6711Z" fill="url(#paint1_linear)"/>
<path d="M18.0777 21.2819C18.2674 21.5911 18.4501 21.9073 18.6398 22.2235C22.7924 17.1715 27.0293 12.6324 31.0906 8.88735C30.8868 8.64845 30.6831 8.40955 30.4793 8.17065C26.4251 11.8174 22.2022 16.2791 18.0777 21.2819Z" fill="#4B5F93"/>
<path d="M2.95001 34.8708C3.06946 35.1589 3.19594 35.454 3.32241 35.7421C3.6386 36.2059 3.97587 36.6485 4.33421 37.0701C4.19368 36.775 4.05316 36.4729 3.91965 36.1778C3.57536 35.7632 3.25215 35.3276 2.95001 34.8708Z" fill="#4B5F93"/>
<path d="M3.91956 36.1777C4.05306 36.4728 4.19359 36.775 4.33411 37.0701C5.2897 37.3792 6.30853 37.6884 7.40465 37.9905C7.23602 37.6814 7.07441 37.3652 6.9128 37.049C5.84479 36.768 4.84704 36.4728 3.91956 36.1777Z" fill="#4B5F93"/>
<path d="M8.99963 33.6414C10.3768 31.5054 11.8945 29.2991 13.5527 27.0647C13.7284 27.3879 13.9111 27.7111 14.0938 28.0414C12.4285 30.2828 10.8968 32.4821 9.50553 34.6111C8.74668 35.7704 8.04404 36.9017 7.39761 37.9978C7.22898 37.6886 7.06737 37.3724 6.90576 37.0562C7.55219 35.9531 8.2478 34.8078 8.99963 33.6414Z" fill="#4B5F93"/>
<path d="M18.394 39.5928C18.6119 39.93 18.8297 40.2673 19.0545 40.6046C20.6636 40.8927 22.3007 41.1667 23.966 41.4196C23.7411 41.0824 23.5163 40.7451 23.2914 40.4078C21.6262 40.1549 19.989 39.8809 18.394 39.5928Z" fill="#4B5F93"/>
<path d="M18.6468 22.2235C20.0872 26.088 21.6822 30.1071 23.3967 34.1965C24.2961 36.3466 25.2095 38.4615 26.1229 40.5413C25.8981 40.2041 25.6662 39.8598 25.4414 39.5225C24.5209 37.4216 23.6145 35.2926 22.7221 33.1355C21.0358 29.0602 19.476 25.0833 18.0777 21.282C18.2674 21.5911 18.4501 21.9073 18.6468 22.2235Z" fill="#4B5F93"/>
<path d="M23.2844 40.4148C23.5092 40.7521 23.7341 41.0893 23.9589 41.4266C24.6896 41.1666 25.4063 40.8715 26.116 40.5413C25.8912 40.204 25.6593 39.8597 25.4344 39.5225C24.7318 39.8527 24.0151 40.1478 23.2844 40.4148Z" fill="#4B5F93"/>
<path d="M36.4238 5.05105C36.22 4.84728 36.0163 4.64352 35.8125 4.44678C39.2273 7.73513 41.1596 12.7871 40.6256 18.5628C39.8456 26.9453 34.5056 34.4214 27.2473 38.581C27.4722 38.9253 27.697 39.2696 27.9218 39.6069C35.1731 35.4754 40.4991 27.9852 41.279 19.5395C41.8201 13.6584 39.8738 8.47993 36.4238 5.05105Z" fill="#4B5F93"/>
<path d="M25.1674 39.417C24.247 37.3161 23.3406 35.1871 22.4482 33.03C20.7619 28.9617 19.202 24.9777 17.8108 21.1764C21.9142 16.2018 26.1019 11.7681 30.1421 8.12842C30.2545 8.14247 30.367 8.1495 30.4864 8.16355C26.4322 11.8173 22.2093 16.272 18.0848 21.2748C19.4831 25.0761 21.0429 29.0601 22.7293 33.1283C23.6216 35.2784 24.528 37.4144 25.4485 39.5153C24.7388 39.8456 24.0221 40.1477 23.2914 40.4077C21.6261 40.1547 19.996 39.8807 18.401 39.5926C18.394 39.5716 18.387 39.5575 18.3799 39.5364C19.8976 39.8104 21.4505 40.0704 23.0244 40.3093C23.7411 40.0493 24.4578 39.7542 25.1674 39.417Z" fill="#DBE7C9"/>
<path d="M40.3513 18.4642C40.9135 12.3512 38.7072 7.04626 34.9129 3.77898C33.5357 2.59855 31.9126 1.64998 30.1139 0.989502C32.018 1.65701 33.7465 2.64071 35.1869 3.88438C38.9812 7.15868 41.1875 12.4636 40.6254 18.5696C39.8454 26.938 34.5054 34.4211 27.2471 38.5807C27.219 38.5105 27.1839 38.4402 27.1558 38.3699C34.3227 34.1892 39.5784 26.7694 40.3513 18.4642Z" fill="#D3D4D4"/>
<path d="M3.44889 16.6796C4.36232 13.9253 5.88002 11.3888 7.74202 9.2949C8.12145 8.86629 8.52195 8.44471 8.93651 8.05123C12.0633 5.05096 16.251 2.93601 20.4317 2.57064C22.7293 2.3739 24.8794 2.70414 26.7695 3.46299C24.9497 2.78143 22.8909 2.47929 20.7057 2.66901C16.525 3.03438 12.3373 5.14932 9.21054 8.1496C8.79598 8.54308 8.39548 8.96466 8.01605 9.39327C6.15405 11.4871 4.62933 14.0307 3.72292 16.778C2.21224 21.3452 2.61275 25.9264 4.4888 29.2358C3.63158 30.7676 2.87975 32.2572 2.24035 33.6976C2.18414 33.5922 2.12793 33.4798 2.07172 33.3744C2.69707 32.0042 3.40673 30.5849 4.22179 29.1375C2.33872 25.828 1.93821 21.2468 3.44889 16.6796Z" fill="#4B5F93"/>
<path d="M13.7986 8.21289C14.3397 10.2435 15.1618 12.8714 16.0401 15.4993C15.9839 15.5625 15.9206 15.6328 15.8644 15.696C15.5061 14.642 15.1688 13.5881 14.8456 12.5693C14.8175 12.4779 14.7894 12.3795 14.7613 12.2882C14.7402 12.225 14.7261 12.1688 14.705 12.1125C14.424 11.1991 14.157 10.3278 13.9251 9.51277C13.9111 9.45656 13.89 9.40035 13.8759 9.34414C13.8338 9.19659 13.7916 9.04201 13.7495 8.90148C13.6862 8.67663 13.63 8.45881 13.5668 8.24802C13.6441 8.23397 13.7214 8.22694 13.7986 8.21289Z" fill="#DBE7C9"/>
<path d="M13.5668 8.2478C13.623 8.46562 13.6862 8.68344 13.7495 8.90126C13.6862 8.67641 13.623 8.45859 13.5668 8.2478Z" fill="#DBE7C9"/>
<path d="M14.7051 12.1196C14.7262 12.1758 14.7403 12.2391 14.7614 12.2953C14.7403 12.2391 14.7192 12.1758 14.7051 12.1196Z" fill="#DBE7C9"/>
<path d="M13.8691 9.34399C13.8831 9.40021 13.9042 9.45642 13.9183 9.51263C13.9042 9.46344 13.8902 9.40723 13.8691 9.34399Z" fill="#DBE7C9"/>
<path d="M6.6386 36.9578C7.28502 35.8476 7.98064 34.7093 8.73246 33.543C9.23134 32.763 9.7794 31.9409 10.3415 31.1048C11.3252 29.6503 12.3862 28.1537 13.4401 26.7344C13.4753 26.8327 13.5526 27.0787 13.5596 27.0857C12.6672 28.2942 10.9739 30.5778 9.00649 33.6413C8.25467 34.8077 7.55905 35.953 6.91263 37.0562C5.84461 36.7681 4.85389 36.473 3.92641 36.1779C3.91938 36.1708 3.91235 36.1638 3.91235 36.1568C4.75552 36.4308 5.66895 36.6908 6.6386 36.9578Z" fill="#4B5F93"/>
<path d="M13.5666 8.24801C13.6228 8.4588 13.6861 8.67662 13.7493 8.90147C13.7915 9.04902 13.8336 9.19657 13.8758 9.34413C13.8969 9.40034 13.9109 9.45655 13.925 9.51276C14.1639 10.3349 14.4239 11.1991 14.7049 12.1125C14.726 12.1687 14.74 12.232 14.7611 12.2882C14.7892 12.3795 14.8173 12.4709 14.8454 12.5692C15.1687 13.5881 15.5129 14.635 15.8643 15.696C15.9205 15.6328 15.9837 15.5625 16.0399 15.4993C18.5624 12.6325 21.1481 10.0116 23.7409 7.69995C25.8418 7.75616 27.9778 7.89669 30.1349 8.12856C27.2751 10.7072 24.3381 13.6864 21.4081 16.9748C21.2746 16.9467 21.1411 16.9186 21.0006 16.8905C17.2906 16.1316 13.665 15.6328 10.2221 15.3798C9.70914 13.04 9.36485 10.9461 9.21027 9.11928C10.5453 8.76796 11.9997 8.47285 13.5666 8.24801Z" fill="url(#paint2_linear)"/>
<path d="M34.3438 17.4384C34.8286 13.9463 34.1822 10.7985 32.6926 8.31815C32.4045 7.84036 32.0953 7.39067 31.751 6.96908C30.4793 5.41625 28.7719 4.20771 26.7764 3.45588C24.8863 2.69703 22.7292 2.36679 20.4385 2.56353C16.2578 2.9289 12.0701 5.04385 8.94336 8.04412C8.5288 8.4376 8.1283 8.85918 7.74887 9.28779C6.22414 11.0022 4.93128 13.0118 4.01083 15.197C3.40656 15.204 2.82336 15.2251 2.24017 15.2532C3.91246 11.5152 6.47709 8.17762 9.44223 5.68325C13.0257 2.67595 17.5858 0.568034 22.1951 0.0972651C25.0057 -0.183791 27.7038 0.153476 30.1069 0.989618C31.9056 1.6501 33.5358 2.59866 34.9059 3.7791C38.7002 7.0534 40.9064 12.3583 40.3443 18.4643C40.1968 20.0171 39.9017 21.5348 39.459 23.0103C37.6462 22.125 35.6999 21.2819 33.6341 20.509C33.9573 19.5112 34.1962 18.4853 34.3438 17.4384Z" fill="url(#paint3_radial)"/>
<path d="M2.06456 33.3743C2.68991 32.0042 3.39958 30.5848 4.21464 29.1374C2.33859 25.828 1.93809 21.2468 3.44876 16.6796C3.6174 16.1807 3.80009 15.6818 4.00385 15.197C3.40661 15.204 2.82342 15.2251 2.24022 15.2532C1.91701 15.9699 1.62893 16.7007 1.37598 17.4455C-0.556282 23.1158 -0.16983 29.025 2.06456 33.3743ZM24.5139 32.1236C25.3852 34.2245 26.2705 36.3113 27.1558 38.3701C32.9877 34.9693 37.5479 29.4255 39.4661 23.0104C37.6533 22.125 35.707 21.2819 33.6412 20.509C32.1305 25.2799 28.7719 29.4185 24.5139 32.1236Z" fill="url(#paint4_radial)"/>
<path d="M21.4083 16.9749C20.2068 18.3239 18.9983 19.7292 17.8038 21.1767C19.195 24.9779 20.7619 28.9619 22.4412 33.0302C23.3335 35.1803 24.24 37.3163 25.1604 39.4172C24.4507 39.7474 23.7341 40.0496 23.0033 40.3095C21.4294 40.0636 19.8766 39.8107 18.3589 39.5366C17.7124 38.033 17.0801 36.5223 16.4688 34.9976C15.4007 32.3276 14.4241 29.6716 13.5387 27.0648C13.5387 27.0648 13.5387 27.0648 13.5387 27.0718C13.5036 26.9664 13.4615 26.8399 13.4263 26.7345C12.3724 28.1539 11.3114 29.6505 10.3277 31.105C9.7726 31.9271 9.23157 32.7351 8.71864 33.5431C7.96681 34.7095 7.2712 35.8548 6.62477 36.958C5.65513 36.691 4.74872 36.431 3.8915 36.1569C3.55424 35.7494 3.23102 35.3138 2.93591 34.8711C3.60342 33.4377 4.38335 31.9552 5.25462 30.4234C7.03933 27.3037 9.17536 24.0926 11.6135 20.8956C11.0514 18.9282 10.5877 17.0873 10.2082 15.3799C13.6512 15.6328 17.2768 16.1247 20.9867 16.8906C21.1413 16.9187 21.2748 16.9468 21.4083 16.9749Z" fill="url(#paint5_linear)"/>
<defs>
<linearGradient id="paint0_linear" x1="20.7317" y1="11.7467" x2="-5.66771" y2="14.1468" gradientUnits="userSpaceOnUse">
<stop stop-color="#548458"/>
<stop offset="1" stop-color="#28352B"/>
</linearGradient>
<linearGradient id="paint1_linear" x1="-4.15361" y1="31.0657" x2="-2.22339" y2="30.2529" gradientUnits="userSpaceOnUse">
<stop stop-color="#474747"/>
<stop offset="1" stop-color="#191A1B"/>
</linearGradient>
<linearGradient id="paint2_linear" x1="23.4999" y1="-1.50407" x2="15.0126" y2="20.9801" gradientUnits="userSpaceOnUse">
<stop stop-color="#99BD59"/>
<stop offset="1" stop-color="#5AA567"/>
</linearGradient>
<radialGradient id="paint3_radial" cx="0" cy="0" r="1" gradientUnits="userSpaceOnUse" gradientTransform="translate(21.338 11.5005) scale(15.7678)">
<stop offset="0.00478469" stop-color="#DDB4BC"/>
<stop offset="0.4975" stop-color="#C56E9E"/>
<stop offset="1" stop-color="#814C68"/>
</radialGradient>
<radialGradient id="paint4_radial" cx="0" cy="0" r="1" gradientUnits="userSpaceOnUse" gradientTransform="translate(19.7988 26.7852) scale(16.1404)">
<stop offset="0.00478469" stop-color="#DDB4BC"/>
<stop offset="0.4975" stop-color="#C56E9E"/>
<stop offset="1" stop-color="#814C68"/>
</radialGradient>
<linearGradient id="paint5_linear" x1="19.4903" y1="16.6823" x2="12.9661" y2="41.2618" gradientUnits="userSpaceOnUse">
<stop stop-color="#99BD59"/>
<stop offset="1" stop-color="#5AA567"/>
</linearGradient>
</defs>
</svg>
