<svg width="45" height="54" viewBox="0 0 45 54" fill="none" xmlns="http://www.w3.org/2000/svg">
<mask id="mask0" mask-type="alpha" maskUnits="userSpaceOnUse" x="0" y="0" width="45" height="43">
<rect width="44.9689" height="42.1584" fill="#C4C4C4"/>
</mask>
<g mask="url(#mask0)">
<path fill-rule="evenodd" clip-rule="evenodd" d="M-51.2656 21.0777C-50.773 21.0277 -49.7162 21.2062 -48.3453 21.0777C-46.9744 20.9491 -45.2822 20.5207 -43.8899 20.2494C-42.4904 19.9709 -41.3837 19.8496 -40.1842 19.8567C-38.9846 19.871 -37.7065 20.0209 -36.407 20.3065C-35.1075 20.5993 -33.8009 21.0277 -32.1158 21.5775C-30.4307 22.1344 -28.3601 22.8127 -26.6108 23.3768C-24.8614 23.9408 -23.4263 24.3978 -21.8626 24.7477C-20.2989 25.0975 -18.6138 25.3546 -16.6003 25.4117C-14.5868 25.476 -12.2448 25.3474 -9.71009 25.0618C-7.17535 24.7691 -4.45496 24.3193 -0.62785 23.4125C3.19926 22.5057 8.14022 21.1491 11.7246 20.178C15.316 19.2069 17.558 18.6286 19.7501 18.4001C21.9421 18.1716 24.0841 18.3001 25.7835 18.4858C27.4828 18.6714 28.7466 18.9285 30.4031 19.3783C32.0668 19.8353 34.1303 20.485 35.9724 21.0919C37.8146 21.6988 39.4211 22.2486 41.3132 22.6271C43.2054 23.0055 45.3688 23.2054 47.8893 23.234C50.4098 23.2625 53.2801 23.1054 54.0084 23.1483C54.7367 23.184 53.3301 23.4125 51.6022 23.6053C49.8743 23.7909 47.8393 23.948 45.9115 23.9194C43.9837 23.8909 42.1701 23.6909 40.0137 23.1768C37.8574 22.6628 35.3655 21.8274 33.1735 21.1205C30.9815 20.4136 29.0894 19.8353 27.2543 19.5068C25.4122 19.1784 23.6272 19.107 21.9492 19.1427C20.2713 19.1784 18.7147 19.3283 16.1157 19.921C13.5239 20.5136 9.8967 21.5489 6.20525 22.5271C2.51381 23.5124 -1.23476 24.4407 -4.11223 25.069C-6.98256 25.6973 -8.97466 26.0258 -11.0739 26.2043C-13.1802 26.3828 -15.3936 26.4042 -17.6856 26.1757C-19.9776 25.9472 -22.3481 25.4688 -24.7615 24.7548C-27.182 24.0337 -29.6453 23.0769 -31.5232 22.3772C-33.401 21.6703 -34.6863 21.2205 -36.0072 20.9134C-37.3281 20.6135 -38.6919 20.4565 -40.0985 20.4707C-41.5122 20.485 -42.9688 20.6564 -44.3683 20.9777C-45.7677 21.2919 -47.1029 21.7488 -48.2953 21.8845C-49.4949 22.0201 -50.5516 21.8488 -51.1157 21.6203C-51.6798 21.3918 -51.7583 21.1134 -51.2656 21.0634V21.0777Z" fill="#007CFF"/>
<path fill-rule="evenodd" clip-rule="evenodd" d="M-5.98263 25.0052C-4.31898 24.9053 -2.01272 24.6911 0.264981 24.3555C2.54268 24.0199 4.79896 23.5701 6.43405 23.2987C8.06914 23.0274 9.09018 22.9417 10.2469 22.9203C11.3964 22.8989 12.6817 22.9489 14.024 23.1631C15.3663 23.3701 16.7658 23.7343 18.8436 24.4554C20.9214 25.1766 23.6775 26.2405 25.4268 26.9116C27.169 27.5757 27.9044 27.847 29.0468 28.1612C30.1964 28.4753 31.7529 28.8395 33.7665 29.1608C35.7728 29.4821 38.229 29.7606 40.4639 29.9248C42.6988 30.089 44.7123 30.139 46.7401 30.139C48.7679 30.139 50.8099 30.089 52.4093 29.9819C54.0087 29.8748 55.1654 29.7106 55.2582 29.7963C55.3439 29.8819 54.3657 30.2247 53.1091 30.446C51.8524 30.6674 50.3315 30.7673 48.1038 30.8173C45.8761 30.8673 42.9415 30.8673 40.3425 30.7459C37.7435 30.6245 35.4729 30.3889 33.3737 30.0319C31.2674 29.682 29.3324 29.2108 27.4117 28.611C25.491 28.0041 23.5918 27.2615 21.9781 26.6189C20.3644 25.9763 19.0435 25.4336 17.8725 25.0267C16.7016 24.6197 15.6805 24.3412 14.3667 24.1556C13.0529 23.9699 11.4393 23.8842 9.76849 23.9342C8.0977 23.9842 6.37693 24.177 4.14207 24.5054C1.90721 24.841 -0.841738 25.3194 -3.66923 25.6407C-6.50386 25.962 -9.42417 26.1334 -11.0164 26.2191C-12.6087 26.3119 -12.8729 26.319 -12.4302 26.112C-11.9875 25.9049 -10.8379 25.4836 -9.74548 25.2837C-8.66018 25.0838 -7.632 25.0981 -5.96835 24.9981L-5.98263 25.0052Z" fill="#007CFF"/>
<path fill-rule="evenodd" clip-rule="evenodd" d="M-43.2043 14.3733C-43.1114 14.252 -41.712 13.8378 -39.9912 13.288C-38.2704 12.7382 -36.2284 12.0599 -34.479 11.5744C-32.7297 11.0889 -31.266 10.8033 -30.1949 10.6676C-29.1239 10.5319 -28.4456 10.5605 -27.803 10.689C-27.1604 10.8176 -26.5535 11.0389 -25.7966 11.4316C-25.0326 11.8243 -24.1187 12.3741 -23.1334 12.9881C-22.148 13.6022 -21.1056 14.2662 -20.2416 14.7589C-19.3776 15.2516 -18.6993 15.5657 -17.9996 15.8442C-17.2999 16.1227 -16.5859 16.3583 -15.6219 16.6082C-14.6652 16.851 -13.4656 17.108 -12.0519 17.3008C-10.6381 17.4936 -8.9959 17.6364 -7.28941 17.7792C-5.58292 17.922 -3.80503 18.0719 -1.44165 18.129C0.928875 18.1862 3.88489 18.1505 7.27645 17.872C10.6609 17.5935 14.4808 17.0794 17.1941 16.6439C19.9073 16.2083 21.521 15.8585 23.8915 15.3872C26.2692 14.9231 29.4037 14.3448 31.7885 14.0306C34.1733 13.7164 35.8155 13.6665 37.3007 13.6807C38.7858 13.7022 40.121 13.7878 41.3848 13.9378C42.6486 14.0877 43.8482 14.3019 44.9835 14.6804C46.1259 15.0588 47.204 15.6014 47.9609 16.0298C48.7178 16.4583 49.1462 16.7724 49.646 17.0723C50.1529 17.3722 50.7313 17.6649 51.4667 17.9148C52.2021 18.1647 53.0947 18.3789 54.3513 18.4718C55.608 18.5574 57.2145 18.5217 57.9642 18.5931C58.7139 18.6645 58.5997 18.8359 58.107 19.0358C57.6144 19.2286 56.7504 19.4428 55.865 19.5713C54.9868 19.6999 54.0871 19.7356 53.1803 19.6499C52.2735 19.5713 51.3525 19.3643 50.2743 18.8859C49.189 18.4075 47.9466 17.6507 46.9399 17.0723C45.9331 16.494 45.162 16.087 44.2123 15.8014C43.2627 15.5086 42.1274 15.3373 40.5066 15.2301C38.8858 15.123 36.7866 15.0873 34.5018 15.2301C32.2241 15.373 29.7679 15.7014 27.026 16.2298C24.2842 16.7581 21.2568 17.4936 18.8792 18.0148C16.5015 18.5289 14.7664 18.8288 11.689 19.1072C8.61165 19.3857 4.19191 19.6356 0.778932 19.6999C-2.63405 19.7641 -5.04027 19.6356 -7.57502 19.35C-10.1098 19.0573 -12.7802 18.6074 -15.015 17.9577C-17.2499 17.3079 -19.0492 16.4654 -20.57 15.6014C-22.0909 14.7375 -23.319 13.8592 -24.3186 13.2166C-25.3111 12.574 -26.0679 12.1742 -26.6749 11.8814C-27.2818 11.5887 -27.7316 11.4173 -28.2671 11.3388C-28.8026 11.2602 -29.4167 11.2888 -30.3163 11.4173C-31.2088 11.5458 -32.3798 11.7672 -34.1863 12.2456C-35.9927 12.7168 -38.4346 13.438 -40.2625 13.8807C-42.0904 14.3305 -43.2971 14.5019 -43.2043 14.3876V14.3733Z" fill="#007CFF"/>
<path fill-rule="evenodd" clip-rule="evenodd" d="M-35.0288 8.76132C-35.2074 8.68277 -34.3006 8.51141 -33.151 8.31863C-32.0014 8.13298 -30.6163 7.92592 -29.4738 7.82596C-28.3243 7.726 -27.4175 7.726 -26.425 7.85452C-25.4325 7.98304 -24.3472 8.23295 -23.1762 8.64707C-22.0053 9.0612 -20.7486 9.63955 -19.2563 10.3964C-17.7712 11.1533 -16.0575 12.0815 -14.4581 12.8526C-12.8588 13.6237 -11.3736 14.2235 -9.38151 14.7804C-7.38942 15.3374 -4.89751 15.8372 -1.89866 16.0014C1.10019 16.1656 4.59886 15.9871 7.31924 15.673C10.0396 15.3588 11.9817 14.9018 14.3451 14.2521C16.7157 13.5952 19.5074 12.7384 22.5706 11.7459C25.6337 10.7534 28.9538 9.61813 31.7528 8.86128C34.5517 8.10442 36.8151 7.726 38.7644 7.51179C40.7136 7.29759 42.3559 7.24761 43.9053 7.36185C45.4547 7.47609 46.9184 7.75456 48.6035 8.43287C50.2885 9.11118 52.2021 10.1965 53.6301 10.8891C55.051 11.5817 55.9864 11.8816 55.7079 11.9244C55.4294 11.9601 53.9443 11.7387 52.2306 11.2175C50.517 10.7034 48.5749 9.8966 46.9398 9.36823C45.3047 8.83986 43.9695 8.58995 41.9631 8.64707C39.9639 8.71133 37.2935 9.08976 34.4946 9.70381C31.6956 10.3179 28.7753 11.1747 26.0407 12.0458C23.306 12.9169 20.7641 13.7951 17.9937 14.5877C15.2234 15.3802 12.2388 16.0728 9.43986 16.6012C6.64093 17.1295 4.04193 17.4937 0.714626 17.2938C-2.61267 17.0938 -6.66826 16.337 -10.5239 15.066C-14.3796 13.7951 -18.0282 12.0029 -20.4844 10.8748C-22.9406 9.73951 -24.1973 9.26112 -25.2683 8.96124C-26.3393 8.66135 -27.2176 8.53283 -28.3671 8.53283C-29.5167 8.53283 -30.9233 8.66135 -32.2585 8.73275C-33.5937 8.8113 -34.8503 8.83272 -35.0288 8.76132Z" fill="#007CFF"/>
<path fill-rule="evenodd" clip-rule="evenodd" d="M6.64816 15.9874C6.08409 15.7875 4.06344 15.5304 2.03564 15.1948C0.00784414 14.8521 -2.03423 14.4237 -3.755 13.9239C-5.48291 13.4169 -6.88952 12.8386 -8.53889 11.9461C-10.1883 11.0535 -12.0804 9.83973 -13.7155 8.84725C-15.3506 7.85477 -16.7358 7.06936 -18.0353 6.43389C-19.3348 5.79841 -20.5414 5.30574 -22.2551 5.06298C-23.9687 4.82022 -26.1821 4.82022 -27.8101 4.92732C-29.438 5.03442 -30.4662 5.24862 -30.3306 5.37001C-30.1949 5.49139 -28.8811 5.51281 -27.4102 5.56279C-25.9394 5.61277 -24.2971 5.69131 -22.9619 5.86267C-21.6267 6.04118 -20.5914 6.31964 -19.6632 6.65523C-18.7278 6.99796 -17.8996 7.3978 -16.8643 7.99043C-15.829 8.58306 -14.5937 9.36134 -13.3228 10.2324C-12.0518 11.1035 -10.738 12.0603 -9.41712 12.7886C-8.0962 13.5169 -6.761 14.0238 -4.89742 14.5308C-3.03385 15.0377 -0.641907 15.5447 1.17168 15.8731C2.98528 16.2016 4.22052 16.3515 5.2844 16.3444C6.34114 16.3444 7.22651 16.1944 6.6553 15.9874H6.64816Z" fill="#007CFF"/>
<path fill-rule="evenodd" clip-rule="evenodd" d="M-37.6993 13.2241C-37.2066 13.1742 -36.1499 13.3527 -34.779 13.2241C-33.4081 13.0956 -31.7159 12.6672 -30.3236 12.3959C-28.9241 12.1174 -27.8174 11.996 -26.6178 12.0032C-25.4183 12.0175 -24.1402 12.1674 -22.8407 12.453C-21.5412 12.7457 -20.2346 13.1742 -18.5495 13.7239C-16.8644 14.2809 -14.7938 14.9592 -13.0445 15.5233C-11.2951 16.0873 -9.85996 16.5443 -8.29627 16.8942C-6.73258 17.244 -5.04751 17.5011 -3.034 17.5582C-1.02048 17.6225 1.32148 17.4939 3.85622 17.2083C6.39097 16.9156 9.11136 16.4658 12.9385 15.559C16.7656 14.6522 21.7065 13.2955 25.2909 12.3245C28.8824 11.3534 31.1244 10.7751 33.3164 10.5466C35.5084 10.3181 37.6504 10.4466 39.3498 10.6323C41.0491 10.8179 42.3129 11.075 43.9695 11.5248C45.6331 11.9818 47.6966 12.6315 49.5387 13.2384C51.3809 13.8453 52.9874 14.3951 54.8796 14.7735C56.7717 15.152 58.9352 15.3519 61.4556 15.3805C63.9761 15.409 66.8464 15.2519 67.5747 15.2948C68.303 15.3305 66.8964 15.559 65.1685 15.7517C63.4406 15.9374 61.4056 16.0945 59.4778 16.0659C57.55 16.0373 55.7364 15.8374 53.5801 15.3233C51.4237 14.8092 48.9318 13.9739 46.7398 13.267C44.5478 12.5601 42.6557 11.9818 40.8207 11.6533C38.9785 11.3249 37.1935 11.2535 35.5155 11.2892C33.8376 11.3249 32.2811 11.4748 29.6821 12.0674C27.0902 12.6601 23.463 13.6954 19.7716 14.6736C16.0801 15.6589 12.3316 16.5871 9.45408 17.2155C6.58375 17.8438 4.59166 18.1722 2.49246 18.3507C0.386122 18.5293 -1.82732 18.5507 -4.1193 18.3222C-6.41128 18.0937 -8.7818 17.6153 -11.1952 16.9013C-13.6157 16.1801 -16.079 15.2234 -17.9569 14.5236C-19.8347 13.8168 -21.1199 13.3669 -22.4409 13.0599C-23.7618 12.76 -25.1256 12.6029 -26.5322 12.6172C-27.9459 12.6315 -29.4025 12.8029 -30.802 13.1242C-32.2014 13.4383 -33.5366 13.8953 -34.729 14.031C-35.9286 14.1666 -36.9853 13.9953 -37.5494 13.7668C-38.1134 13.5383 -38.192 13.2598 -37.6993 13.2099V13.2241Z" fill="#007CFF"/>
<path fill-rule="evenodd" clip-rule="evenodd" d="M7.58332 17.151C9.24697 17.051 11.5532 16.8368 13.8309 16.5012C16.1086 16.1656 18.3649 15.7158 20 15.4445C21.6351 15.1732 22.6561 15.0875 23.8128 15.0661C24.9624 15.0446 26.2476 15.0946 27.59 15.3088C28.9323 15.5159 30.3318 15.88 32.4095 16.6012C34.4873 17.3223 37.2434 18.3862 38.9927 19.0574C40.7349 19.7214 41.4704 19.9928 42.6128 20.3069C43.7623 20.6211 45.3189 20.9852 47.3324 21.3065C49.3388 21.6278 51.795 21.9063 54.0298 22.0705C56.2647 22.2348 58.2782 22.2847 60.306 22.2847C62.3338 22.2847 64.3759 22.2348 65.9753 22.1277C67.5747 22.0206 68.7314 21.8563 68.8242 21.942C68.9099 22.0277 67.9317 22.3704 66.675 22.5918C65.4183 22.8131 63.8975 22.9131 61.6698 22.963C59.4421 23.013 56.5075 23.013 53.9085 22.8916C51.3095 22.7703 49.0389 22.5346 46.9397 22.1776C44.8334 21.8278 42.8984 21.3565 40.9777 20.7567C39.057 20.1498 37.1577 19.4073 35.5441 18.7647C33.9304 18.122 32.6095 17.5794 31.4385 17.1724C30.2675 16.7654 29.2465 16.487 27.9327 16.3013C26.6189 16.1157 25.0052 16.03 23.3344 16.08C21.6636 16.1299 19.9429 16.3227 17.708 16.6512C15.4732 16.9868 12.7242 17.4652 9.89672 17.7865C7.06209 18.1078 4.14178 18.2791 2.54953 18.3648C0.957282 18.4576 0.693097 18.4648 1.13579 18.2577C1.57847 18.0506 2.72803 17.6294 3.82047 17.4295C4.90577 17.2295 5.93395 17.2438 7.5976 17.1438L7.58332 17.151Z" fill="#007CFF"/>
<path fill-rule="evenodd" clip-rule="evenodd" d="M-29.638 6.51982C-29.5451 6.39844 -28.1457 5.98431 -26.4249 5.43452C-24.7041 4.88473 -22.6621 4.20642 -20.9127 3.72089C-19.1634 3.23536 -17.6997 2.94975 -16.6287 2.81409C-15.5576 2.67843 -14.8793 2.70699 -14.2367 2.83551C-13.5941 2.96404 -12.9872 3.18538 -12.2303 3.57809C-11.4663 3.97079 -10.5524 4.52058 -9.56707 5.13463C-8.58173 5.74868 -7.53927 6.41272 -6.67532 6.90539C-5.81136 7.39805 -5.13305 7.71222 -4.43332 7.99068C-3.73359 8.26915 -3.01957 8.50477 -2.05566 8.75468C-1.09888 8.99744 0.100661 9.25449 1.51441 9.44727C2.92815 9.64005 4.57038 9.78286 6.27687 9.92566C7.98336 10.0685 9.76125 10.2184 12.1246 10.2755C14.4952 10.3326 17.4512 10.2969 20.8427 10.0185C24.2272 9.74002 28.0471 9.22593 30.7604 8.79038C33.4736 8.35483 35.0873 8.00496 37.4578 7.53372C39.8355 7.06961 42.97 6.49126 45.3548 6.17709C47.7396 5.86293 49.3818 5.81295 50.867 5.82723C52.3521 5.84865 53.6873 5.93433 54.9511 6.08427C56.2149 6.23421 57.4145 6.44842 58.5498 6.82684C59.6922 7.20527 60.7703 7.74792 61.5272 8.17633C62.284 8.60474 62.7124 8.9189 63.2123 9.21879C63.7192 9.51867 64.2976 9.81142 65.033 10.0613C65.7684 10.3112 66.6609 10.5254 67.9176 10.6183C69.1743 10.7039 70.7808 10.6682 71.5305 10.7396C72.2802 10.811 72.166 10.9824 71.6733 11.1823C71.1806 11.3751 70.3167 11.5893 69.4313 11.7178C68.5531 11.8464 67.6534 11.8821 66.7466 11.7964C65.8398 11.7178 64.9187 11.5108 63.8406 11.0324C62.7553 10.554 61.5129 9.79714 60.5061 9.21879C59.4994 8.64044 58.7283 8.23345 57.7786 7.94784C56.829 7.6551 55.6937 7.48374 54.0729 7.37663C52.4521 7.26953 50.3529 7.23383 48.068 7.37663C45.7903 7.51944 43.3341 7.84788 40.5923 8.37625C37.8505 8.90462 34.8231 9.64005 32.4454 10.1613C30.0678 10.6754 28.3327 10.9753 25.2553 11.2537C22.1779 11.5322 17.7582 11.7821 14.3452 11.8464C10.9322 11.9106 8.52601 11.7821 5.99127 11.4965C3.45652 11.2037 0.786115 10.7539 -1.44875 10.1042C-3.68361 9.45441 -5.48292 8.61188 -7.00376 7.74792C-8.52461 6.88396 -9.75271 6.00573 -10.7523 5.36312C-11.7448 4.72051 -12.5017 4.32066 -13.1086 4.02791C-13.7155 3.73517 -14.1653 3.56381 -14.7008 3.48526C-15.2363 3.40672 -15.8504 3.43528 -16.75 3.56381C-17.6426 3.69233 -18.8135 3.91367 -20.62 4.39206C-22.4264 4.86331 -24.8684 5.58446 -26.6962 6.02715C-28.5241 6.47698 -29.7308 6.64834 -29.638 6.5341V6.51982Z" fill="#007CFF"/>
<path fill-rule="evenodd" clip-rule="evenodd" d="M-21.4626 0.907312C-21.6411 0.82877 -20.7343 0.657407 -19.5847 0.464624C-18.4352 0.27898 -17.05 0.0719167 -15.9075 -0.0280451C-14.758 -0.128007 -13.8512 -0.128007 -12.8587 0.00051544C-11.8662 0.129038 -10.7809 0.378942 -9.60995 0.793069C-8.43897 1.2072 -7.18231 1.78555 -5.69002 2.5424C-4.20488 3.29925 -2.49125 4.22747 -0.891859 4.9986C0.707529 5.76974 2.19268 6.36951 4.18477 6.92644C6.17687 7.48337 8.66877 7.98318 11.6676 8.1474C14.6665 8.31162 18.1651 8.13312 20.8855 7.81895C23.6059 7.50479 25.548 7.04782 27.9114 6.39807C30.2819 5.74118 33.0737 4.88436 36.1368 3.89188C39.2 2.89941 42.5201 1.76413 45.319 1.00727C48.118 0.25042 50.3814 -0.128007 52.3307 -0.342211C54.2799 -0.556414 55.9221 -0.606395 57.4715 -0.492153C59.0209 -0.377911 60.4847 -0.0994463 62.1697 0.578866C63.8548 1.25718 65.7684 2.34248 67.1964 3.03507C68.6173 3.72766 69.5526 4.02755 69.2742 4.07039C68.9957 4.10609 67.5106 3.88474 65.7969 3.36352C64.0833 2.84943 62.1412 2.04259 60.5061 1.51422C58.871 0.985853 57.5358 0.735948 55.5294 0.793069C53.5302 0.857331 50.8598 1.23576 48.0609 1.84981C45.2619 2.46386 42.3416 3.32067 39.6069 4.19177C36.8723 5.06287 34.3304 5.9411 31.56 6.73365C28.7896 7.52621 25.8051 8.2188 23.0061 8.74717C20.2072 9.27554 17.6082 9.63969 14.2809 9.43976C10.9536 9.23984 6.89802 8.48299 3.04235 7.21204C-0.813318 5.9411 -4.46192 4.14893 -6.91813 3.02079C-9.37433 1.88551 -10.631 1.40712 -11.702 1.10724C-12.773 0.80735 -13.6513 0.678827 -14.8008 0.678827C-15.9504 0.678827 -17.357 0.80735 -18.6922 0.878751C-20.0274 0.957292 -21.2841 0.978713 -21.4626 0.907312Z" fill="#007CFF"/>
<path fill-rule="evenodd" clip-rule="evenodd" d="M20.2141 8.13313C19.6501 7.9332 17.6294 7.67616 15.6016 7.34057C13.5738 6.99785 11.5317 6.56944 9.81097 6.06963C8.08306 5.56268 6.67646 4.98433 5.02709 4.09182C3.37772 3.1993 1.48559 1.98548 -0.149502 0.993C-1.78459 0.000522243 -3.16978 -0.784892 -4.46928 -1.42036C-5.76878 -2.05583 -6.97546 -2.5485 -8.68909 -2.79127C-10.4027 -3.03403 -12.6162 -3.03403 -14.2441 -2.92693C-15.8721 -2.81983 -16.9002 -2.60562 -16.7646 -2.48424C-16.6289 -2.36286 -15.3151 -2.34144 -13.8443 -2.29146C-12.3734 -2.24148 -10.7312 -2.16294 -9.39597 -1.99157C-8.06076 -1.81307 -7.02544 -1.53461 -6.09723 -1.19902C-5.16187 -0.856293 -4.33362 -0.456446 -3.2983 0.136185C-2.26298 0.728815 -1.02774 1.50709 0.243205 2.37818C1.51415 3.24928 2.82793 4.20606 4.14885 4.93435C5.46978 5.66264 6.80498 6.16959 8.66855 6.67654C10.5321 7.18349 12.9241 7.69044 14.7377 8.01889C16.5513 8.34733 17.7865 8.49727 18.8504 8.49013C19.9071 8.49013 20.7925 8.34019 20.2213 8.13313H20.2141Z" fill="#007CFF"/>
<path fill-rule="evenodd" clip-rule="evenodd" d="M-8.21774 30.0818C-8.12492 29.9604 -6.72546 29.5463 -5.00469 28.9965C-3.28392 28.4467 -1.24184 27.7684 0.507492 27.2829C2.25682 26.7974 3.72055 26.5118 4.79157 26.3761C5.86259 26.2404 6.5409 26.269 7.18351 26.3975C7.82612 26.526 8.43304 26.7474 9.18989 27.1401C9.95388 27.5328 10.8678 28.0826 11.8532 28.6966C12.8385 29.3107 13.881 29.9747 14.7449 30.4674C15.6089 30.9601 16.2872 31.2742 16.9869 31.5527C17.6866 31.8312 18.4007 32.0668 19.3646 32.3167C20.3213 32.5595 21.5209 32.8165 22.9346 33.0093C24.3484 33.2021 25.9906 33.3449 27.6971 33.4877C29.4036 33.6305 31.1815 33.7804 33.5449 33.8375C35.9154 33.8947 38.8714 33.859 42.263 33.5805C45.6474 33.302 49.4674 32.7879 52.1806 32.3524C54.8938 31.9168 56.5075 31.567 58.878 31.0957C61.2557 30.6316 64.3902 30.0533 66.775 29.7391C69.1598 29.4249 70.8021 29.375 72.2872 29.3892C73.7723 29.4107 75.1076 29.4963 76.3714 29.6463C77.6352 29.7962 78.8347 30.0104 79.97 30.3889C81.1124 30.7673 82.1906 31.3099 82.9474 31.7383C83.7043 32.1667 84.1327 32.4809 84.6325 32.7808C85.1394 33.0807 85.7178 33.3734 86.4532 33.6233C87.1886 33.8732 88.0812 34.0874 89.3378 34.1803C90.5945 34.2659 92.201 34.2302 92.9507 34.3016C93.7004 34.373 93.5862 34.5444 93.0935 34.7443C92.6009 34.9371 91.7369 35.1513 90.8515 35.2798C89.9733 35.4084 89.0736 35.4441 88.1668 35.3584C87.26 35.2798 86.339 35.0728 85.2608 34.5944C84.1755 34.116 82.9331 33.3591 81.9264 32.7808C80.9196 32.2024 80.1485 31.7955 79.1988 31.5099C78.2492 31.2171 77.1139 31.0457 75.4931 30.9386C73.8723 30.8315 71.7731 30.7958 69.4883 30.9386C67.2106 31.0814 64.7544 31.4099 62.0126 31.9383C59.2707 32.4666 56.2433 33.2021 53.8657 33.7233C51.488 34.2374 49.753 34.5373 46.6756 34.8157C43.5982 35.0942 39.1784 35.3441 35.7654 35.4084C32.3525 35.4726 29.9462 35.3441 27.4115 35.0585C24.8767 34.7658 22.2063 34.3159 19.9715 33.6662C17.7366 33.0164 15.9373 32.1739 14.4165 31.3099C12.8956 30.446 11.6675 29.5677 10.6679 28.9251C9.67542 28.2825 8.91856 27.8827 8.31165 27.5899C7.70474 27.2972 7.25491 27.1258 6.7194 27.0473C6.18389 26.9687 5.56984 26.9973 4.67019 27.1258C3.77767 27.2543 2.60669 27.4757 0.800238 27.9541C-1.00621 28.4253 -3.44814 29.1465 -5.27601 29.5892C-7.10388 30.039 -8.31057 30.2104 -8.21774 30.0961V30.0818Z" fill="#007CFF"/>
<path fill-rule="evenodd" clip-rule="evenodd" d="M-0.042338 24.4696C-0.220841 24.391 0.685955 24.2197 1.83552 24.0269C2.98508 23.8412 4.37026 23.6342 5.51268 23.5342C6.66224 23.4342 7.56904 23.4342 8.56151 23.5628C9.55399 23.6913 10.6393 23.9412 11.8103 24.3553C12.9813 24.7695 14.2379 25.3478 15.7302 26.1047C17.2153 26.8615 18.929 27.7897 20.5284 28.5609C22.1278 29.332 23.6129 29.9318 25.605 30.4887C27.5971 31.0456 30.089 31.5454 33.0879 31.7097C36.0867 31.8739 39.5854 31.6954 42.3058 31.3812C45.0261 31.067 46.9683 30.6101 49.3316 29.9603C51.7022 29.3034 54.494 28.4466 57.5571 27.4541C60.6202 26.4617 63.9403 25.3264 66.7393 24.5695C69.5382 23.8127 71.8016 23.4342 73.7509 23.22C75.7001 23.0058 77.3424 22.9559 78.8918 23.0701C80.4412 23.1843 81.9049 23.4628 83.59 24.1411C85.275 24.8194 87.1886 25.9047 88.6166 26.5973C90.0375 27.2899 90.9729 27.5898 90.6944 27.6326C90.4159 27.6683 88.9308 27.447 87.2172 26.9258C85.5035 26.4117 83.5614 25.6048 81.9263 25.0765C80.2912 24.5481 78.956 24.2982 76.9497 24.3553C74.9504 24.4196 72.28 24.798 69.4811 25.4121C66.6822 26.0261 63.7618 26.8829 61.0272 27.754C58.2925 28.6251 55.7506 29.5034 52.9802 30.2959C50.2099 31.0885 47.2253 31.7811 44.4264 32.3094C41.6274 32.8378 39.0284 33.2019 35.7011 33.002C32.3738 32.8021 28.3182 32.0452 24.4626 30.7743C20.6069 29.5034 16.9583 27.7112 14.5021 26.583C12.0459 25.4478 10.7892 24.9694 9.71822 24.6695C8.6472 24.3696 7.76896 24.2411 6.6194 24.2411C5.46984 24.2411 4.06324 24.3696 2.72803 24.441C1.39283 24.5195 0.136165 24.541 -0.042338 24.4696Z" fill="#007CFF"/>
<path fill-rule="evenodd" clip-rule="evenodd" d="M42.5202 34.7149C41.9561 34.515 39.9355 34.2579 37.9077 33.9224C35.8799 33.5796 33.8378 33.1512 32.117 32.6514C30.3891 32.1445 28.9825 31.5661 27.3332 30.6736C25.6838 29.7811 23.7916 28.5673 22.1566 27.5748C20.5215 26.5823 19.1363 25.7969 17.8368 25.1614C16.5373 24.526 15.3306 24.0333 13.617 23.7905C11.9033 23.5478 9.6899 23.5478 8.06195 23.6549C6.434 23.762 5.40582 23.9762 5.54148 24.0975C5.67715 24.2189 6.99093 24.2403 8.4618 24.2903C9.93266 24.3403 11.5749 24.4189 12.9101 24.5902C14.2453 24.7687 15.2806 25.0472 16.2088 25.3828C17.1442 25.7255 17.9724 26.1253 19.0078 26.718C20.0431 27.3106 21.2783 28.0889 22.5493 28.96C23.8202 29.8311 25.134 30.7878 26.4549 31.5161C27.7758 32.2444 29.111 32.7514 30.9746 33.2583C32.8382 33.7653 35.2301 34.2722 37.0437 34.6007C38.8573 34.9291 40.0926 35.0791 41.1564 35.0719C42.2132 35.0719 43.0986 34.922 42.5273 34.7149H42.5202Z" fill="#007CFF"/>
</g>
<path d="M1.11698 51.2931C1.10435 51.2931 1.09804 51.2741 1.09804 51.2363C1.09804 51.1984 1.10435 51.1795 1.11698 51.1795C1.28739 51.1795 1.41361 51.1637 1.49566 51.1321C1.57771 51.1006 1.63136 51.0406 1.6566 50.9523C1.68816 50.8576 1.70394 50.7156 1.70394 50.5262V48.4245C1.70394 48.1784 1.67869 48.0143 1.6282 47.9322C1.57771 47.8439 1.47042 47.7997 1.30632 47.7997C0.801405 47.7997 0.514235 48.1563 0.444809 48.8695C0.438498 48.8821 0.416408 48.8884 0.378539 48.8884C0.346982 48.8884 0.331204 48.8821 0.331204 48.8695L0.312269 48.2541C0.299646 48.0017 0.293335 47.8218 0.293335 47.7145C0.293335 47.6766 0.296491 47.6545 0.302802 47.6482C0.309114 47.6356 0.331204 47.6293 0.369072 47.6293C0.495301 47.6293 0.608907 47.6324 0.709889 47.6388L1.99742 47.6482L3.30389 47.6388C3.41118 47.6324 3.53426 47.6293 3.67311 47.6293C3.71098 47.6293 3.73307 47.6356 3.73938 47.6482C3.74569 47.6545 3.74884 47.6766 3.74884 47.7145C3.74884 47.8218 3.74253 48.0017 3.72991 48.2541L3.71098 48.8695C3.71098 48.8821 3.69204 48.8884 3.65417 48.8884C3.6163 48.8884 3.59737 48.8821 3.59737 48.8695C3.52794 48.1563 3.24077 47.7997 2.73586 47.7997C2.57176 47.7997 2.46447 47.8439 2.41398 47.9322C2.3698 48.0143 2.34771 48.1784 2.34771 48.4245V50.5262C2.34771 50.7156 2.36033 50.8576 2.38557 50.9523C2.41713 51.0406 2.47078 51.1006 2.54652 51.1321C2.62856 51.1637 2.75164 51.1795 2.91574 51.1795C2.93467 51.1795 2.94414 51.1984 2.94414 51.2363C2.94414 51.2741 2.93467 51.2931 2.91574 51.2931C2.75164 51.2931 2.62225 51.2899 2.52758 51.2836L2.03529 51.2741L1.52406 51.2836C1.42939 51.2899 1.2937 51.2931 1.11698 51.2931Z" fill="#14141C"/>
<path d="M11.4149 47.6388C11.4339 47.6388 11.4433 47.6577 11.4433 47.6956C11.4433 47.7334 11.4339 47.7524 11.4149 47.7524C11.2382 47.7524 11.0867 47.8186 10.9605 47.9512C10.8406 48.0774 10.7302 48.2825 10.6292 48.5665L9.50258 51.5582C9.27537 52.1641 9.05762 52.6406 8.84934 52.9877C8.64107 53.3348 8.42648 53.581 8.20558 53.7261C7.99099 53.8776 7.748 53.9533 7.47661 53.9533C7.32513 53.9533 7.20206 53.9186 7.10739 53.8492C7.01272 53.7798 6.96538 53.682 6.96538 53.5557C6.96538 53.4484 7.00009 53.3632 7.06952 53.3001C7.13263 53.2433 7.21153 53.2149 7.3062 53.2149C7.38825 53.2149 7.45452 53.2244 7.50501 53.2433C7.5555 53.2686 7.61546 53.3001 7.68488 53.338C7.75431 53.3759 7.80796 53.4043 7.84583 53.4232C7.89001 53.4421 7.94681 53.4516 8.01623 53.4516C8.16771 53.4516 8.30656 53.3885 8.43279 53.2622C8.56533 53.136 8.70418 52.9246 8.84934 52.6279C8.99451 52.3376 9.16807 51.9242 9.37004 51.3877L7.90263 48.4245C7.75747 48.1468 7.64702 47.967 7.57128 47.8849C7.49554 47.7965 7.39771 47.7524 7.2778 47.7524C7.26517 47.7524 7.25886 47.7334 7.25886 47.6956C7.25886 47.6577 7.26517 47.6388 7.2778 47.6388L7.62808 47.6482C7.71013 47.6545 7.82374 47.6577 7.9689 47.6577L8.58426 47.6482C8.67894 47.6419 8.80832 47.6388 8.97242 47.6388C8.98504 47.6388 8.99135 47.6577 8.99135 47.6956C8.99135 47.7334 8.98504 47.7524 8.97242 47.7524C8.80201 47.7524 8.67262 47.7681 8.58426 47.7997C8.4959 47.8313 8.45172 47.8849 8.45172 47.9606C8.45172 48.0111 8.4675 48.0648 8.49906 48.1216L9.70139 50.5925L10.402 48.5855C10.4524 48.4214 10.4777 48.2951 10.4777 48.2068C10.4777 48.049 10.4209 47.9354 10.3073 47.866C10.2 47.7902 10.0296 47.7524 9.79606 47.7524C9.78344 47.7524 9.77712 47.7334 9.77712 47.6956C9.77712 47.6577 9.78344 47.6388 9.79606 47.6388C9.96647 47.6388 10.0959 47.6419 10.1842 47.6482L10.7522 47.6577L11.112 47.6482C11.1751 47.6419 11.2761 47.6388 11.4149 47.6388Z" fill="#14141C"/>
<path d="M15.7759 51.2931C15.7633 51.2931 15.757 51.2741 15.757 51.2363C15.757 51.1984 15.7633 51.1795 15.7759 51.1795C15.9463 51.1795 16.0725 51.1637 16.1546 51.1321C16.2366 51.1006 16.2903 51.0406 16.3155 50.9523C16.3471 50.8576 16.3629 50.7156 16.3629 50.5262V48.4245C16.3629 48.1784 16.3376 48.0143 16.2871 47.9322C16.2366 47.8439 16.1293 47.7997 15.9652 47.7997C15.4603 47.7997 15.1732 48.1563 15.1037 48.8695C15.0974 48.8821 15.0753 48.8884 15.0375 48.8884C15.0059 48.8884 14.9901 48.8821 14.9901 48.8695L14.9712 48.2541C14.9586 48.0017 14.9523 47.8218 14.9523 47.7145C14.9523 47.6766 14.9554 47.6545 14.9617 47.6482C14.968 47.6356 14.9901 47.6293 15.028 47.6293C15.1542 47.6293 15.2678 47.6324 15.3688 47.6388L16.6563 47.6482L17.9628 47.6388C18.0701 47.6324 18.1932 47.6293 18.332 47.6293C18.3699 47.6293 18.392 47.6356 18.3983 47.6482C18.4046 47.6545 18.4078 47.6766 18.4078 47.7145C18.4078 47.8218 18.4015 48.0017 18.3888 48.2541L18.3699 48.8695C18.3699 48.8821 18.351 48.8884 18.3131 48.8884C18.2752 48.8884 18.2563 48.8821 18.2563 48.8695C18.1869 48.1563 17.8997 47.7997 17.3948 47.7997C17.2307 47.7997 17.1234 47.8439 17.0729 47.9322C17.0287 48.0143 17.0066 48.1784 17.0066 48.4245V50.5262C17.0066 50.7156 17.0192 50.8576 17.0445 50.9523C17.076 51.0406 17.1297 51.1006 17.2054 51.1321C17.2875 51.1637 17.4106 51.1795 17.5747 51.1795C17.5936 51.1795 17.6031 51.1984 17.6031 51.2363C17.6031 51.2741 17.5936 51.2931 17.5747 51.2931C17.4106 51.2931 17.2812 51.2899 17.1865 51.2836L16.6942 51.2741L16.183 51.2836C16.0883 51.2899 15.9526 51.2931 15.7759 51.2931Z" fill="#14141C"/>
<path d="M23.4231 46.4364C23.4231 46.6763 23.483 46.8877 23.6029 47.0707C23.7228 47.2475 23.868 47.4021 24.0384 47.5346C24.2088 47.6608 24.4455 47.8155 24.7485 47.9985C25.064 48.1942 25.3133 48.3646 25.4964 48.5097C25.6857 48.6486 25.8466 48.8222 25.9792 49.0304C26.1117 49.2387 26.178 49.4849 26.178 49.7689C26.178 50.0781 26.0959 50.359 25.9319 50.6114C25.7741 50.8576 25.5437 51.0532 25.2407 51.1984C24.9441 51.3373 24.597 51.4067 24.1994 51.4067C23.9469 51.4067 23.6976 51.3751 23.4515 51.312C23.2053 51.2552 22.9907 51.17 22.8077 51.0564C22.7761 51.0375 22.754 51.0154 22.7414 50.9901C22.7288 50.9649 22.7225 50.927 22.7225 50.8765L22.6278 49.5227C22.6215 49.4975 22.6341 49.4817 22.6657 49.4754C22.7036 49.4691 22.7256 49.4785 22.732 49.5038C22.8834 49.9835 23.0949 50.3905 23.3663 50.725C23.6376 51.0596 23.9911 51.2268 24.4266 51.2268C24.7232 51.2268 24.9694 51.1479 25.165 50.9901C25.367 50.826 25.468 50.561 25.468 50.1949C25.468 49.9172 25.4048 49.6742 25.2786 49.4659C25.1524 49.2576 24.9978 49.0841 24.8147 48.9452C24.638 48.8001 24.3982 48.636 24.0952 48.4529C23.7986 48.2636 23.5619 48.1026 23.3852 47.9701C23.2148 47.8313 23.0696 47.664 22.9497 47.4684C22.8298 47.2664 22.7698 47.0329 22.7698 46.7678C22.7698 46.4459 22.855 46.1714 23.0254 45.9441C23.2022 45.7169 23.4294 45.5497 23.7071 45.4424C23.9911 45.3288 24.2877 45.272 24.597 45.272C25.0198 45.272 25.4017 45.3446 25.7425 45.4897C25.8372 45.5276 25.8845 45.5844 25.8845 45.6601L25.9319 46.8435C25.9319 46.8688 25.9161 46.8845 25.8845 46.8909C25.853 46.8972 25.834 46.8877 25.8277 46.8625C25.7583 46.5216 25.61 46.1998 25.3828 45.8968C25.1555 45.5875 24.8337 45.4329 24.4171 45.4329C24.1015 45.4329 23.8554 45.5276 23.6787 45.7169C23.5083 45.9063 23.4231 46.1461 23.4231 46.4364Z" fill="#14141C"/>
<path d="M31.849 50.4884C31.849 50.6903 31.8743 50.8387 31.9248 50.9333C31.9753 51.0217 32.0699 51.0848 32.2088 51.1227C32.354 51.1605 32.5843 51.1795 32.8999 51.1795C32.9188 51.1795 32.9283 51.1984 32.9283 51.2363C32.9283 51.2741 32.9188 51.2931 32.8999 51.2931C32.6411 51.2931 32.4392 51.2899 32.294 51.2836L31.4704 51.2741L30.8171 51.2836C30.6972 51.2899 30.5331 51.2931 30.3248 51.2931C30.3122 51.2931 30.3059 51.2741 30.3059 51.2363C30.3059 51.1984 30.3122 51.1795 30.3248 51.1795C30.552 51.1795 30.7161 51.1637 30.8171 51.1321C30.9244 51.1006 30.997 51.0406 31.0349 50.9523C31.0727 50.8576 31.0917 50.7156 31.0917 50.5262V46.143C31.0917 45.9536 31.0727 45.8148 31.0349 45.7264C30.997 45.638 30.9244 45.5781 30.8171 45.5465C30.7161 45.5087 30.552 45.4897 30.3248 45.4897C30.3122 45.4897 30.3059 45.4708 30.3059 45.4329C30.3059 45.395 30.3122 45.3761 30.3248 45.3761L30.8171 45.3856C31.0822 45.3982 31.2968 45.4045 31.4609 45.4045C31.6124 45.4045 31.7922 45.395 32.0005 45.3761C32.0763 45.3761 32.193 45.373 32.3508 45.3666C32.5149 45.354 32.6569 45.3477 32.7768 45.3477C33.3701 45.3477 33.8466 45.4803 34.2064 45.7453C34.5661 46.0041 34.746 46.3986 34.746 46.9287C34.746 47.339 34.6418 47.6861 34.4336 47.9701C34.2316 48.2541 33.9697 48.4656 33.6478 48.6044C33.3322 48.7433 33.004 48.8127 32.6632 48.8127C32.4802 48.8127 32.3287 48.7969 32.2088 48.7654C32.1899 48.7654 32.1804 48.7496 32.1804 48.718C32.1804 48.6991 32.1835 48.6801 32.1899 48.6612C32.2025 48.6423 32.2151 48.636 32.2277 48.6423C32.3287 48.6675 32.4423 48.6801 32.5685 48.6801C32.9409 48.6801 33.2565 48.5444 33.5153 48.2731C33.774 48.0017 33.9034 47.6104 33.9034 47.0991C33.9034 46.6005 33.7772 46.2124 33.5247 45.9347C33.2723 45.6507 32.9378 45.5087 32.5212 45.5087C32.3319 45.5087 32.1899 45.5244 32.0952 45.556C32.0068 45.5812 31.9437 45.6412 31.9058 45.7359C31.868 45.8242 31.849 45.9662 31.849 46.1619V50.4884Z" fill="#14141C"/>
<path d="M44.602 51.1795C44.6272 51.1795 44.6398 51.1984 44.6398 51.2363C44.6398 51.2741 44.6272 51.2931 44.602 51.2931C44.482 51.2931 44.2895 51.2868 44.0245 51.2741C43.772 51.2615 43.5858 51.2552 43.4659 51.2552C43.3207 51.2552 43.1409 51.2615 42.9263 51.2741C42.7117 51.2868 42.5507 51.2931 42.4434 51.2931C42.4182 51.2931 42.4056 51.2741 42.4056 51.2363C42.4056 51.1984 42.4182 51.1795 42.4434 51.1795C42.658 51.1795 42.8127 51.1605 42.9073 51.1227C43.002 51.0785 43.0493 51.0028 43.0493 50.8955C43.0493 50.7882 43.002 50.6398 42.9073 50.4505L41.847 48.2541H40.1051L39.3288 50.0434C39.2404 50.2517 39.1962 50.4253 39.1962 50.5641C39.1962 50.9744 39.5023 51.1795 40.1145 51.1795C40.1461 51.1795 40.1619 51.1984 40.1619 51.2363C40.1619 51.2741 40.1461 51.2931 40.1145 51.2931C40.0009 51.2931 39.8368 51.2868 39.6222 51.2741C39.3824 51.2615 39.1741 51.2552 38.9974 51.2552C38.8333 51.2552 38.6377 51.2615 38.4104 51.2741C38.2085 51.2868 38.0444 51.2931 37.9182 51.2931C37.8929 51.2931 37.8803 51.2741 37.8803 51.2363C37.8803 51.1984 37.8929 51.1795 37.9182 51.1795C38.0949 51.1795 38.2432 51.1448 38.3631 51.0753C38.4893 51.0059 38.6093 50.886 38.7229 50.7156C38.8365 50.5452 38.9658 50.2927 39.111 49.9582L41.1275 45.3098C41.1338 45.2909 41.1559 45.2814 41.1938 45.2814C41.2317 45.2751 41.2537 45.2846 41.2601 45.3098L43.5416 49.9961C43.7562 50.4568 43.9393 50.7692 44.0907 50.9333C44.2422 51.0974 44.4126 51.1795 44.602 51.1795ZM40.1903 48.0364H41.7429L40.9287 46.3323L40.1903 48.0364Z" fill="#14141C"/>
</svg>
