<svg width="96" height="123" fill="none" xmlns="http://www.w3.org/2000/svg"><path d="M16.736 0h2.857l-4.159 16.725h-2.88L9.814 5.761 7.095 16.725h-2.88L.032 0h2.88l2.742 10.964L8.373 0h2.88l2.742 10.964L16.735 0zm15.168 2.788h-7.2v4.18h5.807v2.789h-5.808v4.18h7.201v2.811h-8.595v-.024h-1.394V0h9.989v2.788zm13.788 11.498a5.081 5.081 0 01-1.881 1.789 5.244 5.244 0 01-2.59.65h-6.064V0h5.715c.774 0 1.49.16 2.148.476.658.318 1.22.763 1.684 1.336.651.79.976 1.704.976 2.741 0 .59-.113 1.166-.337 1.732a4.162 4.162 0 01-.988 1.475 4.46 4.46 0 011.488 1.72 5.49 5.49 0 01.58 2.275 4.848 4.848 0 01-.731 2.531zM37.92 2.44v4.32h2.648c.14 0 .298-.015.476-.046.178-.03.322-.07.43-.117a1.89 1.89 0 00.93-.824c.216-.38.324-.77.324-1.173a2.32 2.32 0 00-.325-1.185 1.908 1.908 0 00-.929-.813 1.565 1.565 0 00-.5-.14 5.526 5.526 0 00-.522-.023H37.92v.001zm5.169 10.686c.255-.433.383-.898.383-1.393 0-.512-.128-.98-.383-1.405a2.272 2.272 0 00-1.127-.942 2.906 2.906 0 00-.708-.15 14.827 14.827 0 00-1.22-.035H37.92v5.087h2.114c.526 0 .937-.012 1.232-.034.294-.024.526-.074.697-.151.495-.218.87-.543 1.126-.977zM52.463 0v16.75h-2.788V0h2.788zm4.181 16.725V0h6.133c1.548 0 2.753.512 3.612 1.534s1.29 2.346 1.29 3.973c0 1.254-.252 2.346-.756 3.275-.503.93-1.22 1.587-2.149 1.975l2.905 5.97h-2.951l-2.718-5.575h-2.695v5.576h-2.67v-.003zm2.671-7.99h2.81c.9 0 1.584-.279 2.057-.837.472-.558.709-1.34.709-2.346 0-.991-.24-1.758-.72-2.3-.48-.542-1.161-.813-2.044-.813h-2.81v6.296h-.002zM77.435 0l5.11 16.725h-2.764l-1.37-4.53H72.65l-1.394 4.53h-2.764L73.602 0h3.833zm.117 9.408l-2.022-6.62-2.021 6.62h4.043zm12.73 7.317h-2.764V9.757L81.966 0h3.183l3.81 6.993L92.93 0h2.974l-5.622 9.757v6.968zM0 74.45c0 26.509 21.49 47.999 48 47.999s48-21.49 48-48c0-16.654-8.483-31.327-21.363-39.936l-2.093 68.684h-.01c.008.053.01.108.01.162 0 3.405-13.005 6.166-29.047 6.166-16.043 0-29.048-2.761-29.048-6.166 0-.055.003-.109.01-.162h-.01l.014-.022c.062-.45.353-.888.847-1.31l47.271-73.16A47.958 47.958 0 0048 26.45c-26.51 0-48 21.49-48 48z" fill="#6F6EFF"/><path d="M33.638 85.226v12.633h5.896v2.527H31.11v-15.16h2.527zm14.444 0l4.632 15.16H50.21l-1.243-4.106h-5.222l-1.263 4.106h-2.506l4.632-15.16h3.475zm.105 8.527l-1.832-6.001-1.833 6.001h3.665zm15.867 4.421a4.617 4.617 0 01-1.705 1.622c-.71.393-1.492.59-2.348.59h-5.496v-15.16h5.18c.702 0 1.35.144 1.947.431a4.412 4.412 0 011.527 1.212 3.79 3.79 0 01.884 2.484c0 .534-.102 1.057-.306 1.568a3.774 3.774 0 01-.895 1.338 4.037 4.037 0 011.348 1.558c.323.646.499 1.334.526 2.064a4.384 4.384 0 01-.662 2.293zM57.01 87.436v3.917h2.4c.126 0 .27-.014.432-.041a1.81 1.81 0 00.389-.105c.365-.155.646-.403.842-.747a2.12 2.12 0 00.295-1.064c0-.38-.098-.737-.295-1.075a1.728 1.728 0 00-.842-.736 1.431 1.431 0 00-.452-.126 4.924 4.924 0 00-.474-.022H57.01zm4.684 9.687c.232-.393.348-.814.348-1.264a2.43 2.43 0 00-.348-1.274 2.06 2.06 0 00-1.02-.853 2.616 2.616 0 00-.643-.137c-.232-.022-.6-.032-1.105-.032H57.01v4.611h1.916c.477 0 .85-.01 1.116-.032a1.94 1.94 0 00.632-.136 2.14 2.14 0 001.02-.883z" fill="#6F6EFF"/></svg>