<svg width="49" height="63" fill="none" xmlns="http://www.w3.org/2000/svg"><path d="M8.543 0H10L7.88 8.537H6.41l-1.4-5.596-1.386 5.596h-1.47L.017 0h1.47l1.4 5.596L4.273 0h1.47l1.4 5.596L8.543 0zm7.741 1.423H12.61v2.134h2.964V4.98H12.61v2.134h3.675v1.434h-4.387v-.012h-.711V0h5.098v1.423zm7.038 5.869a2.593 2.593 0 01-.96.913c-.4.221-.84.332-1.322.332h-3.095V0h2.917a2.48 2.48 0 011.956.925c.332.403.498.87.498 1.4 0 .3-.058.594-.172.883a2.12 2.12 0 01-.504.753c.324.222.577.514.759.877.182.364.28.752.296 1.162a2.475 2.475 0 01-.373 1.292zm-3.966-6.047V3.45h1.351a1.439 1.439 0 00.463-.083.965.965 0 00.474-.421 1.2 1.2 0 00.166-.599 1.18 1.18 0 00-.166-.605.974.974 0 00-.474-.414.798.798 0 00-.255-.071 2.82 2.82 0 00-.267-.013h-1.293v.001zm2.638 5.454c.13-.22.195-.458.195-.711 0-.261-.065-.5-.195-.717a1.158 1.158 0 00-.575-.48 1.483 1.483 0 00-.362-.078 7.566 7.566 0 00-.622-.017h-1.08v2.597h1.08c.268 0 .478-.007.628-.018a1.1 1.1 0 00.356-.077 1.21 1.21 0 00.575-.499zM26.778 0v8.55h-1.423V0h1.423zm2.134 8.537V0h3.13c.79 0 1.406.261 1.844.783.439.521.658 1.197.658 2.028 0 .64-.128 1.197-.385 1.672-.257.474-.623.81-1.097 1.008l1.483 3.047h-1.507l-1.387-2.846h-1.375v2.846h-1.364v-.001zm1.364-4.079h1.434c.459 0 .809-.142 1.05-.427.24-.285.362-.684.362-1.197 0-.506-.123-.897-.368-1.174-.245-.277-.593-.415-1.043-.415h-1.435v3.213zM39.524 0l2.609 8.537h-1.411l-.7-2.312h-2.94l-.711 2.312H34.96L37.568 0h1.956zm.06 4.802l-1.032-3.38-1.032 3.38h2.064zm6.497 3.735h-1.41V4.98L41.837 0h1.624l1.945 3.57L47.433 0h1.518l-2.87 4.98v3.557zM0 38c0 13.53 10.97 24.5 24.5 24.5S49 51.53 49 38c0-8.5-4.33-15.99-10.904-20.384l-1.068 35.057h-.005a.638.638 0 01.005.083c0 1.738-6.638 3.147-14.827 3.147-8.188 0-14.826-1.409-14.826-3.147a.77.77 0 01.005-.083h-.005l.007-.01c.032-.23.18-.454.432-.67l24.128-37.342A24.48 24.48 0 0024.5 13.5C10.97 13.5 0 24.47 0 38z" fill="#6F6EFF"/><path d="M17.17 43.501v6.448h3.009v1.29h-4.3v-7.738h1.29zm7.372-.001l2.364 7.739h-1.278l-.634-2.096h-2.666l-.645 2.096h-1.279l2.364-7.739h1.774zm.054 4.353l-.936-3.063-.935 3.063h1.87zm8.098 2.257a2.356 2.356 0 01-.87.827 2.44 2.44 0 01-1.198.302H27.82V43.5h2.643c.359 0 .69.074.994.22.305.148.565.354.78.619.3.366.45.788.45 1.268 0 .273-.052.54-.155.8a1.925 1.925 0 01-.457.683c.294.2.523.466.688.796.165.33.255.68.268 1.053-.006.429-.12.82-.338 1.17zM29.1 44.629v1.999h1.226a1.338 1.338 0 00.419-.075.875.875 0 00.43-.381 1.071 1.071 0 000-1.091.882.882 0 00-.43-.377.728.728 0 00-.231-.064 2.512 2.512 0 00-.242-.01H29.1v-.001zm2.392 4.944c.118-.2.177-.416.177-.645a1.24 1.24 0 00-.177-.65 1.052 1.052 0 00-.85-.506 6.861 6.861 0 00-.564-.016H29.1v2.354h.978c.244 0 .434-.006.57-.017a.99.99 0 00.322-.07c.23-.1.403-.25.521-.45z" fill="#6F6EFF"/></svg>