<svg width="49" height="63" viewBox="0 0 49 63" fill="none" xmlns="http://www.w3.org/2000/svg">
<path d="M8.54295 0H10.0011L7.87855 8.53691H6.40827L5.00964 2.94058L3.62255 8.53691H2.15226L0.0175781 0H1.48787L2.8871 5.59633L4.27419 0H5.74448L7.14371 5.59633L8.54295 0Z" fill="#6F6EFF"/>
<path d="M16.2844 1.42292H12.609V3.55699H15.5732V4.97991H12.609V7.11399H16.2844V8.54845H11.8972V8.5363H11.186V0H16.2844V1.42292V1.42292Z" fill="#6F6EFF"/>
<path d="M23.3219 7.29193C23.0808 7.67939 22.7608 7.98365 22.3618 8.20471C21.9628 8.42638 21.5219 8.53691 21.0397 8.53691H17.9448V0H20.8617C21.2571 0 21.6227 0.0813791 21.9585 0.242923C22.2944 0.405073 22.581 0.632206 22.8179 0.924928C23.15 1.32818 23.3158 1.79459 23.3158 2.32416C23.3158 2.62478 23.2581 2.91932 23.144 3.20779C23.0292 3.49626 22.8616 3.74708 22.6399 3.96085C22.9642 4.18252 23.2169 4.47463 23.399 4.83841C23.5806 5.20219 23.6796 5.58965 23.6954 6.00019C23.6875 6.47389 23.563 6.90508 23.3219 7.29193ZM19.3556 1.24498V3.45011H20.7075C20.7785 3.45011 20.8593 3.44221 20.9504 3.42642C21.0409 3.41063 21.1144 3.39059 21.1696 3.36691C21.3749 3.28006 21.5334 3.13977 21.6439 2.94604C21.7545 2.75231 21.8097 2.55312 21.8097 2.34724C21.8097 2.13408 21.7545 1.93245 21.6439 1.74236C21.5334 1.55288 21.3749 1.41442 21.1696 1.32757C21.0828 1.2881 20.9978 1.26441 20.9146 1.25652C20.8314 1.24862 20.7427 1.24437 20.6479 1.24437C20.5532 1.24437 20.4822 1.24437 20.4348 1.24437H19.3556V1.24498ZM21.9937 6.6992C22.1243 6.47814 22.1893 6.24068 22.1893 5.98804C22.1893 5.7269 22.1243 5.48823 21.9937 5.27081C21.8632 5.0534 21.6713 4.89368 21.4186 4.79043C21.3081 4.75096 21.1872 4.72545 21.0573 4.71331C20.9267 4.70116 20.7196 4.69569 20.4348 4.69569H19.3556V7.29254H20.4348C20.7032 7.29254 20.9127 7.28646 21.0633 7.27493C21.2133 7.26278 21.3318 7.23727 21.4192 7.1978C21.6719 7.08666 21.8632 6.92087 21.9937 6.6992Z" fill="#6F6EFF"/>
<path d="M26.778 0V8.54906H25.3551V0H26.778Z" fill="#6F6EFF"/>
<path d="M28.9124 8.53691V0H32.0424C32.8325 0 33.4477 0.261142 33.8862 0.782818C34.3247 1.30449 34.5445 1.98043 34.5445 2.81062C34.5445 3.45072 34.4158 4.00822 34.1589 4.48253C33.902 4.95684 33.5364 5.29268 33.0621 5.49066L34.5445 8.53812H33.0384L31.6513 5.69229H30.2758V8.53812H28.9124V8.53691ZM30.2758 4.45824H31.7102C32.1687 4.45824 32.5185 4.31613 32.7596 4.0313C33.0007 3.74647 33.1216 3.34747 33.1216 2.83369C33.1216 2.32781 32.9989 1.9367 32.7542 1.65977C32.5088 1.38344 32.1614 1.24498 31.7108 1.24498H30.2764V4.45824H30.2758Z" fill="#6F6EFF"/>
<path d="M39.5244 0L42.1327 8.53691H40.722L40.0223 6.22489H37.0818L36.3706 8.53691H34.9598L37.5682 0H39.5244ZM39.5839 4.80197L38.5521 1.42292L37.5202 4.80197H39.5839Z" fill="#6F6EFF"/>
<path d="M46.0814 8.53691H44.6706V4.97991L41.8369 0H43.4615L45.4061 3.56914L47.4332 0H48.9509L46.0814 4.97991V8.53691Z" fill="#6F6EFF"/>
<path d="M0 38C0 51.5309 10.9691 62.5 24.5 62.5C38.0309 62.5 49 51.5309 49 38C49 29.4992 44.6702 22.01 38.096 17.6158L37.0278 52.6732H37.023C37.0266 52.7006 37.0278 52.7286 37.0278 52.7559C37.0278 54.494 30.3897 55.9032 22.2014 55.9032C14.013 55.9032 7.37493 54.494 7.37493 52.7559C7.37493 52.728 7.37675 52.7006 7.37979 52.6732H7.37493L7.38222 52.6623C7.41383 52.4325 7.56217 52.2088 7.81447 51.9936L31.9424 14.6514C29.5951 13.9037 27.0947 13.5 24.5 13.5C10.9691 13.5 0 24.4691 0 38Z" fill="#6F6EFF"/>
<path d="M17.1694 43.501V49.9494H20.1786V51.2393H15.8795V43.501H17.1694Z" fill="#6F6EFF"/>
<path d="M24.5422 43.5002L26.9065 51.2385H25.6275L24.9935 49.1427H22.328L21.683 51.2385H20.4041L22.7683 43.5002H24.5422ZM24.5957 47.8528L23.6604 44.7896L22.7252 47.8528H24.5957Z" fill="#6F6EFF"/>
<path d="M32.6942 50.1096C32.4756 50.4606 32.1853 50.7369 31.8239 50.9373C31.462 51.1377 31.0624 51.2385 30.6257 51.2385H27.8206V43.5002H30.4642C30.8225 43.5002 31.1535 43.5737 31.4583 43.7207C31.7626 43.8677 32.0225 44.0735 32.2375 44.3389C32.5387 44.7045 32.6887 45.1272 32.6887 45.607C32.6887 45.8797 32.6365 46.1463 32.5326 46.4074C32.4288 46.6692 32.2764 46.8963 32.076 47.09C32.3699 47.2904 32.5988 47.5558 32.764 47.8856C32.9286 48.2154 33.0185 48.5664 33.0325 48.9387C33.0258 49.368 32.9128 49.7591 32.6942 50.1096ZM29.0995 44.6286V46.6279H30.3245C30.3889 46.6279 30.4623 46.6206 30.5449 46.6066C30.6269 46.5927 30.6937 46.5744 30.7435 46.5532C30.93 46.4742 31.0733 46.3473 31.1735 46.1718C31.2737 45.9963 31.3241 45.8153 31.3241 45.6289C31.3241 45.4351 31.2737 45.2529 31.1735 45.0805C31.0733 44.9086 30.93 44.7835 30.7435 44.7045C30.6646 44.6687 30.5874 44.6474 30.5127 44.6402C30.4374 44.6329 30.3567 44.6292 30.271 44.6292C30.1848 44.6292 30.1204 44.6292 30.0773 44.6292H29.0995V44.6286ZM31.4905 49.5727C31.6089 49.3723 31.6678 49.1573 31.6678 48.9277C31.6678 48.6915 31.6089 48.4747 31.4905 48.2773C31.3721 48.0806 31.1984 47.9354 30.9694 47.8419C30.8692 47.8061 30.7599 47.783 30.6415 47.772C30.5231 47.7611 30.3354 47.7556 30.0773 47.7556H29.0995V50.1096H30.0773C30.3208 50.1096 30.5109 50.1041 30.647 50.0932C30.783 50.0822 30.8905 50.0592 30.9694 50.0233C31.1984 49.9237 31.3721 49.7731 31.4905 49.5727Z" fill="#6F6EFF"/>
</svg>
