<svg width="162" height="476" viewBox="0 0 162 476" fill="none" xmlns="http://www.w3.org/2000/svg">
<g opacity="0.283">
<path opacity="0.283" d="M40 345.861H20C14.201 345.861 9.5 350.517 9.5 356.261C9.5 362.004 14.201 366.66 20 366.66H40C45.799 366.66 50.5 362.004 50.5 356.261C50.5 350.517 45.799 345.861 40 345.861Z" stroke="#6F6EFF" stroke-miterlimit="10"/>
</g>
<g filter="url(#filter0_d)">
<path d="M20 364.185C24.4183 364.185 28 360.637 28 356.261C28 351.885 24.4183 348.338 20 348.338C15.5817 348.338 12 351.885 12 356.261C12 360.637 15.5817 364.185 20 364.185Z" fill="#6F6EFF"/>
</g>
<path d="M47.229 336.826C47.1822 336.769 47.1185 336.727 47.0467 336.708C46.975 336.688 46.8988 336.692 46.829 336.717C46.4209 336.86 45.9909 336.931 45.558 336.929C44.7227 336.931 43.9089 336.666 43.2365 336.175C42.5641 335.685 42.0686 334.993 41.823 334.202C41.5774 333.411 41.5947 332.563 41.8723 331.783C42.1499 331.003 42.6732 330.331 43.365 329.867C43.4242 329.828 43.4699 329.771 43.4961 329.705C43.5222 329.639 43.5277 329.567 43.5117 329.498C43.4957 329.429 43.459 329.366 43.4064 329.318C43.3538 329.27 43.2878 329.239 43.217 329.229C43.0514 329.206 42.8843 329.195 42.717 329.197C41.7891 329.197 40.8772 329.437 40.072 329.894C39.2667 330.351 38.596 331.008 38.1264 331.801C37.6568 332.594 37.4045 333.494 37.3947 334.413C37.3849 335.332 37.6178 336.238 38.0704 337.04C38.523 337.842 39.1795 338.514 39.9748 338.987C40.7702 339.461 41.6767 339.72 42.6044 339.74C43.5322 339.759 44.449 339.538 45.2639 339.098C46.0788 338.659 46.7635 338.016 47.25 337.233C47.2894 337.171 47.3085 337.099 47.3047 337.026C47.301 336.953 47.2745 336.883 47.229 336.826Z" fill="#5E5E7B"/>
<path d="M24.991 335.858L23.775 334.198L24.991 332.538C25.0115 332.51 25.0247 332.477 25.0294 332.443C25.0341 332.408 25.0302 332.373 25.018 332.34C25.0096 332.308 24.9926 332.279 24.9689 332.255C24.9452 332.232 24.9155 332.215 24.883 332.207L22.91 331.564V329.516C22.9107 329.482 22.903 329.449 22.8877 329.418C22.8723 329.388 22.8498 329.362 22.822 329.342C22.794 329.321 22.7608 329.307 22.7256 329.302C22.6905 329.298 22.6547 329.302 22.622 329.316L20.649 329.945L19.433 328.285C19.4113 328.259 19.3843 328.239 19.3539 328.225C19.3236 328.211 19.2905 328.204 19.257 328.204C19.2235 328.204 19.1904 328.211 19.16 328.225C19.1297 328.239 19.1027 328.259 19.081 328.285L17.865 329.945L15.892 329.316C15.8593 329.302 15.8235 329.298 15.7883 329.302C15.7532 329.307 15.7199 329.321 15.692 329.342C15.6645 329.362 15.6422 329.388 15.627 329.419C15.6119 329.449 15.6043 329.482 15.605 329.516V331.564L13.632 332.207C13.5995 332.215 13.5697 332.232 13.546 332.255C13.5222 332.279 13.5053 332.308 13.497 332.34C13.4846 332.373 13.4806 332.408 13.4853 332.443C13.4901 332.477 13.5033 332.51 13.524 332.538L14.74 334.198L13.524 335.858C13.503 335.886 13.4895 335.919 13.4848 335.954C13.4801 335.989 13.4843 336.024 13.497 336.056C13.5053 336.089 13.5222 336.118 13.546 336.142C13.5697 336.165 13.5995 336.182 13.632 336.19L15.605 336.833V338.881C15.6043 338.915 15.6118 338.948 15.6269 338.979C15.6421 339.009 15.6644 339.035 15.692 339.055C15.7199 339.077 15.7532 339.091 15.7883 339.095C15.8235 339.1 15.8593 339.096 15.892 339.082L17.865 338.453L19.081 340.113C19.1015 340.14 19.1281 340.162 19.1586 340.177C19.1892 340.192 19.2228 340.2 19.257 340.2C19.2911 340.2 19.3248 340.192 19.3554 340.177C19.3859 340.162 19.4125 340.14 19.433 340.113L20.649 338.453L22.622 339.082C22.6547 339.096 22.6905 339.1 22.7256 339.095C22.7608 339.091 22.794 339.077 22.822 339.055C22.8499 339.036 22.8724 339.009 22.8878 338.979C22.9031 338.949 22.9107 338.915 22.91 338.881V336.826L24.883 336.183C24.9155 336.175 24.9453 336.158 24.969 336.135C24.9928 336.111 25.0097 336.082 25.018 336.049C25.0306 336.017 25.0347 335.982 25.03 335.947C25.0252 335.912 25.0118 335.88 24.991 335.851V335.858Z" fill="#5E5E7B"/>
<path d="M37 422L37.5 422L37.5 421.5L37 421.5L37 422ZM36.6464 475.354C36.8417 475.549 37.1583 475.549 37.3536 475.354L40.5355 472.172C40.7308 471.976 40.7308 471.66 40.5355 471.464C40.3403 471.269 40.0237 471.269 39.8284 471.464L37 474.293L34.1716 471.464C33.9763 471.269 33.6597 471.269 33.4645 471.464C33.2692 471.66 33.2692 471.976 33.4645 472.172L36.6464 475.354ZM20 422L19.5 422L19.5 422.5L20 422.5L20 422ZM36.5 422L36.5 475L37.5 475L37.5 422L36.5 422ZM19.5 373L19.5 422L20.5 422L20.5 373L19.5 373ZM20 422.5L37 422.5L37 421.5L20 421.5L20 422.5Z" fill="#FF8900"/>
<path d="M20 299L19.5 299L19.5 298.5L20 298.5L20 299ZM20.3536 322.354C20.1583 322.549 19.8417 322.549 19.6464 322.354L16.4645 319.172C16.2692 318.976 16.2692 318.66 16.4645 318.464C16.6597 318.269 16.9763 318.269 17.1716 318.464L20 321.293L22.8284 318.464C23.0237 318.269 23.3403 318.269 23.5355 318.464C23.7308 318.66 23.7308 318.976 23.5355 319.172L20.3536 322.354ZM40 299L40.5 299L40.5 299.5L40 299.5L40 299ZM20.5 299L20.5 322L19.5 322L19.5 299L20.5 299ZM40.5 286L40.5 299L39.5 299L39.5 286L40.5 286ZM40 299.5L20 299.5L20 298.5L40 298.5L40 299.5Z" fill="#FF8900"/>
<path d="M40 1L39.5 1L39.5 0.5L40 0.5L40 1ZM40.3536 237.354C40.1583 237.549 39.8417 237.549 39.6465 237.354L36.4645 234.172C36.2692 233.976 36.2692 233.66 36.4645 233.464C36.6598 233.269 36.9763 233.269 37.1716 233.464L40 236.293L42.8285 233.464C43.0237 233.269 43.3403 233.269 43.5356 233.464C43.7308 233.66 43.7308 233.976 43.5356 234.172L40.3536 237.354ZM40.5 1L40.5 237L39.5 237L39.5 1L40.5 1ZM162 1.5L40 1.5L40 0.5L162 0.499999L162 1.5Z" fill="#FF8900"/>
<g opacity="0.283">
<path opacity="0.283" d="M40 262.667H20C14.201 262.667 9.5 267.323 9.5 273.066C9.5 278.81 14.201 283.466 20 283.466H40C45.799 283.466 50.5 278.81 50.5 273.066C50.5 267.323 45.799 262.667 40 262.667Z" stroke="#6F6EFF" stroke-miterlimit="10"/>
</g>
<g filter="url(#filter1_d)">
<path d="M40 280.99C44.4183 280.99 48 277.443 48 273.067C48 268.691 44.4183 265.144 40 265.144C35.5817 265.144 32 268.691 32 273.067C32 277.443 35.5817 280.99 40 280.99Z" fill="#6F6EFF"/>
</g>
<path d="M47.229 253.632C47.1822 253.575 47.1185 253.534 47.0467 253.514C46.975 253.494 46.8988 253.498 46.829 253.523C46.4209 253.666 45.9909 253.738 45.558 253.735C44.7227 253.737 43.9089 253.473 43.2365 252.982C42.5641 252.491 42.0686 251.799 41.823 251.008C41.5774 250.217 41.5947 249.369 41.8723 248.589C42.1499 247.809 42.6732 247.137 43.365 246.674C43.4242 246.634 43.4699 246.577 43.4961 246.511C43.5222 246.445 43.5277 246.373 43.5117 246.304C43.4957 246.235 43.459 246.172 43.4064 246.124C43.3538 246.076 43.2878 246.045 43.217 246.035C43.0514 246.012 42.8843 246.002 42.717 246.003C41.7891 246.003 40.8772 246.243 40.072 246.7C39.2667 247.157 38.596 247.814 38.1264 248.607C37.6568 249.4 37.4045 250.3 37.3947 251.219C37.3849 252.138 37.6178 253.044 38.0704 253.846C38.523 254.649 39.1795 255.32 39.9748 255.793C40.7702 256.267 41.6767 256.526 42.6044 256.546C43.5322 256.565 44.449 256.344 45.2639 255.904C46.0788 255.465 46.7635 254.822 47.25 254.039C47.2894 253.977 47.3085 253.905 47.3047 253.832C47.301 253.759 47.2745 253.69 47.229 253.632Z" fill="#5E5E7B"/>
<path d="M24.991 252.664L23.775 251.004L24.991 249.344C25.0115 249.316 25.0247 249.283 25.0294 249.249C25.0341 249.214 25.0302 249.179 25.018 249.146C25.0096 249.114 24.9926 249.085 24.9689 249.061C24.9452 249.038 24.9155 249.021 24.883 249.013L22.91 248.37V246.321C22.9107 246.288 22.903 246.254 22.8877 246.224C22.8723 246.194 22.8498 246.168 22.822 246.148C22.794 246.127 22.7608 246.113 22.7256 246.108C22.6905 246.103 22.6547 246.108 22.622 246.121L20.649 246.75L19.433 245.09C19.4113 245.065 19.3843 245.045 19.3539 245.031C19.3236 245.017 19.2905 245.01 19.257 245.01C19.2235 245.01 19.1904 245.017 19.16 245.031C19.1297 245.045 19.1027 245.065 19.081 245.09L17.865 246.75L15.892 246.121C15.8593 246.108 15.8235 246.103 15.7883 246.108C15.7532 246.113 15.7199 246.127 15.692 246.148C15.6645 246.168 15.6422 246.194 15.627 246.224C15.6119 246.254 15.6043 246.288 15.605 246.321V248.37L13.632 249.013C13.5995 249.021 13.5697 249.037 13.546 249.061C13.5222 249.085 13.5053 249.114 13.497 249.146C13.4846 249.179 13.4806 249.214 13.4853 249.249C13.4901 249.283 13.5033 249.316 13.524 249.344L14.74 251.004L13.524 252.664C13.503 252.692 13.4895 252.725 13.4848 252.76C13.4801 252.794 13.4843 252.83 13.497 252.862C13.5053 252.895 13.5222 252.924 13.546 252.948C13.5697 252.971 13.5995 252.988 13.632 252.996L15.605 253.639V255.687C15.6043 255.721 15.6118 255.754 15.6269 255.785C15.6421 255.815 15.6644 255.841 15.692 255.861C15.7199 255.883 15.7532 255.897 15.7883 255.902C15.8235 255.906 15.8593 255.902 15.892 255.888L17.865 255.259L19.081 256.919C19.1015 256.946 19.1281 256.968 19.1586 256.983C19.1892 256.998 19.2228 257.006 19.257 257.006C19.2911 257.006 19.3248 256.998 19.3554 256.983C19.3859 256.968 19.4125 256.946 19.433 256.919L20.649 255.259L22.622 255.888C22.6547 255.902 22.6905 255.906 22.7256 255.902C22.7608 255.897 22.794 255.883 22.822 255.861C22.8499 255.842 22.8724 255.815 22.8878 255.785C22.9031 255.755 22.9107 255.721 22.91 255.687V253.632L24.883 252.989C24.9155 252.981 24.9453 252.964 24.969 252.941C24.9928 252.917 25.0097 252.888 25.018 252.855C25.0306 252.823 25.0347 252.788 25.03 252.753C25.0252 252.718 25.0118 252.685 24.991 252.657V252.664Z" fill="#5E5E7B"/>
<defs>
<filter id="filter0_d" x="0" y="336.338" width="40" height="39.8467" filterUnits="userSpaceOnUse" color-interpolation-filters="sRGB">
<feFlood flood-opacity="0" result="BackgroundImageFix"/>
<feColorMatrix in="SourceAlpha" type="matrix" values="0 0 0 0 0 0 0 0 0 0 0 0 0 0 0 0 0 0 127 0"/>
<feOffset/>
<feGaussianBlur stdDeviation="6"/>
<feColorMatrix type="matrix" values="0 0 0 0 0.435294 0 0 0 0 0.431373 0 0 0 0 1 0 0 0 0.502 0"/>
<feBlend mode="normal" in2="BackgroundImageFix" result="effect1_dropShadow"/>
<feBlend mode="normal" in="SourceGraphic" in2="effect1_dropShadow" result="shape"/>
</filter>
<filter id="filter1_d" x="20" y="253.144" width="40" height="39.8467" filterUnits="userSpaceOnUse" color-interpolation-filters="sRGB">
<feFlood flood-opacity="0" result="BackgroundImageFix"/>
<feColorMatrix in="SourceAlpha" type="matrix" values="0 0 0 0 0 0 0 0 0 0 0 0 0 0 0 0 0 0 127 0"/>
<feOffset/>
<feGaussianBlur stdDeviation="6"/>
<feColorMatrix type="matrix" values="0 0 0 0 0.435294 0 0 0 0 0.431373 0 0 0 0 1 0 0 0 0.502 0"/>
<feBlend mode="normal" in2="BackgroundImageFix" result="effect1_dropShadow"/>
<feBlend mode="normal" in="SourceGraphic" in2="effect1_dropShadow" result="shape"/>
</filter>
</defs>
</svg>
