<svg width="162" height="476" fill="none" xmlns="http://www.w3.org/2000/svg"><path opacity=".283" d="M40 345.861H20c-5.799 0-10.5 4.656-10.5 10.4 0 5.743 4.701 10.399 10.5 10.399h20c5.799 0 10.5-4.656 10.5-10.399 0-5.744-4.701-10.4-10.5-10.4z" stroke="#6F6EFF" stroke-miterlimit="10"/><g filter="url(#filter0_d)"><path d="M20 364.185c4.418 0 8-3.548 8-7.924s-3.582-7.923-8-7.923-8 3.547-8 7.923c0 4.376 3.582 7.924 8 7.924z" fill="#6F6EFF"/></g><path d="M47.229 336.826a.36.36 0 00-.4-.109 3.79 3.79 0 01-1.271.212 3.922 3.922 0 01-2.322-.754 3.858 3.858 0 01-1.413-1.973 3.827 3.827 0 01.05-2.419c.277-.78.8-1.452 1.492-1.916a.348.348 0 00.041-.549.354.354 0 00-.189-.089 3.344 3.344 0 00-.5-.032c-.928 0-1.84.24-2.645.697a5.298 5.298 0 00-1.946 1.907 5.234 5.234 0 00-.056 5.239 5.294 5.294 0 001.905 1.947 5.363 5.363 0 005.289.111 5.292 5.292 0 001.986-1.865.351.351 0 00-.021-.407zm-22.238-.968l-1.216-1.66 1.216-1.66a.21.21 0 00.027-.198.19.19 0 00-.05-.085.189.189 0 00-.085-.048l-1.973-.643v-2.048a.21.21 0 00-.088-.174.204.204 0 00-.2-.026l-1.973.629-1.216-1.66a.225.225 0 00-.176-.081.232.232 0 00-.176.081l-1.216 1.66-1.973-.629a.204.204 0 00-.104-.014.21.21 0 00-.096.04.208.208 0 00-.087.174v2.048l-1.973.643a.187.187 0 00-.135.133.211.211 0 00.027.198l1.216 1.66-1.216 1.66a.205.205 0 00-.027.198.186.186 0 00.135.134l1.973.643v2.048a.207.207 0 00.087.174.19.19 0 00.096.04.194.194 0 00.104-.013l1.973-.629 1.216 1.66a.219.219 0 00.176.087.224.224 0 00.176-.087l1.216-1.66 1.973.629a.193.193 0 00.104.013.19.19 0 00.096-.04.205.205 0 00.088-.174v-2.055l1.973-.643a.186.186 0 00.135-.134.204.204 0 00-.027-.198v.007z" fill="#5E5E7B"/><path d="M37 422h.5v-.5H37v.5zm-.354 53.354a.5.5 0 00.708 0l3.181-3.182a.501.501 0 00-.707-.708L37 474.293l-2.828-2.829a.5.5 0 00-.707.708l3.181 3.182zM20 422h-.5v.5h.5v-.5zm16.5 0v53h1v-53h-1zm-17-49v49h1v-49h-1zm.5 49.5h17v-1H20v1zM20 299h-.5v-.5h.5v.5zm.354 23.354a.5.5 0 01-.708 0l-3.181-3.182a.501.501 0 01.707-.708L20 321.293l2.828-2.829a.5.5 0 01.707.708l-3.181 3.182zM40 299h.5v.5H40v-.5zm-19.5 0v23h-1v-23h1zm20-13v13h-1v-13h1zm-.5 13.5H20v-1h20v1zM40 1h-.5V.5h.5V1zm.354 236.354a.5.5 0 01-.707 0l-3.182-3.182a.501.501 0 01.707-.708L40 236.293l2.828-2.829a.5.5 0 01.708.708l-3.182 3.182zM40.5 1v236h-1V1h1zm121.5.5H40v-1h122v1z" fill="#FF8900"/><path opacity=".283" d="M40 262.667H20c-5.799 0-10.5 4.656-10.5 10.399 0 5.744 4.701 10.4 10.5 10.4h20c5.799 0 10.5-4.656 10.5-10.4 0-5.743-4.701-10.399-10.5-10.399z" stroke="#6F6EFF" stroke-miterlimit="10"/><g filter="url(#filter1_d)"><path d="M40 280.99c4.418 0 8-3.547 8-7.923 0-4.376-3.582-7.923-8-7.923s-8 3.547-8 7.923c0 4.376 3.582 7.923 8 7.923z" fill="#6F6EFF"/></g><path d="M47.229 253.632a.36.36 0 00-.4-.109 3.765 3.765 0 01-1.271.212 3.921 3.921 0 01-2.322-.753 3.864 3.864 0 01-1.413-1.974 3.827 3.827 0 01.05-2.419 3.86 3.86 0 011.492-1.915.355.355 0 00.147-.37.351.351 0 00-.295-.269 3.482 3.482 0 00-.5-.032c-.928 0-1.84.24-2.645.697a5.298 5.298 0 00-1.946 1.907 5.234 5.234 0 00-.056 5.239 5.286 5.286 0 001.905 1.947 5.363 5.363 0 005.289.111 5.292 5.292 0 001.986-1.865.351.351 0 00-.021-.407zm-22.238-.968l-1.216-1.66 1.216-1.66a.21.21 0 00.027-.198.19.19 0 00-.05-.085.189.189 0 00-.085-.048l-1.973-.643v-2.049a.206.206 0 00-.088-.173.204.204 0 00-.2-.027l-1.973.629-1.216-1.66a.234.234 0 00-.352 0l-1.216 1.66-1.973-.629a.206.206 0 00-.104-.013.21.21 0 00-.096.04.208.208 0 00-.087.173v2.049l-1.973.643a.187.187 0 00-.135.133.211.211 0 00.027.198l1.216 1.66-1.216 1.66a.205.205 0 00-.027.198.186.186 0 00.135.134l1.973.643v2.048a.207.207 0 00.087.174.201.201 0 00.096.041c.035.004.071 0 .104-.014l1.973-.629 1.216 1.66a.219.219 0 00.176.087.224.224 0 00.176-.087l1.216-1.66 1.973.629a.204.204 0 00.104.014.202.202 0 00.096-.041.205.205 0 00.088-.174v-2.055l1.973-.643a.186.186 0 00.135-.134.204.204 0 00-.027-.198v.007z" fill="#5E5E7B"/><defs><filter id="filter0_d" x="0" y="336.338" width="40" height="39.847" filterUnits="userSpaceOnUse" color-interpolation-filters="sRGB"><feFlood flood-opacity="0" result="BackgroundImageFix"/><feColorMatrix in="SourceAlpha" values="0 0 0 0 0 0 0 0 0 0 0 0 0 0 0 0 0 0 127 0"/><feOffset/><feGaussianBlur stdDeviation="6"/><feColorMatrix values="0 0 0 0 0.435294 0 0 0 0 0.431373 0 0 0 0 1 0 0 0 0.502 0"/><feBlend in2="BackgroundImageFix" result="effect1_dropShadow"/><feBlend in="SourceGraphic" in2="effect1_dropShadow" result="shape"/></filter><filter id="filter1_d" x="20" y="253.144" width="40" height="39.847" filterUnits="userSpaceOnUse" color-interpolation-filters="sRGB"><feFlood flood-opacity="0" result="BackgroundImageFix"/><feColorMatrix in="SourceAlpha" values="0 0 0 0 0 0 0 0 0 0 0 0 0 0 0 0 0 0 127 0"/><feOffset/><feGaussianBlur stdDeviation="6"/><feColorMatrix values="0 0 0 0 0.435294 0 0 0 0 0.431373 0 0 0 0 1 0 0 0 0.502 0"/><feBlend in2="BackgroundImageFix" result="effect1_dropShadow"/><feBlend in="SourceGraphic" in2="effect1_dropShadow" result="shape"/></filter></defs></svg>