<svg width="39" height="39" fill="none" xmlns="http://www.w3.org/2000/svg"><path d="M26.831 29.791l-1.707-3.015v-5.58a.681.681 0 00-.68-.68H15.39a.681.681 0 00-.68.68v5.58l-1.707 3.015c-.185.327-.03.592.345.592h13.137c.376 0 .53-.265.345-.592zm-1.104-.088h-3.77l-.372-.776a.471.471 0 00-.39-.245h-2.45c-.15 0-.325.11-.39.245l-.372.776H14.11c-.15 0-.212-.107-.138-.238l1.004-1.773a.516.516 0 01.406-.236h9.073a.52.52 0 01.407.236l1.003 1.773c.074.131.013.238-.138.238z" fill="#6F6EFF"/><path d="M0 19.5C0 30.27 8.73 39 19.5 39S39 30.27 39 19.5c0-5.524-1.883-13.294-9.46-16.827L28.682 30.9h-.004c.003.02.004.042.004.063 0 1.316-5.025 2.383-11.223 2.383S6.234 32.279 6.234 30.963l.003-.063h-.003l.005-.008c.024-.174.136-.343.327-.506L25.576.966A19.492 19.492 0 0019.5 0C8.73 0 0 8.73 0 19.5z" fill="#6F6EFF"/></svg>