<svg width="45" height="45" fill="none" xmlns="http://www.w3.org/2000/svg"><path d="M44.167 33.384H.007v1.935a2.612 2.612 0 002.366 2.797h39.428a2.612 2.612 0 002.366-2.797v-1.935zM8.682 20.846a3.95 3.95 0 00-3.155 3.864c.004.444.084.885.237 1.303l2.918-1.75v-3.417zm-2.106 6.52a3.905 3.905 0 005.065.63l-2.293-2.292-2.772 1.662zm21.031 12.326h-11.04v1.578h11.04v-1.578zM10.259 20.846v3.537l2.497 2.497a3.936 3.936 0 00-2.497-6.034zm22.079 22.001H11.836c-.871 0-1.577.706-1.577 1.577h23.657c0-.871-.707-1.577-1.578-1.577zm7.097-32.331h-1.577v2.366h1.577v-2.366z" fill="#6F6EFF"/><path d="M.008 31.807h44.16V3.06A2.61 2.61 0 0041.802.265H2.374A2.61 2.61 0 00.008 3.06v28.747zm9.463-1.577a5.52 5.52 0 115.52-5.52 5.526 5.526 0 01-5.52 5.52zm5.52-13.696a1.093 1.093 0 01-1.104 1.079H5.055a1.09 1.09 0 01-1.104-1.076v-6.021a.789.789 0 011.577 0v5.52h7.886v-5.52a.789.789 0 011.577 0v6.018zm5.52-13.904a.789.789 0 011.577 0v9.463a.79.79 0 00.789.789h.788V4.207c0-.87.706-1.577 1.577-1.577h1.578c.87 0 1.577.706 1.577 1.577v8.675h1.577V7.936c0-.753.61-1.363 1.364-1.364h2.003c.753 0 1.363.611 1.364 1.364v4.945h1.577v-2.7c0-.686.557-1.243 1.244-1.243h2.244c.687 0 1.243.557 1.244 1.243v2.7a.789.789 0 010 1.577H22.876a2.366 2.366 0 01-2.365-2.366V2.63zm0 15.771a.789.789 0 111.577 0v5.983l1.482-1.482a2.423 2.423 0 013.346 0l.923.924a.789.789 0 001.115 0l3.29-3.29a2.423 2.423 0 013.345 0l.924.924a.789.789 0 001.115 0l2.828-2.827a.789.789 0 011.115 1.115l-2.828 2.828a2.37 2.37 0 01-3.345 0l-.924-.925a.805.805 0 00-1.115 0l-3.29 3.29a2.366 2.366 0 01-3.345 0l-.924-.924a.805.805 0 00-1.115 0l-2.597 2.596v1.251c0 .436.353.789.789.789h18.137a.789.789 0 010 1.577H22.875a2.366 2.366 0 01-2.365-2.366v-9.463zM2.637 7.563L3.95 6.386V4.602a.789.789 0 011.577 0v.372l3.174-2.839a1.162 1.162 0 011.524-.012l6.08 5.441a.788.788 0 01-1.053 1.174L9.471 3.562 3.689 8.738a.789.789 0 01-1.052-1.175z" fill="#6F6EFF"/><path d="M33.127 8.15H31.55v4.732h1.577V8.15zm-6.308-3.943H25.24v8.675h1.578V4.207z" fill="#6F6EFF"/></svg>