<svg width="39" height="39" fill="none" xmlns="http://www.w3.org/2000/svg"><path d="M0 19.5C0 30.27 8.73 39 19.499 39a19.5 19.5 0 0010.82-35.724l-.845 27.902v.067c0 1.383-5.283 2.505-11.8 2.505-6.518 0-11.8-1.122-11.8-2.503v-.075a.886.886 0 01.344-.532L25.428.917A19.498 19.498 0 0019.501 0C8.733 0 0 8.73 0 19.5z" fill="#6F6EFF"/><path fill-rule="evenodd" clip-rule="evenodd" d="M12.657 27.23s3.19 3.787 7.124 3.787c3.934 0 7.123-3.788 7.123-3.788s-3.189-3.62-7.123-3.62c-3.933 0-7.124 3.62-7.124 3.62zm3.968.128a2.818 2.818 0 012.819-2.817 2.818 2.818 0 11-2.819 2.817z" fill="#6F6EFF"/><path d="M21.042 27.311a1.56 1.56 0 11-3.118-.001 1.56 1.56 0 013.118.001z" fill="#6F6EFF"/></svg>