<svg width="41" height="46" fill="none" xmlns="http://www.w3.org/2000/svg"><path d="M5.628 45.586H26.53v-1.608h-1.608a3.216 3.216 0 01-3.216-3.216V20.664a3.216 3.216 0 013.216-3.216h1.608v-1.607H5.628v29.745zm7.235-24.922c0-.444.36-.804.804-.804h4.824c.444 0 .803.36.803.804v1.608c0 .444-.36.804-.803.804h-4.824a.804.804 0 01-.804-.804v-1.608zm-5.628-2.412a.804.804 0 111.608 0v1.608a.804.804 0 11-1.608 0v-1.608zm0 4.824a.804.804 0 011.608 0v20.098a.804.804 0 01-1.608 0V23.076zM.804 11.188V40.9c0 .213.085.418.235.57l2.98 2.98V15.18L0 4.27v2.356c0 1.899.804 2.34.804 4.561z" fill="#6F6EFF"/><path d="M27.736 35.135a1.206 1.206 0 100-2.412 1.206 1.206 0 000 2.412zm-6.167-24.118L18.904 3.78H4.96l2.665 7.236h13.943zM14.235 4.82a.804.804 0 010 1.137l-4.02 4.02A.804.804 0 019.08 8.84l4.02-4.02a.804.804 0 011.136 0zM7.471 6.429L9.079 4.82a.804.804 0 111.136 1.137L8.608 7.566A.804.804 0 017.47 6.429z" fill="#6F6EFF"/><path d="M26.18 14.233L21.143.566H.35l5.036 13.667H26.18zM3.807 2.173h15.657c.336 0 .637.21.754.527l3.258 8.843a.804.804 0 01-.754 1.082H7.066a.804.804 0 01-.755-.526L3.055 3.256a.804.804 0 01.752-1.082zm19.507 18.491v20.098c0 .888.72 1.608 1.608 1.608h7.235V19.056h-7.235c-.888 0-1.608.72-1.608 1.608zm4.421 10.451A2.814 2.814 0 0129.7 35.94a2.814 2.814 0 11-3.927 0 2.814 2.814 0 011.963-4.824z" fill="#6F6EFF"/><path d="M27.736 39.155a1.206 1.206 0 100-2.412 1.206 1.206 0 000 2.412zm6.029-20.099h2.412V42.37h-2.412V19.056zm6.431 21.706V20.664c0-.888-.72-1.608-1.607-1.608h-.804V42.37h.804c.888 0 1.607-.72 1.607-1.608z" fill="#6F6EFF"/></svg>