<svg width="39" height="39" fill="none" xmlns="http://www.w3.org/2000/svg"><path d="M0 19.5C0 30.276 8.735 39 19.5 39S39 30.265 39 19.5c0-6.77-3.444-12.73-8.681-16.228l-.842 27.91v.066c0 1.382-5.28 2.504-11.802 2.504-6.521 0-11.801-1.122-11.801-2.505v-.075c.021-.184.14-.356.345-.53L25.428.919A19.51 19.51 0 0019.5 0C8.735 0 0 8.724 0 19.5z" fill="#6F6EFF"/><path d="M27.181 22.596a1.12 1.12 0 00-1.117-1.112h-2.098c.276.32.445.736.447 1.19l.02 3.812a1.13 1.13 0 01-.895 1.112v2.94a.567.567 0 101.134 0V26.01h.244v4.53a.567.567 0 101.134 0c0-7.5-.01-3.196-.01-7.95a.099.099 0 11.197 0v.012l.018 3.469c0 .26.212.47.472.47h.002a.472.472 0 00.47-.475l-.018-3.469zM24.8 21.172a.98.98 0 100-1.958.98.98 0 000 1.958z" fill="#6F6EFF"/><path d="M23.82 26.49l-.019-3.813a1.23 1.23 0 00-1.228-1.221h-2.8c.313.342.504.796.507 1.292l.02 4.108c.002.4-.197.754-.502.967v3.582a.623.623 0 101.245 0v-4.977h.27v4.977a.623.623 0 001.244 0c0-8.236-.01-3.518-.01-8.725a.109.109 0 01.216 0v.003l.02 3.811a.519.519 0 001.037-.005zm-5.476-5.055h-3.001c-.726 0-1.32.59-1.324 1.316L14 26.86a.559.559 0 00.543.561h.016a.56.56 0 00.56-.555l.02-4.108a.108.108 0 01.216 0v9.4a.671.671 0 001.342 0v-5.364h.29v5.363a.671.671 0 101.341 0c0-2.4-.011-6.886-.012-9.399a.117.117 0 01.234 0l.02 4.108a.56.56 0 00.56.556h.003a.56.56 0 00.556-.562l-.02-4.108a1.327 1.327 0 00-1.324-1.316zm-1.496-.37a1.16 1.16 0 10-.001-2.319 1.16 1.16 0 00.001 2.32zm4.337.048a1.076 1.076 0 10-.001-2.152 1.076 1.076 0 000 2.152z" fill="#6F6EFF"/></svg>