<svg width="39" height="39" fill="none" xmlns="http://www.w3.org/2000/svg"><path d="M0 19.5C0 30.276 8.735 39 19.5 39S39 30.265 39 19.5c0-6.77-3.444-12.73-8.681-16.228l-.842 27.91v.066c0 1.382-5.28 2.504-11.802 2.504-6.521 0-11.801-1.122-11.801-2.505v-.075c.021-.184.14-.356.345-.53L25.428.919A19.51 19.51 0 0019.5 0C8.735 0 0 8.724 0 19.5z" fill="#6F6EFF"/><path d="M25.147 24.132h-2.311V22.61c0-.67-.82-1.026-1.306-.54l-3.056 3.056a.756.756 0 000 1.08l1.749 1.748-2.127 2.128a.756.756 0 000 1.08.756.756 0 001.08 0l2.667-2.668a.756.756 0 000-1.08l-1.75-1.748 1.21-1.21v.443a.77.77 0 00.766.767h3.078a.77.77 0 00.766-.767.77.77 0 00-.766-.767zm-5.129-3.876a.755.755 0 00-.96.097l-2.106 2.095a.756.756 0 000 1.08.756.756 0 001.08 0l1.651-1.653.562.4.745-.745c.13-.13.27-.227.432-.292l-1.404-.982z" fill="#6F6EFF"/><path d="M17.945 26.734a1.476 1.476 0 01-.389-.691L13.53 30.07a.756.756 0 000 1.08.756.756 0 001.08 0l3.876-3.876-.54-.54zm5.269-4.891a1.144 1.144 0 100-2.289 1.144 1.144 0 000 2.29z" fill="#6F6EFF"/></svg>