<svg width="61" height="45" fill="none" xmlns="http://www.w3.org/2000/svg"><path d="M40.48 37.649l-6.228-5.904H5.902V5.903h38.293v3.562l2.073-2.074a5.05 5.05 0 013.595-1.49c.079 0 .154.019.232.023v-.897A5.032 5.032 0 0045.07 0H5.025A5.033 5.033 0 000 5.027v27.595a5.033 5.033 0 005.025 5.027H40.48z" fill="#6F6EFF"/><path d="M59.669 19.167l-4.501-4.498-16.076 16.08 4.497 4.496a1.139 1.139 0 001.62 0l14.46-14.457a1.145 1.145 0 000-1.621zm-10.617-8.994L34.594 24.629a1.145 1.145 0 000 1.622l1.826 1.827L52.5 12l-1.829-1.827a1.13 1.13 0 00-.809-.336c-.294 0-.587.111-.81.336zM30.37 39.428H19.33v1.577h11.04v-1.577zm4.731 3.154H14.599c-.872 0-1.578.706-1.578 1.577h23.657c0-.87-.706-1.577-1.577-1.577z" fill="#6F6EFF"/></svg>