<svg width="71" height="46" fill="none" xmlns="http://www.w3.org/2000/svg"><path fill-rule="evenodd" clip-rule="evenodd" d="M67.645 31.85c.052-.052.097-.103.139-.16.205-.031.599-.084.954-.306.371-.228.707-.636.865-1.034.16-.393.145-.77.047-1.157-.097-.387-.283-.785-.494-1.03a1.26 1.26 0 00-.552-.36 2.405 2.405 0 00-.241-.49 3.77 3.77 0 00-.047-.637 3.04 3.04 0 00-.48-1.193 2.128 2.128 0 00-.69-.62c-.073-.15-.15-.29-.237-.415a2.171 2.171 0 00-.402-.428c.114-.078.236-.165.372-.27a9 9 0 001.323-1.282c.47-.547.954-1.215 1.176-1.802.216-.584.175-1.085-.01-1.463-.176-.372-.486-.63-.852-.848a1.255 1.255 0 00-.078-.191c-.18-.378-.499-.637-.881-.857-.366-.212-.794-.393-1.257-.41.21-.185.427-.35.635-.489.448-.306.87-.5 1.14-.776.263-.273.37-.625.39-1.018.026-.397-.035-.837-.185-1.157a1.337 1.337 0 00-.707-.65l-.108-.048a1.65 1.65 0 00-.12-.336c-.149-.32-.39-.517-.706-.656-.309-.134-.685-.212-1.257-.217a8.675 8.675 0 00-1.953.197 5.02 5.02 0 00-1.5.6c-.089.056-.17.114-.248.165a1.898 1.898 0 00-.896-.988l-.016-.01-.016-.031a1.907 1.907 0 00-.902-.998c-.444-.237-1.068-.373-1.695-.367-.63.01-1.262.16-1.82.345-.551.18-1.02.393-1.278.604-.258.211-.305.428-.336.517-.03.092-.046.062-.257-.12a3.67 3.67 0 00-1.201-.722c-.588-.207-1.346-.279-2.242-.145a8.903 8.903 0 00-2.763.935c-.81.45-1.386.992-1.814 1.477l-.03.036a4.204 4.204 0 00-.253.192 2.166 2.166 0 00-1.03-1.308 2.087 2.087 0 00-.654-.853 2.765 2.765 0 00-1.556-.559c-.603-.03-1.273.125-1.795.306-.524.18-.901.398-1.242.745-.16.164-.314.356-.458.568a2.621 2.621 0 00-.738.531c-.344.35-.644.837-.963 1.324-.175.269-.355.531-.524.775a1.65 1.65 0 00-.128-.016 3.205 3.205 0 00-.763.098c-.175.047-.35.108-.516.186a4.519 4.519 0 00-.236-.971c-.16-.454-.402-1.002-.805-1.421a2.46 2.46 0 00-.452-.373 3.063 3.063 0 00-.474-.661c-.403-.418-.963-.71-1.798-.874a7.896 7.896 0 00-2.18-.119c.38-.35.746-.687 1.081-.987a55.168 55.168 0 012.056-1.772l.052.02c.341.114 1.027.309 1.67.242a2.877 2.877 0 001.618-.76l.108-.108a2.929 2.929 0 001.428-.734c.372-.356.505-.734.577-1.162.067-.423.067-.894-.092-1.297-.138-.35-.402-.656-.901-.962a.573.573 0 01-.026-.072c-.16-.403-.48-.74-1.123-1.09-.644-.346-1.612-.713-2.494-.926-.876-.211-1.664-.273-2.483-.16-.815.113-1.665.402-2.566.92-.902.517-1.856 1.26-2.994 2.314l-.505.48a73.57 73.57 0 00-.69.62 48.591 48.591 0 00-3.598 3.763c-.788.926-1.5 1.835-2.036 2.553a6.652 6.652 0 00-1.334-1.663A6.492 6.492 0 0016.49 8.64c-.789-.662-1.892-1.282-3.082-1.655-1.19-.372-2.464-.495-3.757-.387-1.298.103-2.613.44-3.545.926A4.636 4.636 0 004.531 8.85c-.707.45-1.154.998-1.515 1.554-.413.657-.701 1.324-.83 1.855a3.086 3.086 0 00-.077.424 1.718 1.718 0 00-.83.97 1.532 1.532 0 00-.443.17 1.69 1.69 0 00-.804 1.122c-.098.5.041 1.095.258 1.518.164.315.371.537.551.687a2.243 2.243 0 00.294.476 1.24 1.24 0 00-.366.47c-.155.342-.196.873-.047 1.436.125.453.372.929.788 1.29.192.387.49.754.918 1.018.613.378 1.49.548 2.231.523.747-.02 1.35-.233 1.737-.47.236-.145.39-.295.515-.45a5.32 5.32 0 00.489-.14c.34.187.721.373 1.268.537.707.212 1.69.393 2.447.434.314.017.593.006.824-.016a3.178 3.178 0 00-.078.6 2.84 2.84 0 00.433 1.5c.134.216.3.417.489.6.03.055.067.113.103.17.288.464.71.862 1.231 1.12.525.259 1.144.378 1.757.398.613.025 1.22-.052 1.706-.284a2.98 2.98 0 00.818-.614c.228-.042.439-.104.635-.192.067.078.15.18.253.309.488.626 1.478 1.911 2.854 3.457a70.168 70.168 0 004.736 4.77c1.581 1.435 2.973 2.516 4.771 3.751 1.795 1.24 3.99 2.636 6.375 3.705 2.386 1.074 4.963 1.819 7.545 2.341 2.588.527 5.174.827 7.504.874 2.324.047 4.385-.165 6.174-.59 1.79-.428 3.304-1.065 4.442-1.788.052-.03.097-.061.144-.089.51-.236.974-.49 1.392-.748 1.144-.723 1.917-1.53 2.427-2.356.505-.826.747-1.68.888-2.453.133-.776.164-1.472.066-2.156-.097-.687-.324-1.354-.515-1.824a7.52 7.52 0 00-.422-.89l-.022-.017zM9.305 12.434c-.129.325-.176.729-.176 1.132 0 .45.062.904.392 1.432l.03.047c.191.164.38.325.577.464.6.434 1.19.71 1.768.88l.144.046c-.072-.258-.15-.522-.233-.79-.236-.765-.54-1.586-.89-2.206a1.946 1.946 0 00-.103-.18 3.046 3.046 0 00-.413-.362 2.523 2.523 0 00-1.005-.44c-.03-.009-.061-.02-.092-.023zm34.924 14.844c-.263.15-.56.278-.846.356a3.733 3.733 0 01-.458.342 3.925 3.925 0 01-1.118.512l-.15.03-.02.026a2.92 2.92 0 01-1.242.728c-.077.02-.155.036-.232.053-.02.02-.042.036-.062.056a2.86 2.86 0 01-1.242.728 2.834 2.834 0 01-1.726-.088c-.56-.223-1.046-.646-1.288-1.101-.02-.047-.047-.089-.06-.134a2.264 2.264 0 01-.531-.64 1.798 1.798 0 01-.114-1.374 2.18 2.18 0 01.686-1.06c.216-.18.458-.284.629-.356.036-.078.078-.15.119-.217-.18.155-.366.273-.582.345a2.085 2.085 0 01-.969.078 1.381 1.381 0 01-.242-.061 3.62 3.62 0 01-1.045.45c-.12.12-.27.242-.45.361-.36.243-.86.454-1.375.537 1.994 1.675 4.474 3.68 6.612 5.23a49.362 49.362 0 006.061 3.798c1.762.935 3.354 1.649 4.83 2.052 1.478.403 2.843.49 4.158.506 1.32.017 2.591-.041 3.828-.361.985-.253 1.948-.676 2.7-1.18a4.259 4.259 0 00.721-1.518c.206-.776.222-1.55-.066-2.264a2.703 2.703 0 00-.217-.433 11.4 11.4 0 00-1.031-.957 16.288 16.288 0 00-4.123-2.506c-1.825-.77-4.144-1.36-6.153-1.658a28.766 28.766 0 00-4.566-.284 8.17 8.17 0 00-.436.004z" fill="#1A1B1B"/><path opacity=".3" fill-rule="evenodd" clip-rule="evenodd" d="M68.237 32.733c.052-.053.097-.103.138-.161.206-.03.6-.083.954-.306.372-.227.707-.636.866-1.034.16-.392.144-.77.047-1.157-.098-.387-.283-.785-.494-1.029a1.259 1.259 0 00-.552-.361 2.432 2.432 0 00-.242-.49c0-.176-.005-.393-.047-.637a3.037 3.037 0 00-.48-1.193 2.129 2.129 0 00-.69-.62c-.072-.15-.15-.29-.236-.414a2.177 2.177 0 00-.402-.429c.113-.078.236-.164.371-.27a8.941 8.941 0 001.324-1.281c.469-.548.954-1.215 1.176-1.803.216-.584.174-1.085-.011-1.462-.175-.373-.485-.631-.851-.848a1.257 1.257 0 00-.078-.192c-.18-.378-.5-.636-.882-.857-.366-.212-.793-.392-1.257-.409a6.11 6.11 0 01.635-.49c.45-.305.871-.5 1.14-.775.263-.273.371-.626.391-1.018.025-.398-.036-.837-.186-1.157a1.337 1.337 0 00-.707-.651c-.036-.017-.072-.031-.108-.047a1.64 1.64 0 00-.119-.337c-.15-.32-.391-.517-.707-.656-.308-.134-.685-.211-1.257-.217a8.67 8.67 0 00-1.953.197 5.017 5.017 0 00-1.5.6c-.088.057-.17.114-.247.165a1.897 1.897 0 00-.896-.987l-.017-.011-.016-.03a1.907 1.907 0 00-.901-.999c-.444-.237-1.068-.372-1.695-.367-.63.011-1.263.161-1.82.345-.552.181-1.02.393-1.278.604-.258.212-.305.429-.336.517-.03.093-.047.062-.258-.119a3.672 3.672 0 00-1.2-.723c-.589-.206-1.346-.279-2.242-.145a8.906 8.906 0 00-2.763.935 6.8 6.8 0 00-1.814 1.477l-.03.036a4.207 4.207 0 00-.253.192 2.165 2.165 0 00-1.03-1.307 2.084 2.084 0 00-.655-.854 2.765 2.765 0 00-1.556-.558c-.602-.031-1.273.124-1.794.305-.525.181-.902.398-1.243.745-.16.165-.313.356-.458.568-.283.14-.52.31-.737.531-.345.351-.644.838-.963 1.324-.175.27-.355.532-.525.776a1.711 1.711 0 00-.128-.017 3.202 3.202 0 00-.763.098c-.175.047-.35.108-.516.186a4.523 4.523 0 00-.236-.97c-.16-.455-.402-1.002-.804-1.422a2.464 2.464 0 00-.453-.372 3.066 3.066 0 00-.474-.662c-.402-.418-.963-.709-1.798-.873a7.892 7.892 0 00-2.18-.12c.38-.35.747-.687 1.082-.987.871-.785 1.55-1.36 2.056-1.772l.052.02c.34.114 1.026.31 1.67.242a2.877 2.877 0 001.617-.759l.109-.108a2.929 2.929 0 001.428-.735c.371-.356.505-.734.577-1.162.067-.423.067-.893-.092-1.296-.139-.351-.402-.657-.902-.962a.588.588 0 01-.025-.073c-.16-.403-.48-.74-1.123-1.09-.644-.345-1.613-.712-2.494-.926-.877-.211-1.665-.273-2.483-.16-.816.113-1.665.403-2.567.92-.901.517-1.855 1.26-2.993 2.314l-.505.481c-.222.197-.453.403-.69.62a48.59 48.59 0 00-3.598 3.763 52.22 52.22 0 00-2.036 2.553 6.652 6.652 0 00-1.335-1.664 6.49 6.49 0 00-1.107-1.193C16.294 8.86 15.19 8.24 14 7.869c-1.19-.373-2.463-.496-3.756-.387-1.299.103-2.613.439-3.545.925a4.636 4.636 0 00-1.577 1.324c-.706.45-1.154.998-1.514 1.555-.413.656-.702 1.323-.83 1.855a3.087 3.087 0 00-.077.423 1.718 1.718 0 00-.83.97 1.567 1.567 0 00-.444.17c-.371.212-.706.62-.804 1.122-.097.5.042 1.096.258 1.518.164.315.372.537.552.688a2.239 2.239 0 00.294.476 1.24 1.24 0 00-.366.47c-.155.34-.197.872-.047 1.435a2.6 2.6 0 00.788 1.29c.191.388.489.755.918 1.019.613.377 1.49.547 2.23.522.747-.02 1.351-.233 1.737-.47.236-.145.391-.295.516-.45.175-.042.34-.089.489-.14.34.187.72.373 1.267.538.707.211 1.69.392 2.447.434.314.016.594.005.825-.017a3.171 3.171 0 00-.078.6 2.832 2.832 0 00.433 1.5c.133.216.3.417.488.6.031.056.067.114.103.17.289.464.71.862 1.232 1.12.525.26 1.143.379 1.756.398.613.026 1.221-.052 1.706-.283.341-.165.619-.409.819-.615.227-.042.438-.103.635-.192.066.078.15.181.252.31.489.625 1.479 1.91 2.855 3.456a70.17 70.17 0 004.735 4.77c1.582 1.436 2.974 2.517 4.772 3.752 1.794 1.24 3.989 2.636 6.375 3.704 2.385 1.074 4.962 1.82 7.545 2.342 2.587.526 5.173.826 7.503.873 2.325.047 4.386-.164 6.175-.59 1.789-.428 3.303-1.064 4.441-1.788.053-.03.098-.061.145-.088.51-.237.973-.49 1.392-.749 1.143-.723 1.917-1.53 2.427-2.355.505-.827.746-1.68.887-2.454.134-.776.164-1.472.067-2.155-.097-.687-.325-1.355-.516-1.825a7.515 7.515 0 00-.422-.89l-.021-.017zM9.894 13.314c-.128.326-.175.729-.175 1.132 0 .45.061.904.391 1.432l.031.047c.191.165.38.326.577.465.599.434 1.19.709 1.767.879.047.016.098.03.145.047a29.03 29.03 0 00-.233-.79c-.236-.765-.541-1.586-.89-2.206a1.946 1.946 0 00-.104-.181 3.037 3.037 0 00-.412-.362 2.522 2.522 0 00-1.005-.44c-.03-.006-.061-.017-.092-.023zM44.819 28.16c-.264.15-.561.279-.846.356a3.73 3.73 0 01-.458.342 3.928 3.928 0 01-1.118.512l-.15.03-.02.026c-.288.278-.71.584-1.242.729-.078.02-.155.036-.233.052-.02.02-.041.036-.061.056-.288.284-.71.584-1.242.729a2.835 2.835 0 01-1.726-.089c-.561-.222-1.046-.645-1.288-1.101-.02-.047-.047-.089-.061-.134a2.263 2.263 0 01-.53-.64c-.242-.46-.242-.945-.114-1.374a2.19 2.19 0 01.685-1.06 2.45 2.45 0 01.63-.356c.036-.077.077-.15.119-.217-.18.156-.366.273-.583.346-.308.108-.69.124-.968.077a1.365 1.365 0 01-.242-.061c-.288.186-.654.35-1.046.45-.119.12-.268.242-.449.362-.36.242-.86.454-1.376.537 1.995 1.674 4.474 3.68 6.613 5.229 2.355 1.71 4.294 2.862 6.061 3.798 1.762.935 3.354 1.65 4.83 2.052 1.478.404 2.843.49 4.158.507 1.32.016 2.591-.042 3.828-.362.985-.253 1.948-.676 2.7-1.179a4.255 4.255 0 00.721-1.519c.206-.775.222-1.549-.067-2.263a2.699 2.699 0 00-.216-.434 11.37 11.37 0 00-1.032-.957 16.285 16.285 0 00-4.122-2.505c-1.825-.77-4.144-1.36-6.153-1.659a28.766 28.766 0 00-4.566-.283 8.05 8.05 0 00-.436.003z" fill="#1A1B1B"/><path fill-rule="evenodd" clip-rule="evenodd" d="M7.449 20.37c.422.241.85.486 1.55.697.707.212 1.69.392 2.448.434.757.036 1.287-.072 1.53-.108.242-.037.197-.006.093.242a3.46 3.46 0 00-.284 1.224c-.005.5.145 1.034.433 1.493.289.465.71.857 1.237 1.116.521.259 1.144.381 1.757.403.613.025 1.215-.052 1.706-.29.485-.232.846-.63 1.026-.847.186-.223.186-.27.674.356.494.62 1.479 1.911 2.855 3.457a70.168 70.168 0 004.735 4.77c1.582 1.435 2.98 2.511 4.772 3.751 1.798 1.24 3.994 2.637 6.38 3.705 2.386 1.074 4.963 1.819 7.545 2.341 2.582.523 5.174.827 7.498.874 2.325.047 4.386-.165 6.175-.595 1.789-.423 3.303-1.06 4.447-1.783 1.143-.723 1.917-1.53 2.422-2.356.51-.826.752-1.68.887-2.453.139-.77.17-1.472.067-2.156-.098-.681-.325-1.354-.51-1.824a6.967 6.967 0 00-.428-.89c-.083-.144-.097-.16.097-.186.2-.03.608-.077.98-.305.37-.228.706-.64.865-1.034.155-.398.139-.776.041-1.163-.097-.387-.277-.781-.488-1.029a1.27 1.27 0 00-.599-.378c-.144-.047-.191-.047-.2-.211-.005-.17.025-.5-.042-.899-.072-.392-.236-.848-.48-1.188a2.168 2.168 0 00-.887-.723 3.732 3.732 0 00-.854-.264c-.197-.041-.258-.041-.114-.139.144-.098.489-.295.891-.61a9.29 9.29 0 001.329-1.281c.469-.548.954-1.215 1.17-1.8.222-.583.175-1.09-.005-1.467-.18-.382-.5-.637-.882-.857-.377-.223-.815-.403-1.293-.409-.48-.01-.99.155-1.406.372-.417.212-.738.47-.96.64-.216.176-.34.27-.386.284-.041.017-.01-.047.186-.341.197-.3.56-.827.974-1.302.416-.47.887-.879 1.334-1.183.45-.305.871-.5 1.14-.775.263-.273.371-.62.391-1.018.02-.392-.036-.837-.19-1.152-.15-.32-.392-.517-.702-.656-.314-.134-.691-.212-1.257-.217a8.697 8.697 0 00-1.959.197 5.02 5.02 0 00-1.5.6c-.372.228-.613.454-.727.553-.113.098-.097.073-.133-.2-.042-.273-.128-.79-.314-1.219-.18-.423-.453-.76-.896-.992-.45-.237-1.071-.373-1.7-.368-.63.011-1.263.161-1.82.342-.552.186-1.02.398-1.279.61-.258.211-.305.423-.335.517-.026.092-.042.061-.258-.12a3.671 3.671 0 00-1.201-.723c-.583-.206-1.34-.284-2.242-.145a8.69 8.69 0 00-2.757.935c-.815.445-1.387.993-1.82 1.477a8.503 8.503 0 00-.87 1.158c-.155.242-.17.305-.175.263-.011-.036-.011-.175-.011-.564 0-.381 0-1.023-.128-1.544-.128-.528-.38-.934-.783-1.245a2.765 2.765 0 00-1.556-.56c-.602-.03-1.273.126-1.794.306-.525.181-.902.393-1.243.745-.34.351-.644.838-.963 1.324-.319.486-.649.97-.923 1.296-.274.326-.485.496-.608.559-.119.056-.15.01-.314.005-.17-.005-.474.02-.768.098a2.852 2.852 0 00-.84.367c-.258.165-.485.378-.743.59-.258.21-.547.428-.758.614-.21.192-.35.356-.452.501-.108.145-.186.27-.242.259-.061-.006-.108-.145-.144-.248-.041-.109-.072-.181.005-.228.078-.047.258-.062.495-.17.232-.103.52-.3.732-.517a1.6 1.6 0 00.432-.745c.083-.3.114-.682.092-1.054a4.366 4.366 0 00-.258-1.193c-.16-.454-.402-1.002-.804-1.421-.402-.414-.963-.704-1.794-.874-.835-.164-1.942-.211-2.885-.016-.949.2-1.737.64-2.428 1.224-.69.584-1.278 1.313-1.742 1.974a14.79 14.79 0 00-1.076 1.808c-.278.554-.505 1.07-.613 1.619-.103.548-.089 1.126-.083 1.399.01.273.01.242-.278-.108-.288-.346-.866-1.018-1.129-1.36-.269-.342-.222-.356.294-.904s1.5-1.622 2.984-3.106a139.782 139.782 0 014.927-4.67c1.454-1.308 2.375-2.036 2.84-2.387.458-.345.458-.315.805-.2.34.113 1.02.308 1.664.241a2.935 2.935 0 001.623-.759c.372-.356.505-.74.572-1.162.072-.429.072-.9-.089-1.302-.16-.398-.48-.734-1.123-1.085-.644-.345-1.612-.712-2.489-.926-.881-.211-1.67-.273-2.488-.16-.815.113-1.665.402-2.566.92-.902.517-1.856 1.26-2.994 2.314a48.591 48.591 0 00-3.597 3.762 52.444 52.444 0 00-2.644 3.38c-.53.74-.619.904-.665.965-.047.056-.047.016-.145-.253a9.38 9.38 0 00-.63-1.343 6.85 6.85 0 00-1.591-1.953c-.788-.662-1.892-1.282-3.082-1.654-1.19-.373-2.464-.496-3.757-.387-1.293.103-2.613.439-3.545.925C4.9 9.11 4.352 9.75 3.94 10.4c-.416.65-.706 1.323-.835 1.855-.128.531-.097.925-.097 1.12 0 .196-.03.198-.252.207-.217.005-.63.02-1 .237a1.71 1.71 0 00-.804 1.12c-.097.502.042 1.096.258 1.52.222.422.525.681.732.82.2.134.309.15.233.233-.078.09-.335.237-.485.58-.15.34-.197.872-.047 1.435.155.564.5 1.151 1.113 1.535.613.378 1.495.547 2.236.522.743-.02 1.35-.233 1.73-.47.394-.228.564-.486.728-.745zm5.875-2.563a36.768 36.768 0 00-.588-2.18c-.236-.76-.541-1.582-.89-2.206-.345-.62-.744-1.043-1.104-1.313a2.54 2.54 0 00-1.01-.44c-.309-.066-.599-.097-.871.006a1.347 1.347 0 00-.707.698c-.164.346-.222.79-.222 1.246 0 .45.056.91.391 1.432.336.522.938 1.116 1.537 1.55.598.433 1.19.708 1.767.878.579.174 1.136.252 1.697.33zm35.282 4.987c-.011-.026.097-.056.185-.134a.969.969 0 00.192-.27c.036-.068.046-.072.055.011.011.09.02.273.02.373.006.103.006.128-.025.128-.03.006-.088-.01-.186-.03-.097-.022-.232-.047-.241-.078zm4.988-5.332c.241.02.48.047.69.016a1.03 1.03 0 00.572-.278c.186-.165.371-.414.469-.543.097-.128.113-.139.016.125a74.39 74.39 0 01-.474 1.219c-.17.428-.305.745-.408.962-.103.216-.17.341-.232.403-.056.067-.103.072-.15.016-.042-.056-.072-.18-.15-.465-.077-.284-.19-.74-.258-1.007-.061-.273-.065-.361-.075-.448zm7.23 6.965c-.006.453-.017.914-.078 1.312-.067.398-.186.74-.242.904-.052.161-.036.145.041-.016.072-.156.211-.46.386-.729.175-.273.386-.506.619-.672.227-.161.48-.253.593-.29.114-.041.092-.025-.03-.036a2.513 2.513 0 01-.572-.134c-.233-.081-.474-.211-.718-.34zm-34.61-1.277c1.381 1.26 2.757 2.522 4.835 4.283 2.077 1.763 4.849 4.025 7.204 5.735 2.355 1.71 4.294 2.863 6.06 3.8 1.763.934 3.355 1.648 4.835 2.051 1.474.403 2.84.49 4.153.507 1.32.016 2.592-.048 3.829-.362 1.232-.32 2.433-.899 3.226-1.577a4.21 4.21 0 001.392-2.222c.206-.776.222-1.55-.066-2.264-.29-.712-.877-1.368-1.84-2.164a16.036 16.036 0 00-4.122-2.506c-1.825-.77-4.144-1.36-6.148-1.658a29.717 29.717 0 00-4.571-.289c-.86.01-.891.025-1.026.145-.14.124-.38.35-.707.564a3.963 3.963 0 01-1.124.511c-.386.098-.746.098-.926.098-.186 0-.186 0-.258.128-.078.129-.233.387-.516.668a2.963 2.963 0 01-1.243.728c-.53.145-1.17.129-1.73-.088-.558-.223-1.041-.646-1.285-1.107-.247-.454-.247-.94-.119-1.374a2.19 2.19 0 01.685-1.054c.294-.242.63-.35.788-.423.156-.078.145-.125.156-.387.016-.27.06-.754.124-1.085.061-.336.133-.517.164-.595.03-.078.016-.047-.133.134-.155.186-.438.517-.707.785-.264.264-.505.459-.819.567a2.084 2.084 0 01-.968.078c-.278-.047-.458-.155-.583-.191-.119-.037-.18-.011-.335.164-.15.175-.392.495-.815.776-.428.284-1.032.528-1.629.564-.598.036-1.19-.128-1.684-.326-.489-.197-.887-.428-1.232-.775a4.59 4.59 0 01-.84-1.215c-.191-.398-.269-.713-.314-.854-.047-.133-.056-.092-.21-.02-.15.067-.439.161-.711.201-.276.049-.534.049-.79.049z" fill="url(#paint0_linear)"/><path fill-rule="evenodd" clip-rule="evenodd" d="M47.904 24.42c2.922 0 5.84.564 8.74 1.68 2.902 1.12 5.247 2.536 7.036 4.246 1.794 1.71 2.685 3.39 2.685 5.034 0 2.33-1.062 4.066-3.196 5.214-2.128 1.146-4.926 1.721-8.394 1.721-9.477 0-17.954-3.456-25.432-10.37-2.628-2.418-5.67-5.866-9.112-10.344a322.87 322.87 0 00-2.278-2.926c0 .125-.01.223-.036.295 0 .32-.036.82-.103 1.504-.041.253-.083.532-.119.848-.03.315-.052.481-.052.496.186.284.272.609.272.965 0 .362-.119.667-.355.93-.236.258-.505.386-.799.386-.546 0-.907-.32-1.087-.965 0-.217.072-.631.222-1.235.144-.61.216-1.132.216-1.56 0-1.36-.092-2.626-.289-3.788a15.099 15.099 0 00-.948-3.332c-.444-1.054-1.082-1.886-1.922-2.495-.84-.61-1.835-.915-2.994-.915-1.36 0-2.339.378-2.938 1.132a3.96 3.96 0 00-.901 2.547c0 1.363.571 2.598 1.716 3.71 1.146 1.112 2.624 1.88 4.438 2.309.273 0 .486-.036.644-.109l.067-.025c.072 0 .103.025.103.083 0 .089-.047.15-.134.187-1.226 0-2.319-.192-3.282-.579-.963-.381-1.72-.884-2.277-1.504-.558-.62-.969-1.255-1.243-1.922a5.247 5.247 0 01-.407-1.984c0-.434.056-.857.17-1.276.113-.423.33-.884.648-1.385.314-.5.835-.91 1.562-1.224.727-.31 1.609-.47 2.655-.47 1.134 0 2.138.222 3.025.662.882.439 1.582.97 2.092 1.596.51.626.933 1.338 1.273 2.133.341.802.567 1.508.68 2.14.114.625.17 1.198.17 1.715v.134c.727-.712 1.778-1.927 3.16-3.638 1.386-1.71 2.643-3.265 3.777-4.66a32.281 32.281 0 013.69-3.856c1.323-1.173 2.416-1.813 3.278-1.922.16-.016.377-.025.65-.025.834 0 1.58.156 2.24.454.66.306 1.022.631 1.088.97v.053c0 .234-.17.403-.51.512-.227-.61-.702-.868-1.428-.781-1.04.125-3.468 1.963-7.277 5.518-3.808 3.555-6.333 6.194-7.58 7.91.473.414 1.536 1.436 3.178 3.065a575.963 575.963 0 004.91 4.811c1.635 1.577 3.634 3.349 6.004 5.317 2.366 1.97 4.633 3.68 6.797 5.132a38.37 38.37 0 006.952 3.68c2.474 1 4.726 1.503 6.766 1.503 3.4 0 6.169-.609 8.297-1.838 2.127-1.224 3.195-3.06 3.195-5.493 0-.951-.427-1.97-1.293-3.065-.86-1.09-2.067-2.128-3.617-3.115-1.551-.982-3.587-1.803-6.103-2.454-2.519-.656-5.251-.981-8.194-.981a9.549 9.549 0 00-3.52.661c-.402.306-.732.46-.995.46h-.017c-1.067.553-1.711 1.09-1.933 1.618-.02.056-.103.083-.236.083-.092 0-.16-.047-.206-.134v-.083c0-.052.047-.134.14-.242a8.316 8.316 0 011.866-1.324c-.422-.206-.635-.795-.635-1.766 0-.2.03-.409.088-.637.056-.222.108-.439.15-.656.025-.145.067-.409.124-.79l.217-1.519c.047-.32.088-.656.119-1.007.036-.35.072-.687.102-1.023.036-.331.062-.626.089-.884.02-.259.047-.46.066-.604.047-.197.053-.367.017-.512a1.899 1.899 0 01-.053-.378c0-.16-.02-.237-.066-.237-.089-.036-.278.098-.561.404-.283.3-.63.744-1.035 1.327a71.424 71.424 0 00-1.392 2.082c-.525.807-1.057 1.7-1.598 2.687a2.033 2.033 0 01-.242.145c-.113.061-.17.114-.17.15-.18.145-.324.211-.437.211l-.927-.976c-1.18 1.571-2.087 2.361-2.716 2.361-.66 0-1.201-.62-1.634-1.855-.427-1.182-.644-2.49-.644-3.921v-.512c-1.473 2.367-2.596 3.544-3.365 3.544-.726 0-1.087-.367-1.087-1.101 0-1.97.608-3.669 1.834-5.106 1.22-1.432 2.447-2.145 3.675-2.145 1.176 0 1.88.946 2.108 2.848-.932-.842-1.794-1.265-2.588-1.265-.815 0-1.644.547-2.48 1.638-.84 1.06-1.261 1.98-1.261 2.77 0 .5.227.748.68.748.452 0 1.34-1.08 2.654-3.25.16-.771.452-1.21.887-1.313.133-.02.133.17 0 .564.02.573.078 1.126.164 1.663.092.537.216 1.065.377 1.586.34 1.018.69 1.783 1.057 2.283.36.501.654.749.882.749.308 0 .696-.27 1.154-.807a2.194 2.194 0 01.092-1.354 4.487 4.487 0 01.83-1.435c.34-.382.674-.61 1.004-.682.18-.042.308 0 .391.12l.083-.125a6.08 6.08 0 01.386-.548c0 .294-.125.698-.366 1.218 0 .176.01.357.03.554.02.227.047.428.067.62a8.188 8.188 0 01.069.765c.139-.32.36-.724.665-1.21.309-.486.635-.982.985-1.494.355-.506.707-1.001 1.056-1.471.35-.476.65-.884.902-1.224a46.12 46.12 0 001.071-1.463c.236-.35.547-.526.933-.526.16 0 .263.025.304.083.047.053.14.125.273.212.113.092.164.236.155.444-.01.208-.017.481-.017.821 0 .378-.025.848-.072 1.421a41.15 41.15 0 01-.17 1.789c-.066.62-.133 1.224-.2 1.83-.066.6-.113 1.095-.138 1.487a.931.931 0 00.036.445.778.778 0 01.067.278c0 .487.113.73.34.73.14 0 .35-.09.65-.26.294-.164.566-.433.815-.79.324-.397.818-1.07 1.478-2.02.164-1.585.758-2.986 1.79-4.19 1.226-1.432 2.446-2.15 3.675-2.15 1.179 0 1.88.951 2.108 2.848-.927-.843-1.795-1.26-2.588-1.26-.815 0-1.64.547-2.48 1.638-.84 1.06-1.257 1.98-1.257 2.764 0 .506.227.754.68.754.453 0 1.335-1.085 2.65-3.25.16-.771.452-1.21.887-1.319.133-.016.133.17 0 .564a12.664 12.664 0 00.541 3.25c.34 1.025.695 1.784 1.056 2.285.36.5.655.754.882.754.366 0 .83-.367 1.396-1.101.16-.197.3-.387.422-.565l.36-.511c.109-.176.237-.373.386-.584a32.29 32.29 0 00.974-2.848c0-.072.025-.175.072-.31.042-.133.056-.227.03-.283a.535.535 0 01-.102-.228.59.59 0 00-.067-.2c-.113-.501-.283-.843-.51-1.024a6.677 6.677 0 01-.34-.832v-.133c0-.176.046-.331.138-.454.294-.217.768-.367 1.428-.454.114-.02.247.062.408.253.16.186.272.373.34.548.048.18.067.306.067.378 0 .197-.077.512-.236.94l.17.486.17.915c.046.176.21.49.488.935.283.45.449.754.494.915.593-.806.943-1.282 1.057-1.421.608-.843 1.257-1.504 1.938-1.989.18-.145.458-.264.83-.362.377-.097.68-.155.923-.16.236-.011.377-.006.422.01v.134c-.205 0-.644.242-1.323.729-1.047.857-2.087 2.289-3.13 4.294a14.86 14.86 0 001.532 1.643c.54.501.87.749.984.749.314 0 .65-.12 1.005-.362.35-.242.644-.49.882-.74.236-.252.56-.608.968-1.073.047 0 .114.083.206.242-1 1.468-1.815 2.423-2.448 2.873-.319.233-.557.35-.715.35a.775.775 0 00-.17.093c-.067.042-.119.078-.155.092a.194.194 0 01-.083.026.533.533 0 01-.222-.053.97.97 0 01-.252-.175 6.325 6.325 0 01-.242-.228 11.215 11.215 0 01-.54-.645c-.068-.09-.161-.218-.273-.378-.114-.161-.206-.284-.273-.378-.113-.125-.324-.465-.643-1.018l-.206.454c-.521 1.29-.927 2.976-1.22 5.053H57.96c-.474-.128-.71-.367-.71-.729 0-.32.041-.573.133-.748.774-2.186 1.634-4.016 2.583-5.482a1.905 1.905 0 01-.2-.362 2.934 2.934 0 00-.17-.336 2.49 2.49 0 00-.325-.495 7.016 7.016 0 00-.51-.595c-.191-.2-.325-.342-.391-.414-.073.309-.15.604-.227.884a2.15 2.15 0 01.124-.165c0 .418-.247 1.065-.747 1.933a6.3 6.3 0 01-.51.951l-.056-.02c-.227.346-.48.718-.763 1.116-1.381 1.947-2.422 2.925-3.129 2.925-.654 0-1.2-.614-1.628-1.85-.433-1.182-.65-2.49-.65-3.921v-.512c-1.472 2.362-2.59 3.544-3.364 3.544-.644 0-1-.29-1.071-.868-.186.3-.377.6-.566.899a18.275 18.275 0 01-1.598 2.15 14.164 14.164 0 01-1.273 1.36c1.415-.44 3.085-.663 4.991-.663zm18.44 5.59c-.315 0-.572-.242-.572-.537 0-.295.257-.537.571-.537.314 0 .572.242.572.537.002.295-.256.537-.572.537zm-2.093-2.097c-.582 0-1.057-.445-1.057-.993s.475-.993 1.057-.993c.583 0 1.057.445 1.057.993s-.474.993-1.057.993zM4.111 15.8c-.314 0-.572-.236-.572-.537 0-.294.258-.531.572-.531.314 0 .571.237.571.532 0 .3-.257.537-.571.537zm1.206 3.83c-.588 0-1.056-.445-1.056-.993 0-.547.468-.992 1.056-.992.583 0 1.057.445 1.057.992 0 .548-.474.993-1.057.993z" fill="url(#paint1_linear)"/><defs><linearGradient id="paint0_linear" x1="32.33" y1="38.222" x2="35.049" y2="20.505" gradientUnits="userSpaceOnUse"><stop stop-color="#EDD979"/><stop offset="1" stop-color="#FFF9CA"/></linearGradient><linearGradient id="paint1_linear" x1="35.227" y1="42.313" x2="35.227" y2="3.576" gradientUnits="userSpaceOnUse"><stop stop-color="#3F2500"/><stop offset="1" stop-color="#EBBD64"/></linearGradient></defs></svg>