<svg width="45" height="54" fill="none" xmlns="http://www.w3.org/2000/svg"><mask id="a" maskUnits="userSpaceOnUse" x="0" y="0" width="45" height="43"><path fill="#C4C4C4" d="M0 0h44.969v42.158H0z"/></mask><g mask="url(#a)" fill-rule="evenodd" clip-rule="evenodd" fill="#007CFF"><path d="M-51.266 21.078c.493-.05 1.55.128 2.92 0 1.372-.129 3.064-.557 4.456-.829 1.4-.278 2.506-.4 3.706-.392 1.2.014 2.477.164 3.777.45 1.3.292 2.606.72 4.291 1.27a853.34 853.34 0 005.505 1.8c1.75.564 3.185 1.02 4.748 1.37 1.564.35 3.25.608 5.263.665 2.013.064 4.355-.065 6.89-.35 2.535-.293 5.255-.743 9.082-1.65 3.827-.906 8.768-2.263 12.353-3.234 3.591-.971 5.833-1.55 8.025-1.778 2.192-.228 4.334-.1 6.034.086 1.699.185 2.963.442 4.62.892 1.663.457 3.726 1.107 5.568 1.714 1.843.607 3.45 1.157 5.341 1.535 1.892.379 4.056.578 6.576.607 2.52.028 5.391-.129 6.12-.086.728.036-.679.265-2.407.457-1.728.186-3.763.343-5.69.314a26.038 26.038 0 01-5.898-.742c-2.157-.514-4.649-1.35-6.84-2.056-2.192-.707-4.085-1.286-5.92-1.614-1.842-.329-3.627-.4-5.305-.364-1.678.035-3.234.185-5.833.778-2.592.593-6.22 1.628-9.91 2.606-3.692.985-7.44 1.914-10.318 2.542-2.87.628-4.863.957-6.962 1.135-2.106.179-4.32.2-6.612-.028-2.292-.229-4.662-.707-7.076-1.421-2.42-.721-4.883-1.678-6.761-2.378-1.878-.707-3.163-1.156-4.484-1.464a17.572 17.572 0 00-4.092-.442c-1.413.014-2.87.185-4.27.507-1.399.314-2.734.77-3.926.906-1.2.136-2.257-.035-2.82-.264-.565-.228-.643-.507-.15-.557v.015z"/><path d="M-5.983 25.005c1.664-.1 3.97-.314 6.248-.65 2.278-.335 4.534-.785 6.17-1.056 1.634-.272 2.655-.357 3.812-.379 1.15-.021 2.435.029 3.777.243 1.342.207 2.742.571 4.82 1.292 2.077.722 4.833 1.786 6.583 2.457 1.742.664 2.477.935 3.62 1.25a44.6 44.6 0 004.72.999c2.006.321 4.462.6 6.697.764a83.78 83.78 0 006.276.214c2.028 0 4.07-.05 5.67-.157 1.599-.107 2.755-.271 2.848-.186.086.086-.892.429-2.149.65-1.257.221-2.778.321-5.005.371-2.228.05-5.163.05-7.761-.071-2.6-.121-4.87-.357-6.97-.714a43.807 43.807 0 01-5.961-1.421c-1.921-.607-3.82-1.35-5.434-1.992-1.614-.643-2.934-1.185-4.106-1.592-1.17-.407-2.191-.686-3.505-.871-1.314-.186-2.928-.272-4.599-.222-1.67.05-3.391.243-5.626.571-2.235.336-4.984.814-7.811 1.136-2.835.321-5.755.492-7.347.578-1.593.093-1.857.1-1.414-.107.442-.207 1.592-.628 2.685-.828 1.085-.2 2.113-.186 3.777-.286l-.015.007zm-37.221-10.632c.093-.121 1.492-.535 3.213-1.085 1.72-.55 3.763-1.228 5.512-1.714 1.75-.485 3.213-.77 4.284-.906 1.071-.136 1.75-.107 2.392.021.643.129 1.25.35 2.006.743.764.392 1.678.942 2.664 1.556.985.614 2.027 1.278 2.891 1.77.864.494 1.543.808 2.242 1.086.7.279 1.414.514 2.378.764.957.243 2.156.5 3.57.693 1.414.193 3.056.335 4.763.478 1.706.143 3.484.293 5.847.35 2.37.057 5.327.021 8.718-.257 3.385-.279 7.205-.793 9.918-1.228 2.713-.436 4.327-.785 6.698-1.257 2.377-.464 5.512-1.042 7.896-1.356 2.385-.315 4.027-.365 5.513-.35 1.485.021 2.82.107 4.084.257 1.264.15 2.463.364 3.599.742 1.142.379 2.22.921 2.977 1.35.757.428 1.185.742 1.685 1.042.507.3 1.085.593 1.82.843.736.25 1.629.464 2.885.557 1.257.085 2.864.05 3.613.121.75.072.636.243.143.443-.493.193-1.357.407-2.242.535-.878.129-1.778.165-2.685.079-.907-.079-1.828-.286-2.906-.764-1.085-.479-2.327-1.235-3.334-1.814-1.007-.578-1.778-.985-2.728-1.27-.95-.293-2.085-.465-3.705-.572a47.813 47.813 0 00-6.005 0c-2.278.143-4.734.471-7.476 1-2.742.528-5.77 1.264-8.147 1.785-2.378.514-4.113.814-7.19 1.092-3.077.279-7.497.529-10.91.593-3.413.064-5.82-.064-8.354-.35-2.535-.293-5.205-.743-7.44-1.392A25.455 25.455 0 01-20.57 15.6c-1.52-.864-2.749-1.742-3.749-2.384a20.993 20.993 0 00-2.356-1.336c-.607-.292-1.057-.464-1.592-.542-.536-.079-1.15-.05-2.05.078-.892.129-2.063.35-3.87.829-1.806.47-4.248 1.192-6.076 1.635-1.827.45-3.034.62-2.941.507v-.015z"/><path d="M-35.029 8.761c-.178-.078.728-.25 1.878-.442 1.15-.186 2.535-.393 3.677-.493 1.15-.1 2.056-.1 3.049.029a15.85 15.85 0 013.249.792c1.17.414 2.427.993 3.92 1.75 1.485.756 3.198 1.684 4.798 2.456 1.6.77 3.084 1.37 5.076 1.927a34.66 34.66 0 007.483 1.221c3 .165 6.498-.014 9.218-.328 2.72-.314 4.663-.771 7.026-1.42 2.37-.658 5.162-1.515 8.226-2.507 3.063-.993 6.383-2.128 9.182-2.885 2.799-.757 5.062-1.135 7.011-1.35 1.95-.213 3.592-.263 5.141-.15 1.55.115 3.013.394 4.698 1.072 1.685.678 3.6 1.764 5.027 2.456 1.421.693 2.356.993 2.078 1.035-.279.036-1.764-.185-3.477-.707-1.714-.514-3.656-1.32-5.291-1.849-1.635-.528-2.97-.778-4.977-.72-2 .063-4.67.442-7.468 1.056-2.8.614-5.72 1.47-8.454 2.342-2.735.87-5.277 1.75-8.047 2.542A97.686 97.686 0 019.44 16.6c-2.8.529-5.398.893-8.725.693-3.328-.2-7.383-.957-11.239-2.228-3.856-1.27-7.504-3.063-9.96-4.191-2.457-1.135-3.713-1.614-4.784-1.914-1.071-.3-1.95-.428-3.1-.428-1.149 0-2.555.128-3.89.2-1.336.078-2.592.1-2.77.028z"/><path d="M6.648 15.987c-.564-.2-2.585-.457-4.612-.792-2.028-.343-4.07-.771-5.791-1.271a23.195 23.195 0 01-4.784-1.978c-1.65-.893-3.541-2.106-5.177-3.099-1.635-.992-3.02-1.778-4.32-2.413-1.299-.636-2.505-1.128-4.22-1.371-1.713-.243-3.926-.243-5.554-.136-1.628.107-2.656.322-2.52.443.135.121 1.449.143 2.92.193 1.47.05 3.113.128 4.448.3a15.43 15.43 0 013.299.792c.935.343 1.763.743 2.799 1.335a53.71 53.71 0 013.541 2.242c1.271.872 2.585 1.828 3.906 2.557 1.32.728 2.656 1.235 4.52 1.742 1.863.507 4.255 1.014 6.069 1.342 1.813.329 3.049.479 4.112.471 1.057 0 1.943-.15 1.371-.357h-.007z"/><path d="M-37.7 13.224c.493-.05 1.55.129 2.921 0 1.37-.128 3.063-.557 4.455-.828 1.4-.279 2.507-.4 3.706-.393 1.2.014 2.478.164 3.777.45 1.3.293 2.606.721 4.292 1.27 1.685.558 3.755 1.236 5.505 1.8 1.749.564 3.184 1.021 4.748 1.371 1.563.35 3.248.607 5.262.664 2.014.064 4.355-.064 6.89-.35 2.535-.292 5.255-.742 9.082-1.649 3.828-.907 8.768-2.263 12.353-3.234 3.591-.972 5.833-1.55 8.025-1.778 2.192-.229 4.334-.1 6.034.085 1.7.186 2.963.443 4.62.893 1.663.457 3.727 1.107 5.569 1.713 1.842.607 3.448 1.157 5.34 1.536 1.893.378 4.056.578 6.577.607 2.52.028 5.39-.13 6.119-.086.728.036-.679.264-2.407.457-1.727.185-3.762.342-5.69.314a26.043 26.043 0 01-5.898-.743c-2.156-.514-4.648-1.35-6.84-2.056-2.192-.707-4.084-1.285-5.92-1.614-1.842-.328-3.627-.4-5.304-.364-1.678.036-3.235.186-5.834.778-2.592.593-6.219 1.628-9.91 2.607-3.692.985-7.44 1.913-10.318 2.541-2.87.629-4.862.957-6.962 1.136-2.106.178-4.32.2-6.611-.029-2.292-.228-4.663-.707-7.076-1.42-2.42-.722-4.884-1.679-6.762-2.378-1.878-.707-3.163-1.157-4.484-1.464-1.32-.3-2.685-.457-4.091-.443-1.414.014-2.87.186-4.27.507-1.4.314-2.735.771-3.927.907-1.2.136-2.256-.036-2.82-.264-.564-.229-.643-.507-.15-.557v.014z"/><path d="M7.583 17.151c1.664-.1 3.97-.314 6.248-.65 2.278-.335 4.534-.785 6.169-1.057 1.635-.27 2.656-.357 3.813-.378 1.15-.021 2.435.029 3.777.243 1.342.207 2.742.571 4.82 1.292 2.077.721 4.833 1.785 6.583 2.456 1.742.664 2.477.936 3.62 1.25 1.15.314 2.706.678 4.72 1 2.006.32 4.462.6 6.697.764a83.63 83.63 0 006.276.214c2.028 0 4.07-.05 5.67-.157 1.599-.107 2.755-.272 2.848-.186.086.086-.892.428-2.149.65-1.257.221-2.777.321-5.005.371-2.228.05-5.163.05-7.762-.071-2.599-.122-4.87-.357-6.968-.714a43.792 43.792 0 01-5.962-1.421c-1.921-.607-3.82-1.35-5.434-1.992-1.614-.643-2.934-1.186-4.105-1.593-1.172-.407-2.192-.685-3.506-.87-1.314-.186-2.928-.272-4.599-.222-1.67.05-3.391.243-5.626.571-2.235.336-4.984.814-7.811 1.136-2.835.32-5.755.492-7.347.578-1.593.093-1.857.1-1.414-.107.442-.207 1.592-.629 2.684-.828 1.086-.2 2.114-.186 3.778-.286l-.015.007zM-29.638 6.52c.093-.122 1.492-.536 3.213-1.085 1.72-.55 3.763-1.229 5.512-1.714 1.75-.486 3.213-.771 4.284-.907 1.071-.136 1.75-.107 2.392.022.643.128 1.25.35 2.007.742.764.393 1.678.943 2.663 1.557.985.614 2.028 1.278 2.892 1.77a16.99 16.99 0 002.242 1.086c.7.278 1.413.514 2.377.764.957.242 2.157.5 3.57.692 1.414.193 3.056.336 4.763.479 1.706.143 3.484.292 5.848.35a82.47 82.47 0 008.718-.258c3.384-.278 7.204-.792 9.917-1.228 2.714-.435 4.327-.785 6.698-1.256 2.378-.464 5.512-1.043 7.897-1.357 2.385-.314 4.027-.364 5.512-.35a39.23 39.23 0 014.084.257c1.264.15 2.463.364 3.599.743 1.142.378 2.22.92 2.977 1.35.757.428 1.185.742 1.685 1.042.507.3 1.086.592 1.821.842.735.25 1.628.464 2.885.557 1.256.086 2.863.05 3.612.122.75.071.636.242.143.442-.492.193-1.356.407-2.242.536-.878.128-1.778.164-2.684.078-.907-.078-1.828-.285-2.906-.764-1.086-.478-2.328-1.235-3.335-1.813-1.007-.579-1.778-.986-2.727-1.271-.95-.293-2.085-.464-3.706-.571a47.814 47.814 0 00-6.005 0c-2.278.142-4.734.47-7.476 1-2.742.528-5.769 1.263-8.147 1.784-2.377.514-4.112.814-7.19 1.093a171.56 171.56 0 01-10.91.592c-3.413.065-5.819-.064-8.354-.35-2.534-.292-5.205-.742-7.44-1.392a25.459 25.459 0 01-5.555-2.356c-1.52-.864-2.749-1.742-3.748-2.385a20.993 20.993 0 00-2.357-1.335c-.607-.293-1.056-.464-1.592-.543-.535-.078-1.15-.05-2.049.079-.893.128-2.064.35-3.87.828-1.806.471-4.248 1.192-6.076 1.635-1.828.45-3.035.621-2.942.507V6.52z"/><path d="M-21.463.907c-.178-.078.729-.25 1.878-.442 1.15-.186 2.535-.393 3.678-.493 1.149-.1 2.056-.1 3.048.029.993.128 2.078.378 3.25.792 1.17.414 2.427.993 3.919 1.75 1.485.756 3.199 1.684 4.798 2.456 1.6.77 3.085 1.37 5.077 1.927a34.667 34.667 0 007.483 1.221c2.998.165 6.497-.014 9.218-.328 2.72-.314 4.662-.771 7.025-1.42 2.37-.658 5.163-1.515 8.226-2.507 3.063-.993 6.383-2.128 9.182-2.885 2.799-.757 5.062-1.135 7.012-1.35 1.949-.213 3.591-.263 5.14-.15 1.55.115 3.014.394 4.699 1.072s3.598 1.763 5.026 2.456c1.421.693 2.357.993 2.078 1.035-.278.036-1.763-.185-3.477-.706-1.714-.515-3.656-1.321-5.29-1.85-1.636-.528-2.971-.778-4.978-.72-1.999.063-4.67.442-7.468 1.056-2.8.614-5.72 1.47-8.454 2.342-2.735.87-5.277 1.75-8.047 2.542a97.659 97.659 0 01-8.554 2.013c-2.799.529-5.398.893-8.725.693-3.327-.2-7.383-.957-11.239-2.228-3.855-1.27-7.504-3.063-9.96-4.191-2.456-1.135-3.713-1.614-4.784-1.914-1.071-.3-1.95-.428-3.099-.428-1.15 0-2.556.128-3.891.2-1.335.078-2.592.1-2.77.028z"/><path d="M20.214 8.133c-.564-.2-2.585-.457-4.612-.792-2.028-.343-4.07-.772-5.791-1.271a23.192 23.192 0 01-4.784-1.978C3.377 3.199 1.486 1.985-.15.993-1.785.001-3.17-.785-4.47-1.42c-1.299-.636-2.505-1.129-4.22-1.371-1.713-.243-3.926-.243-5.554-.136-1.628.107-2.656.321-2.52.443.135.121 1.449.143 2.92.193 1.47.05 3.113.128 4.448.3a15.43 15.43 0 013.299.792c.935.343 1.763.743 2.799 1.335A53.42 53.42 0 01.243 2.378c1.271.871 2.585 1.828 3.906 2.556 1.32.729 2.656 1.236 4.52 1.743 1.863.506 4.255 1.013 6.069 1.342 1.813.328 3.049.478 4.112.471 1.057 0 1.942-.15 1.371-.357h-.007zM-8.218 30.082c.093-.122 1.493-.536 3.213-1.085 1.721-.55 3.763-1.229 5.512-1.714 1.75-.486 3.214-.771 4.285-.907 1.07-.136 1.749-.107 2.392.021.642.129 1.249.35 2.006.743.764.393 1.678.943 2.663 1.557.986.614 2.028 1.278 2.892 1.77.864.493 1.542.807 2.242 1.086.7.278 1.414.514 2.378.764.956.242 2.156.5 3.57.692 1.413.193 3.056.336 4.762.479 1.707.142 3.485.292 5.848.35 2.37.057 5.326.021 8.718-.258 3.384-.278 7.204-.792 9.918-1.228 2.713-.435 4.327-.785 6.697-1.256 2.378-.464 5.512-1.043 7.897-1.357 2.385-.314 4.027-.364 5.512-.35 1.485.022 2.82.107 4.084.257 1.264.15 2.464.364 3.599.743 1.142.378 2.22.92 2.977 1.35.757.428 1.186.742 1.685 1.042.507.3 1.086.592 1.821.842.736.25 1.628.464 2.885.557 1.257.086 2.863.05 3.613.122.75.071.635.242.143.442-.493.193-1.357.407-2.242.536a11.24 11.24 0 01-2.685.078c-.907-.078-1.828-.285-2.906-.764-1.085-.478-2.328-1.235-3.335-1.813-1.006-.579-1.778-.985-2.727-1.271-.95-.293-2.085-.464-3.706-.571a47.813 47.813 0 00-6.005 0c-2.277.142-4.734.47-7.475 1-2.742.528-5.77 1.263-8.147 1.784-2.378.514-4.113.814-7.19 1.093-3.078.278-7.498.528-10.91.592-3.413.065-5.82-.064-8.354-.35-2.535-.292-5.206-.742-7.44-1.392a25.455 25.455 0 01-5.556-2.356c-1.52-.864-2.748-1.742-3.748-2.385a21 21 0 00-2.356-1.335c-.607-.293-1.057-.464-1.593-.543-.535-.078-1.15-.05-2.049.079-.892.128-2.063.35-3.87.828-1.806.471-4.248 1.192-6.076 1.635-1.828.45-3.035.621-2.942.507v-.014z"/><path d="M-.042 24.47c-.179-.079.728-.25 1.878-.443 1.15-.186 2.534-.393 3.677-.493 1.15-.1 2.056-.1 3.049.029a15.85 15.85 0 013.248.792c1.171.415 2.428.993 3.92 1.75 1.485.756 3.199 1.685 4.798 2.456 1.6.771 3.085 1.37 5.077 1.928a34.673 34.673 0 007.483 1.22c2.999.165 6.497-.014 9.218-.328 2.72-.314 4.662-.77 7.026-1.42 2.37-.658 5.162-1.514 8.225-2.507 3.063-.992 6.383-2.128 9.182-2.884 2.8-.757 5.063-1.136 7.012-1.35 1.95-.214 3.591-.264 5.14-.15 1.55.114 3.014.393 4.699 1.071 1.685.678 3.599 1.764 5.027 2.456 1.42.693 2.356.993 2.077 1.036-.278.035-1.763-.186-3.477-.707-1.713-.514-3.656-1.321-5.29-1.85-1.636-.528-2.971-.778-4.977-.72-2 .064-4.67.442-7.469 1.056-2.799.614-5.72 1.47-8.454 2.342-2.735.871-5.276 1.75-8.047 2.542a97.617 97.617 0 01-8.554 2.013c-2.799.529-5.398.893-8.725.693-3.327-.2-7.383-.957-11.238-2.228-3.856-1.27-7.505-3.063-9.96-4.191-2.457-1.135-3.714-1.614-4.785-1.913-1.07-.3-1.949-.429-3.099-.429-1.15 0-2.556.129-3.891.2-1.335.079-2.592.1-2.77.029z"/><path d="M42.52 34.715c-.564-.2-2.585-.457-4.612-.793-2.028-.342-4.07-.77-5.791-1.27a23.187 23.187 0 01-4.784-1.978c-1.65-.893-3.541-2.107-5.176-3.1-1.636-.992-3.02-1.777-4.32-2.413-1.3-.635-2.506-1.128-4.22-1.37-1.714-.243-3.927-.243-5.555-.136-1.628.107-2.656.321-2.52.442.135.122 1.449.143 2.92.193 1.47.05 3.113.129 4.448.3a15.43 15.43 0 013.299.793c.935.343 1.763.742 2.799 1.335 1.035.593 2.27 1.37 3.541 2.242 1.271.871 2.585 1.828 3.906 2.556 1.32.728 2.656 1.235 4.52 1.742 1.863.507 4.255 1.014 6.069 1.343 1.813.328 3.049.478 4.112.47 1.057 0 1.943-.149 1.371-.356h-.007z"/></g><path d="M1.117 51.293c-.013 0-.019-.019-.019-.057 0-.038.006-.056.019-.056.17 0 .297-.016.379-.048a.257.257 0 00.16-.18c.032-.094.048-.236.048-.426v-2.102c0-.246-.025-.41-.076-.492-.05-.088-.158-.132-.322-.132-.505 0-.792.356-.861 1.07-.007.012-.029.018-.066.018-.032 0-.048-.006-.048-.018l-.019-.616a12.385 12.385 0 01-.019-.54c0-.037.003-.06.01-.066.006-.012.028-.019.066-.019.126 0 .24.003.34.01l1.288.01 1.307-.01c.107-.007.23-.01.37-.01.037 0 .06.007.065.02.007.005.01.028.01.066 0 .107-.006.287-.02.54l-.018.614c0 .013-.019.02-.057.02-.038 0-.057-.007-.057-.02-.07-.713-.356-1.07-.861-1.07-.164 0-.272.045-.322.133-.044.082-.066.246-.066.492v2.102c0 .19.012.332.038.426a.287.287 0 00.16.18c.083.032.206.047.37.047.019 0 .028.02.028.057 0 .038-.01.057-.028.057-.164 0-.294-.003-.388-.01l-.493-.009-.51.01c-.096.006-.231.01-.408.01zm10.298-3.654c.019 0 .028.019.028.057 0 .037-.01.056-.028.056a.605.605 0 00-.454.2c-.12.125-.23.33-.332.614l-1.126 2.992c-.228.606-.445 1.083-.654 1.43-.208.347-.423.593-.643.738a1.233 1.233 0 01-.73.227.61.61 0 01-.369-.104.343.343 0 01-.142-.293c0-.108.035-.193.105-.256a.34.34 0 01.236-.085c.082 0 .149.01.199.028l.18.095.16.085a.437.437 0 00.171.029c.152 0 .29-.063.417-.19.132-.126.271-.337.416-.634.146-.29.32-.704.521-1.24l-1.467-2.963c-.146-.278-.256-.458-.332-.54a.369.369 0 00-.293-.133c-.013 0-.02-.019-.02-.056 0-.038.007-.057.02-.057l.35.01c.082.005.196.009.34.009l.616-.01c.095-.006.224-.01.388-.01.013 0 .02.02.02.058 0 .037-.007.056-.02.056-.17 0-.3.016-.388.048-.088.031-.132.085-.132.16a.33.33 0 00.047.162l1.202 2.47.701-2.006c.05-.165.076-.29.076-.38 0-.157-.057-.27-.17-.34-.108-.076-.278-.114-.512-.114-.013 0-.019-.019-.019-.056 0-.038.006-.057.02-.057.17 0 .299.003.387.01l.568.009.36-.01a3.42 3.42 0 01.303-.01zm4.361 3.654c-.013 0-.019-.019-.019-.057 0-.038.006-.056.019-.056.17 0 .297-.016.379-.048a.257.257 0 00.16-.18c.032-.094.048-.236.048-.426v-2.102c0-.246-.025-.41-.076-.492-.05-.088-.158-.132-.322-.132-.505 0-.792.356-.861 1.07-.007.012-.029.018-.066.018-.032 0-.048-.006-.048-.018l-.019-.616a12.408 12.408 0 01-.019-.54c0-.037.003-.06.01-.066.006-.012.028-.019.066-.019.126 0 .24.003.34.01l1.288.01 1.307-.01c.107-.007.23-.01.369-.01.038 0 .06.007.066.02.007.005.01.028.01.066 0 .107-.007.287-.02.54l-.018.614c0 .013-.019.02-.057.02-.038 0-.057-.007-.057-.02-.07-.713-.356-1.07-.861-1.07-.164 0-.272.045-.322.133-.044.082-.066.246-.066.492v2.102c0 .19.012.332.037.426a.287.287 0 00.161.18c.083.032.206.047.37.047.019 0 .028.02.028.057 0 .038-.01.057-.028.057-.164 0-.294-.003-.389-.01l-.492-.009-.511.01a6.58 6.58 0 01-.407.01zm7.647-4.857c0 .24.06.452.18.635.12.177.265.331.435.464.17.126.407.28.71.464.316.195.565.366.748.51.19.14.35.313.483.521.133.209.199.455.199.739 0 .31-.082.59-.246.842a1.633 1.633 0 01-.691.587 2.433 2.433 0 01-1.042.209 3 3 0 01-.748-.095 2.112 2.112 0 01-.643-.256.166.166 0 01-.067-.066.264.264 0 01-.018-.114l-.095-1.353c-.006-.026.006-.041.038-.048.038-.006.06.003.066.029.151.48.363.887.634 1.221a1.3 1.3 0 001.06.502c.297 0 .543-.08.739-.237.202-.164.303-.429.303-.795 0-.278-.063-.52-.19-.73a1.845 1.845 0 00-.463-.52 6.274 6.274 0 00-.72-.492c-.296-.19-.533-.35-.71-.483a1.966 1.966 0 01-.435-.502 1.346 1.346 0 01-.18-.7c0-.322.085-.597.255-.824.177-.227.404-.394.682-.502.284-.113.58-.17.89-.17.423 0 .805.073 1.145.218.095.038.142.094.142.17l.048 1.184c0 .025-.016.04-.047.047-.032.006-.051-.003-.057-.029a2.396 2.396 0 00-.445-.965c-.227-.31-.55-.464-.966-.464-.316 0-.562.095-.738.284-.17.19-.256.43-.256.72zm8.426 4.052c0 .202.025.35.076.445.05.089.145.152.284.19.145.038.375.056.69.056.02 0 .03.02.03.057 0 .038-.01.057-.03.057-.258 0-.46-.003-.605-.01l-.824-.009-.653.01c-.12.006-.284.01-.492.01-.013 0-.02-.02-.02-.058 0-.038.007-.056.02-.056.227 0 .391-.016.492-.048a.318.318 0 00.218-.18c.038-.094.057-.236.057-.426v-4.383c0-.19-.02-.328-.057-.417a.318.318 0 00-.218-.18c-.1-.037-.265-.056-.492-.056-.013 0-.02-.02-.02-.057 0-.038.007-.057.02-.057l.492.01c.265.012.48.018.644.018.151 0 .331-.009.54-.028.075 0 .192-.003.35-.01a5.67 5.67 0 01.426-.018c.593 0 1.07.132 1.43.397.36.26.539.654.539 1.184 0 .41-.104.757-.312 1.041a1.84 1.84 0 01-.786.634 2.419 2.419 0 01-.985.209c-.183 0-.334-.016-.454-.048-.02 0-.029-.015-.029-.047a.19.19 0 01.01-.057c.013-.019.025-.025.038-.019.1.025.214.038.34.038.373 0 .689-.136.947-.407.259-.271.388-.663.388-1.174 0-.498-.126-.887-.378-1.164-.253-.284-.587-.426-1.004-.426-.19 0-.331.015-.426.047a.283.283 0 00-.19.18c-.037.088-.056.23-.056.426v4.326zm12.753.692c.025 0 .038.018.038.056 0 .038-.013.057-.038.057-.12 0-.313-.006-.577-.019a12.434 12.434 0 00-.56-.019c-.144 0-.324.006-.539.02a8.934 8.934 0 01-.483.018c-.025 0-.037-.019-.037-.057 0-.038.012-.056.037-.056.215 0 .37-.02.464-.057a.232.232 0 00.142-.227c0-.108-.047-.256-.142-.446l-1.06-2.196h-1.742l-.776 1.79c-.089.208-.133.381-.133.52 0 .41.306.615.919.615.031 0 .047.02.047.057 0 .038-.016.057-.047.057-.114 0-.278-.006-.493-.019a12.12 12.12 0 00-.625-.019c-.164 0-.36.006-.587.02a8.168 8.168 0 01-.492.018c-.025 0-.038-.019-.038-.057 0-.038.013-.056.038-.056a.875.875 0 00.445-.105c.126-.07.246-.189.36-.36.114-.17.243-.422.388-.757l2.017-4.648c.006-.02.028-.029.066-.029.038-.006.06.004.066.029l2.282 4.686c.214.46.397.773.549.937.151.164.322.246.511.246zm-4.412-3.144h1.553l-.814-1.704-.739 1.704z" fill="#14141C"/></svg>