<svg width="42" height="51" fill="none" xmlns="http://www.w3.org/2000/svg"><path d="M28.79 41.099l-1.831-3.242v-6a.731.731 0 00-.73-.732h-9.714a.731.731 0 00-.73.732v6l-1.831 3.242c-.2.352-.033.636.37.636H28.42c.403 0 .569-.285.37-.636zm-1.184-.095H23.56l-.399-.834a.505.505 0 00-.419-.264h-2.628a.508.508 0 00-.419.264l-.4.834H15.14c-.161 0-.228-.115-.148-.255l1.077-1.907a.554.554 0 01.436-.254h9.736c.161 0 .356.114.436.255l1.077 1.906c.08.14.013.255-.148.255z" fill="#FF8900"/><path d="M0 30.034C0 41.614 9.368 51 20.924 51s20.923-9.386 20.923-20.966c0-5.94-2.02-14.293-10.15-18.092l-.922 30.35h-.004a.525.525 0 01.004.067c0 1.415-5.392 2.562-12.042 2.562-6.651 0-12.044-1.147-12.044-2.562 0-.022.002-.045.004-.068h-.004l.006-.008c.026-.188.146-.37.35-.544l20.398-31.633a20.878 20.878 0 00-6.52-1.038C9.369 9.068 0 18.455 0 30.034zm7.974-25.07L6.918.729h-1.11L4.76 4.964 3.703.729h-1.11l1.612 6.46h1.11l1.048-4.235 1.056 4.235h1.11l1.604-6.46H9.03L7.974 4.964zm3.054 2.225h.537v.009h3.313V6.112h-2.775V4.497h2.239V3.421h-2.24V1.805h2.776V.73h-3.85v6.46zm8.651-3.463c.167-.162.293-.351.38-.57.086-.218.13-.44.13-.668a1.62 1.62 0 00-.377-1.059A1.876 1.876 0 0018.335.73h-2.203v6.46h2.337c.364 0 .697-.084.998-.25a1.97 1.97 0 00.726-.691c.182-.294.276-.62.282-.979a2.14 2.14 0 00-.223-.879 1.71 1.71 0 00-.573-.665zm-2.48-2.055h.976c.072 0 .139.003.201.008a.607.607 0 01.193.054c.155.067.275.17.358.315a.896.896 0 01.126.457.902.902 0 01-.126.453.731.731 0 01-.524.364c-.07.012-.13.018-.183.018h-1.022V1.67zm1.991 4.127a.913.913 0 01-.434.377.836.836 0 01-.268.06 6.574 6.574 0 01-.475.013h-.815V4.283h.815c.215 0 .372.005.47.013a.87.87 0 01.707.422 1.05 1.05 0 01-.001 1.08zM22.803.729h-1.075v6.469h1.075V.729zm5.574 3.391c.194-.359.29-.78.29-1.265 0-.628-.166-1.14-.497-1.534-.33-.394-.795-.592-1.392-.592h-2.364v6.46h1.03V5.036h1.038l1.048 2.153h1.138l-1.12-2.306c.358-.15.635-.404.829-.763zm-1.057-.34c-.182.215-.446.323-.793.323h-1.083V1.672h1.083c.34 0 .603.104.788.314.185.21.278.506.278.889 0 .387-.09.69-.273.905zM30.951.729l-1.97 6.46h1.066l.538-1.75h2.22l.529 1.75h1.065l-1.97-6.46h-1.478zm-.035 3.633l.78-2.557.778 2.557h-1.558zm5.954-.932L35.402.729h-1.227l2.14 3.768V7.19h1.066V4.497L39.548.73h-1.147l-1.53 2.7z" fill="#FF8900"/></svg>