<svg width="42" height="42" fill="none" xmlns="http://www.w3.org/2000/svg"><path d="M16.04 15.5c.155.26.316.526.47.793-.983-2.845-1.784-5.375-2.402-7.574a19.62 19.62 0 01-.31-.506c.563 2.1 1.322 4.532 2.242 7.286z" fill="url(#paint0_linear)"/><path d="M3.59 27.283c.098.274.196.548.301.829-1.152-3.085-1.25-6.914-.035-10.75.893-2.825 2.417-5.418 4.3-7.561.387-.443.794-.864 1.209-1.272 3.176-3.063 7.448-5.185 11.727-5.495 4.377-.316 8.256 1.272 10.764 4.027-.203-.225-.4-.443-.604-.654C28.8 3.78 25 2.297 20.706 2.67c-4.181.365-8.369 2.48-11.496 5.48a20.32 20.32 0 00-1.194 1.244c-1.862 2.094-3.387 4.638-4.293 7.385-1.244 3.76-1.209 7.49-.134 10.505zm-1.35 6.415c.106.28.225.569.337.857a57.971 57.971 0 012.27-4.44c-.12-.289-.239-.584-.358-.872a53.028 53.028 0 00-2.249 4.455z" fill="#3D3E5D"/><path d="M.856 26.671c.077.267.169.534.253.801a17.8 17.8 0 001.342 3.085c-.112-.288-.225-.57-.337-.857a17.814 17.814 0 01-1.258-3.03z" fill="url(#paint1_linear)"/><path d="M18.078 21.282c.19.31.372.625.562.942 4.152-5.052 8.39-9.592 12.45-13.337l-.61-.716c-4.055 3.646-8.278 8.108-12.402 13.11zM2.95 34.87c.12.289.246.584.372.872.317.464.654.907 1.012 1.328a59.23 59.23 0 01-.414-.892c-.345-.415-.668-.85-.97-1.307z" fill="#4B5F93"/><path d="M3.92 36.178c.133.295.274.597.414.892.956.31 1.975.618 3.07.92-.168-.309-.33-.625-.491-.941a61.287 61.287 0 01-2.993-.871z" fill="#4B5F93"/><path d="M9 33.641a121.808 121.808 0 014.553-6.576c.175.323.358.646.54.976a133.48 133.48 0 00-4.587 6.57 85.463 85.463 0 00-2.108 3.387c-.169-.31-.33-.626-.492-.942A94.192 94.192 0 019 33.641zm9.394 5.952c.218.337.436.674.66 1.012 1.61.288 3.247.562 4.912.815l-.675-1.012a177.655 177.655 0 01-4.897-.815zm.253-17.369a321.75 321.75 0 004.75 11.973c.9 2.15 1.813 4.264 2.726 6.344l-.682-1.018c-.92-2.101-1.826-4.23-2.719-6.388a321.098 321.098 0 01-4.644-11.853c.19.31.372.625.569.942z" fill="#4B5F93"/><path d="M23.284 40.415l.675 1.012c.73-.26 1.447-.556 2.157-.886l-.682-1.018c-.702.33-1.419.625-2.15.892zm13.14-35.364a57.552 57.552 0 00-.611-.604c3.414 3.288 5.347 8.34 4.813 14.116-.78 8.382-6.12 15.858-13.379 20.018.225.344.45.689.675 1.026 7.251-4.132 12.577-11.622 13.357-20.067.541-5.882-1.405-11.06-4.855-14.489z" fill="#4B5F93"/><path d="M25.167 39.417c-.92-2.1-1.826-4.23-2.719-6.387a304.08 304.08 0 01-4.637-11.854c4.103-4.974 8.29-9.408 12.331-13.048.113.014.225.021.344.036-4.054 3.653-8.277 8.108-12.401 13.11a316.069 316.069 0 004.644 11.854c.893 2.15 1.799 4.286 2.72 6.387a24.9 24.9 0 01-2.158.893 177.416 177.416 0 01-4.89-.815l-.021-.057c1.518.274 3.07.534 4.644.773a24.23 24.23 0 002.143-.892z" fill="#DBE7C9"/><path d="M40.351 18.464c.563-6.113-1.644-11.418-5.438-14.685a15.65 15.65 0 00-4.8-2.79c1.905.668 3.633 1.652 5.074 2.895 3.794 3.275 6 8.58 5.438 14.686-.78 8.368-6.12 15.851-13.378 20.01-.028-.07-.063-.14-.091-.21 7.167-4.18 12.422-11.6 13.195-19.906z" fill="#D3D4D4"/><path d="M3.449 16.68c.913-2.755 2.431-5.291 4.293-7.385.38-.429.78-.85 1.195-1.244 3.126-3 7.314-5.115 11.495-5.48 2.297-.197 4.447.133 6.338.892-1.82-.682-3.88-.984-6.064-.794-4.181.365-8.369 2.48-11.495 5.48a20.04 20.04 0 00-1.195 1.244c-1.862 2.094-3.387 4.638-4.293 7.385-1.51 4.567-1.11 9.148.766 12.458a54.239 54.239 0 00-2.249 4.462l-.168-.324a56.047 56.047 0 012.15-4.237c-1.883-3.309-2.284-7.89-.773-12.457z" fill="#4B5F93"/><path d="M13.799 8.213c.54 2.03 1.363 4.658 2.241 7.286l-.176.197a160.428 160.428 0 01-1.018-3.127l-.085-.28c-.02-.064-.035-.12-.056-.176-.281-.914-.548-1.785-.78-2.6-.014-.056-.035-.113-.05-.169-.041-.147-.083-.302-.126-.443-.063-.224-.119-.442-.182-.653.077-.014.154-.021.232-.035z" fill="#DBE7C9"/><path d="M13.567 8.248c.056.218.12.435.182.653-.063-.225-.126-.442-.182-.653zm1.138 3.872c.021.056.035.12.056.175a1.703 1.703 0 01-.056-.175zm-.835-2.776c.013.056.034.112.048.169-.014-.05-.028-.106-.049-.169z" fill="#DBE7C9"/><path d="M6.639 36.958a88.34 88.34 0 012.093-3.415 123.262 123.262 0 014.708-6.809c.035.099.113.345.12.352-.893 1.208-2.586 3.492-4.554 6.555a94.106 94.106 0 00-2.093 3.415 69.585 69.585 0 01-2.987-.878c-.007-.007-.014-.014-.014-.021.844.274 1.757.534 2.727.8z" fill="#4B5F93"/><path d="M13.567 8.248c.056.21.12.429.182.653l.127.443a174.006 174.006 0 00.83 2.768c.02.057.034.12.055.176.028.091.056.183.084.281.324 1.02.668 2.066 1.02 3.127l.175-.197c2.522-2.867 5.108-5.487 7.7-7.8 2.102.057 4.238.198 6.395.43-2.86 2.578-5.797 5.557-8.727 8.846l-.407-.085a85.154 85.154 0 00-10.779-1.51c-.513-2.34-.857-4.434-1.012-6.26a38.8 38.8 0 014.357-.872z" fill="url(#paint2_linear)"/><path d="M34.344 17.438c.485-3.492-.162-6.64-1.651-9.12a11.544 11.544 0 00-.942-1.349c-1.272-1.553-2.98-2.761-4.975-3.513-1.89-.759-4.047-1.09-6.337-.892-4.181.365-8.369 2.48-11.496 5.48-.414.394-.815.815-1.194 1.244a21.519 21.519 0 00-3.738 5.909 48.08 48.08 0 00-1.77.056c1.671-3.738 4.236-7.075 7.201-9.57C13.026 2.676 17.586.568 22.195.097c2.81-.28 5.509.056 7.912.893 1.799.66 3.429 1.609 4.799 2.79 3.794 3.273 6 8.578 5.438 14.684a23.535 23.535 0 01-.885 4.546 65.957 65.957 0 00-5.825-2.501 18.21 18.21 0 00.71-3.07z" fill="url(#paint3_radial)"/><path d="M2.065 33.374a56.066 56.066 0 012.15-4.237c-1.876-3.309-2.277-7.89-.766-12.457.168-.5.351-.998.555-1.483-.597.007-1.18.028-1.764.056a24.476 24.476 0 00-.864 2.192c-1.932 5.67-1.546 11.58.689 15.93zm22.449-1.25c.871 2.1 1.756 4.187 2.642 6.246 5.832-3.4 10.392-8.944 12.31-15.36a65.927 65.927 0 00-5.825-2.501c-1.51 4.77-4.87 8.91-9.127 11.615z" fill="url(#paint4_radial)"/><path d="M21.408 16.975a147.104 147.104 0 00-3.604 4.202A315.735 315.735 0 0022.44 33.03c.893 2.15 1.799 4.286 2.72 6.387-.71.33-1.427.633-2.158.892a199.472 199.472 0 01-4.644-.772 198.457 198.457 0 01-1.89-4.54 159.479 159.479 0 01-2.93-7.932v.007l-.113-.337a123.358 123.358 0 00-3.098 4.37 103.698 103.698 0 00-3.703 5.853 70.314 70.314 0 01-2.733-.801 15.463 15.463 0 01-.956-1.286 62.01 62.01 0 012.319-4.448c1.784-3.12 3.92-6.33 6.359-9.527a95.651 95.651 0 01-1.406-5.516 83.88 83.88 0 0110.779 1.51c.154.029.288.057.421.085z" fill="url(#paint5_linear)"/><defs><linearGradient id="paint0_linear" x1="20.732" y1="11.747" x2="-5.668" y2="14.147" gradientUnits="userSpaceOnUse"><stop stop-color="#548458"/><stop offset="1" stop-color="#28352B"/></linearGradient><linearGradient id="paint1_linear" x1="-4.154" y1="31.066" x2="-2.223" y2="30.253" gradientUnits="userSpaceOnUse"><stop stop-color="#474747"/><stop offset="1" stop-color="#191A1B"/></linearGradient><linearGradient id="paint2_linear" x1="23.5" y1="-1.504" x2="15.013" y2="20.98" gradientUnits="userSpaceOnUse"><stop stop-color="#99BD59"/><stop offset="1" stop-color="#5AA567"/></linearGradient><linearGradient id="paint5_linear" x1="19.49" y1="16.682" x2="12.966" y2="41.262" gradientUnits="userSpaceOnUse"><stop stop-color="#99BD59"/><stop offset="1" stop-color="#5AA567"/></linearGradient><radialGradient id="paint3_radial" cx="0" cy="0" r="1" gradientUnits="userSpaceOnUse" gradientTransform="translate(21.338 11.5) scale(15.7678)"><stop offset=".005" stop-color="#DDB4BC"/><stop offset=".497" stop-color="#C56E9E"/><stop offset="1" stop-color="#814C68"/></radialGradient><radialGradient id="paint4_radial" cx="0" cy="0" r="1" gradientUnits="userSpaceOnUse" gradientTransform="translate(19.799 26.785) scale(16.1404)"><stop offset=".005" stop-color="#DDB4BC"/><stop offset=".497" stop-color="#C56E9E"/><stop offset="1" stop-color="#814C68"/></radialGradient></defs></svg>