<svg width="73" height="53" fill="none" xmlns="http://www.w3.org/2000/svg"><path d="M34.134 32.068l-.065.324c-.065.109-.12.16-.16.16-.044 0-.077-.032-.099-.097-.065-.131-.193-.194-.39-.194h-.258a3.46 3.46 0 00-1.7.422 4.8 4.8 0 00-1.375 1.166 14.73 14.73 0 00-1.375 1.975 21.192 21.192 0 00-.988 1.975c-.28.626-.556 1.302-.826 2.024-.27.724-.511 1.468-.73 2.236a37.237 37.237 0 00-.566 2.283 18.965 18.965 0 00-.39 2.868c-.01.204-.016.417-.016.632 0 .842.115 1.588.34 2.236.227.648.6 1.1 1.117 1.36.39.193.766.29 1.133.29.324 0 .648-.06.973-.176a4.668 4.668 0 002.43-2.024c.02-.087.075-.13.16-.13.043 0 .065.032.065.097l-.066.194c-.174.258-.4.55-.68.874-.28.324-.55.572-.81.746a6.161 6.161 0 01-1.505.81 4.719 4.719 0 01-1.634.29 4.08 4.08 0 01-1.457-.258c-.648-.259-1.1-.692-1.362-1.297-.259-.604-.39-1.296-.39-2.072a12.45 12.45 0 01.066-1.199 16.95 16.95 0 01.616-2.865 39.156 39.156 0 011.067-3.062c.215-.518.441-1.024.68-1.523.238-.495.475-.994.714-1.49.518-.972.907-1.667 1.166-2.089.259-.422.39-.654.39-.697 0-.022-.011-.033-.033-.033-.044 0-.087.022-.131.065-.368.368-.77.79-1.215 1.264-.443.474-.847.93-1.214 1.36a77.215 77.215 0 00-1.88 2.22c-.735.896-1.484 1.83-2.249 2.802a79.088 79.088 0 00-2.17 2.882 40.73 40.73 0 00-1.634 2.43c-.131.215-.259.438-.39.664a2.28 2.28 0 00-.258.633c-.022.215-.142.378-.357.484a4.987 4.987 0 01-.632.325c-.248.108-.49.236-.73.389a.22.22 0 01-.16.065c-.088 0-.131-.043-.131-.13v-.099l.226-.68a.919.919 0 00.081-.34c.011-.142.028-.276.05-.407.065-.929.098-1.89.098-2.882v-1.44c0-.464.01-.902.032-1.314a19.627 19.627 0 01.066-1.617l-.161.226c-.433.626-1.016 1.318-1.748 2.073a28.012 28.012 0 01-2.236 2.072 20.021 20.021 0 01-2.22 1.605c-.809.506-1.7.923-2.672 1.247a7.063 7.063 0 01-2.298.39 5.811 5.811 0 01-1.7-.243 3.407 3.407 0 01-1.375-.792 3.327 3.327 0 01-.746-1.054 4.704 4.704 0 01-.39-1.248.97.97 0 01-.032-.291v-.292c0-.324.033-.66.098-1.005.065-.346.172-.67.324-.972.172-.39.39-.804.648-1.248.259-.441.507-.847.746-1.215.022-.065.077-.098.161-.098.044 0 .066.033.066.098 0 .066-.022.12-.066.16-.237.26-.46.638-.664 1.134-.205.498-.308.962-.308 1.392v.193c0 .518.07 1.005.21 1.458.138.454.362.83.664 1.133.518.56 1.1.967 1.748 1.215a5.567 5.567 0 002.008.373c1.165 0 2.363-.303 3.594-.907.561-.28 1.106-.616 1.637-1.005.529-.39 1-.766 1.408-1.133.583-.54 1.139-1.09 1.667-1.651.528-.561.988-1.133 1.375-1.716l.259-.39c.043-.907.103-1.792.177-2.656.076-.863.177-1.628.308-2.298.258-1.275.765-2.515 1.522-3.727.193-.302.417-.626.664-.972.248-.346.458-.638.632-.875.11-.108.204-.16.292-.16.108 0 .215.054.324.16.258.303.39.638.39 1.005 0 .172-.012.292-.034.357-.13.864-.33 1.7-.599 2.512a28.35 28.35 0 01-.792 2.122c-.237.498-.48 1.005-.73 1.522a15.772 15.772 0 01-.858 1.556c0 .174-.005.335-.016.485a6.702 6.702 0 00-.017.484v.747c0 .215.006.433.017.648.01.215.016.444.016.681v1.975c0 .495-.005.989-.016 1.473-.011.485.005.956.049 1.409 0 .193.054.291.16.291.11 0 .205-.076.292-.226a95.3 95.3 0 011.765-2.397c.702-.929 1.43-1.869 2.186-2.82.755-.95 1.496-1.868 2.22-2.753a67.39 67.39 0 013.5-3.985c.571-.605 1.149-1.22 1.732-1.847a64.903 64.903 0 011.715-1.83 32.63 32.63 0 011.65-1.572c.346-.28.692-.422 1.038-.422.302 0 .54.12.714.357.171.245.258.514.258.817zm-14.997 1.65c0-.367-.055-.626-.16-.776-.131-.171-.27-.259-.423-.259-.152 0-.27.077-.357.227a5.488 5.488 0 00-.68 1.62 20.607 20.607 0 00-.39 2.008l-.147 1.23c-.054.456-.093.853-.114 1.2-.022.345-.017.582.016.713.033.13.114.065.242-.193.131-.26.286-.572.469-.94.182-.368.367-.75.55-1.15.182-.4.346-.798.485-1.198.139-.4.242-.75.307-1.054.044-.237.088-.48.131-.73.05-.248.07-.48.07-.697zm23.19 12.474a6.847 6.847 0 01-1.297 1.571 9.211 9.211 0 01-1.571 1.133c-.55.314-1.098.567-1.637.76-.54.194-1.038.335-1.49.423-1.078.236-1.868.155-2.363-.243-.499-.4-.681-.978-.55-1.732.043-.346.187-.76.438-1.248.248-.485.566-.967.956-1.44.39-.475.82-.924 1.296-1.346a7.89 7.89 0 011.424-1.022c.518-.259.956-.362 1.313-.308.357.055.534.243.534.567 0 .237-.098.498-.291.776-.474.714-1.117 1.365-1.929 1.959a33.87 33.87 0 01-2.445 1.637c-.172.713-.011 1.231.484 1.555.325.237.766.352 1.33.34.56-.01 1.17-.146 1.83-.405.659-.259 1.329-.654 2.007-1.182a8.548 8.548 0 001.83-1.992c.087-.108.139-.125.16-.049a.317.317 0 01-.03.246zm-3.854-2.3c.237-.389.264-.653.082-.792-.183-.139-.469-.093-.858.147-.605.39-1.188.962-1.749 1.716-.56.757-.96 1.544-1.198 2.364 1.683-.931 2.925-2.075 3.723-3.434z" fill="#5E5E7B"/><path d="M41.324 45.252c.714-1.362 1.33-2.419 1.846-3.173.518-.755.831-1.155.94-1.199.022-.087.117-.098.291-.033-.302.499-.49.956-.566 1.376-.076.422-.016.77.177 1.051.237.346.523.483.858.406.335-.076.62-.188.858-.34.15-.087.297-.177.438-.275.14-.098.264-.2.373-.308l.098-.194c.022 0 .038-.005.05-.016.01-.01.027-.016.048-.016 0-.022.022-.055.066-.098.021-.022.065-.011.13.032a.56.56 0 01.583.066c.087.171.055.367-.098.583a55.1 55.1 0 00-1.571 2.607c-.507.896-.88 1.68-1.117 2.348-.174.604-.092.977.243 1.116.335.142.814-.005 1.44-.438a12.79 12.79 0 001.863-1.588 14.304 14.304 0 001.571-1.88c.066-.087.131-.109.194-.065.065.043.043.13-.066.259a19.77 19.77 0 01-1.636 1.88 12.256 12.256 0 01-1.83 1.554c-.627.455-1.15.73-1.572.826-.422.095-.746.065-.972-.098-.226-.164-.34-.442-.34-.842 0-.4.12-.88.356-1.44l2.331-4.212a18.449 18.449 0 01-1.264.877c-.538.324-.955.512-1.246.567-.292.054-.49-.017-.6-.21-.13-.11-.187-.303-.177-.583.011-.28.05-.518.115-.714.043-.171.016-.242-.082-.21-.098.033-.199.126-.308.276a29.01 29.01 0 00-.648 1.067 14.73 14.73 0 00-.258.469c-.088.16-.194.362-.325.6l-.193-.028zm22.313.193a24.392 24.392 0 01-2.073 2.204c-.776.735-1.748 1.296-2.914 1.683a3.24 3.24 0 01-.825.16 2.32 2.32 0 01-.792-.065c-.455-.13-.709-.356-.76-.68-.055-.325.06-.714.34-1.166.324-.496.648-1.041.972-1.638.325-.593.594-1.17.81-1.732.149-.368.176-.621.081-.76-.098-.139-.319-.093-.664.147-.561.368-1.128.87-1.7 1.507a17.864 17.864 0 00-1.604 2.089c-.172.367-.313.68-.422.94a2.986 2.986 0 01-.357.648c-.237.368-.485.485-.746.357-.109-.044-.158-.131-.147-.26.01-.13.07-.258.177-.389a15.577 15.577 0 001.473-2.364c.4-.798.632-1.512.697-2.138.044-.259-.016-.433-.177-.518-.16-.087-.395-.01-.697.226-.28.237-.566.518-.858.842-.291.324-.566.67-.825 1.038a21.397 21.397 0 00-1.214 1.99 26.728 26.728 0 01-1.117 1.897.688.688 0 01-.324.307c-.13.055-.248.017-.357-.114-.152-.172-.215-.351-.193-.534.022-.182.13-.438.324-.76.215-.346.43-.732.648-1.166.215-.43.409-.863.583-1.296.171-.43.335-.847.485-1.248.15-.4.27-.749.356-1.054l.177-.68c.077-.281.156-.442.243-.486a1.75 1.75 0 01.34-.098.748.748 0 00.275-.098c.172-.065.292-.038.357.082s.044.33-.065.632c-.044.13-.11.308-.194.534-.087.226-.182.477-.291.746-.109.27-.215.545-.324.826-.11.28-.204.528-.292.746a17.932 17.932 0 011.474-1.847c.463-.496.836-.809 1.116-.94.303-.15.556-.166.76-.049.204.12.286.395.242.826-.065.691-.27 1.413-.615 2.17a20.179 20.179 0 011.555-1.748 9.166 9.166 0 011.716-1.362c.346-.215.68-.335 1.005-.357.367-.043.572.044.615.259.044.215-.022.485-.193.809a94.68 94.68 0 00-1.33 2.577c-.367.746-.615 1.386-.745 1.928-.11.433-.066.73.13.89.196.162.496.178.907.05 1.1-.346 2.03-.87 2.786-1.572a17.312 17.312 0 001.975-2.154c.087-.11.16-.134.226-.082.068.057.057.139-.03.245zm9.294.196c-.302.39-.632.793-.988 1.215-.357.422-.741.82-1.15 1.198-.41.38-.825.73-1.247 1.052a8.635 8.635 0 01-1.247.809c-1.296.67-2.122.793-2.478.373-.357-.422-.319-1.324.114-2.705a15.919 15.919 0 01.94-2.299 34.798 34.798 0 01-1.733 2.155c-.593.68-1.203 1.204-1.83 1.572-.626.389-1.064.438-1.312.147-.248-.292-.199-.76.147-1.409a9.955 9.955 0 011.62-2.154 13.4 13.4 0 011.912-1.637c.324-.237.67-.441 1.038-.616a2.579 2.579 0 011.1-.259 10.499 10.499 0 011.002-1.716c.065-.087.139-.13.226-.13.109 0 .16.065.16.193 0 .087.012.158.033.21.022.054.044.103.066.147l.065.13c.066.131.066.237 0 .325-.692 1.1-1.23 2.1-1.62 2.996-.39.896-.681 1.83-.874 2.803-.153.735-.082 1.231.21 1.49.29.259.77.237 1.44-.066.346-.15.713-.373 1.1-.664.387-.292.765-.616 1.133-.973s.725-.732 1.068-1.133c.346-.4.648-.792.907-1.182.065-.109.13-.133.193-.082.07.052.07.123.005.21zm-5.278-2.236c-.302 0-.631.092-.988.275a5.15 5.15 0 00-1.051.73 4.22 4.22 0 00-.583.55 8.063 8.063 0 00-.632.793c-.204.291-.395.588-.566.89a4.325 4.325 0 00-.39.875c-.152.433-.152.697 0 .792.15.099.39-.005.714-.307a18.711 18.711 0 001.83-1.992 15.376 15.376 0 001.666-2.606z" fill="#5E5E7B"/><path d="M64.877 13.87a5.831 5.831 0 00-.713-1.7c-.558-.543-1.452-1.022-2.68-1.25a6.809 6.809 0 00-.852-.113 6.63 6.63 0 00-.324-1.28c-.044-.008-.085-.022-.128-.027-.877-2.348-3.072-4.078-5.717-4.32l-.114-.016-.01-.009c-.08-.002-.159-.008-.24-.008-.322 0-.635.03-.943.074a9.121 9.121 0 00-5.381-2.64 12.897 12.897 0 00-.978-.065 9.036 9.036 0 00-.384 0c-.553.003-1.097.04-1.636.114a7.063 7.063 0 00-.336.047 10.483 10.483 0 00-5.473-1.656c-2.013.038-3.89.64-5.474 1.656-.112-.02-.224-.03-.335-.047-.03.02-.063.036-.093.055a9.534 9.534 0 00-1.544-.17c-.082-.002-.163-.007-.245-.007-.379 0-.749.03-1.117.073a9.106 9.106 0 00-5.381 2.64 6.699 6.699 0 00-.942-.074c-.082 0-.161.006-.24.008a6.6 6.6 0 00-5.97 4.372 6.68 6.68 0 00-.324 1.28 6.873 6.873 0 00-.852.112c-1.231.229-2.122.708-2.68 1.25-.188.183-.338.37-.45.556-.195.33-.28.716-.263 1.141v.008c.095 2.547 3.799 6.62 9.2 9.85a33.612 33.612 0 005.285 2.588c.85.321 1.667.583 2.44.784l.161.041c.093.025.185.044.278.066.087.018.174.04.261.06h.003c.142.03.283.06.422.087.055.01.106.019.16.027.058.01.115.022.172.03.183.03.362.057.537.079.062.008.125.013.188.019.139-.174.28-.352.422-.526.019.006.038.008.06.014a.442.442 0 01-.055-.02 47.462 47.462 0 013.28-3.59c.41-.408.833-.814 1.268-1.217l.18-.163c.531-.49 1.087-.973 1.65-1.452.24-.204.477-.409.722-.61.19-.158.384-.305.577-.458.213-.169.425-.34.638-.504.28-.218.56-.425.841-.635a55.26 55.26 0 011.286-.928 51.128 51.128 0 013.445-2.201c.403-.235.803-.46 1.203-.676l.458-.248c.256-.133.51-.264.765-.39l.158-.081a39.72 39.72 0 011.53-.714c.099-.043.197-.09.292-.13 1.1-.474 2.168-.861 3.197-1.174.166-.05.332-.104.496-.15l.092-.025c.379-.106.752-.196 1.12-.277a16.124 16.124 0 013.058-.411c.117-.004.237-.012.354-.012.06 0 .12 0 .18.003.305.003.602.016.885.044.098.008.19.021.286.035.705.09 1.348.259 1.917.51a4.8 4.8 0 011.79 1.323c.255.313.457.66.623 1.03.003.002.003.005.005.01-.008-.002-.008-.008-.01-.013zm-40.814 9.554c-6.307-3.778-9.951-8.422-8.576-10.718.087-.144.259-.3.457-.447a2.854 2.854 0 011.278-.504v.006c0 .847.16 1.659.452 2.402.237.782.566 1.588.986 2.403a37.184 37.184 0 005.754 7.066 22.982 22.982 0 01-.351-.208zm.689.404c.081.049.109.062 0 0zm.844-.97c-1.83-1.572-3.323-3.307-4.417-5.045-1.3-2.056-2.037-4.11-2.114-5.889a7.65 7.65 0 01-.002-.613c.005-.125.016-.248.03-.37.103-.98.444-1.847 1.04-2.544.613-.714 1.449-1.177 2.43-1.425.31-.079.631-.139.969-.171-.025.04-.05.084-.074.125a9.119 9.119 0 00-1.318 4.549c0 .057-.008.114-.008.174 0 .106.013.21.016.316.008.256.025.51.052.76.005.065.008.13.014.193a20.068 20.068 0 004.142 10.555c-.254-.198-.51-.397-.76-.615zm-.531-4.51l-.033-.088c-.607-1.585-.991-3.146-1.133-4.623a13.618 13.618 0 01-.043-1.835c.027-.6.1-1.18.22-1.733.264-1.223.752-2.32 1.48-3.233.018-.025.043-.049.062-.074.21-.256.436-.5.686-.727.104-.095.213-.182.321-.267 1.229-.986 2.76-1.512 4.464-1.612a23.275 23.275 0 00-.615.885c-.267.338-.507.695-.73 1.062a10.76 10.76 0 00-.706 1.379l-.057.128-.049.125c-.06.152-.114.308-.169.463a20.412 20.412 0 00-1.421 4.908 19.054 19.054 0 00-.234 2.225 21.044 21.044 0 00.008 2.166c.046.823.144 1.632.283 2.425a20.296 20.296 0 001.607 5.107c-1.746-2.155-3.072-4.44-3.941-6.682zm6.013-1.93c-.125.453-.24.913-.34 1.379-.036.16-.068.324-.101.485-.158.8-.283 1.62-.365 2.454a25.305 25.305 0 00-.1 3.92 25.562 25.562 0 01-.64-2.22 25.426 25.426 0 01-.377-1.899 24.244 24.244 0 01-.307-4.107 23.955 23.955 0 01.046-1.147l.016-.256c.03-.382.076-.752.126-1.122a19.92 19.92 0 01.318-1.82 17.73 17.73 0 01.74-2.446c.156-.398.325-.785.508-1.155.049-.098.1-.19.15-.286.233-.452.49-.883.765-1.286.694-1.021 1.506-1.887 2.432-2.56.035-.025.07-.046.106-.071.427-.3.874-.567 1.342-.782a7.98 7.98 0 011.485-.517 8.068 8.068 0 012.086-.21 9.156 9.156 0 012.93.58 14.509 14.509 0 00-2.93 1.512c-.314.207-.619.428-.92.662-.044.032-.088.068-.132.103-.049.038-.098.082-.147.123a18.242 18.242 0 00-3.025 3.143c-.292.384-.57.782-.836 1.193a23.07 23.07 0 00-.202.308 21.723 21.723 0 00-1.615 3.143 25.073 25.073 0 00-.632 1.678 22.75 22.75 0 00-.38 1.202zm.28 8.42c.003-.169 0-.335.006-.504a30.286 30.286 0 01.654-5.486 24.028 24.028 0 01.773-2.824c.19-.578.398-1.142.621-1.686a22.924 22.924 0 011.492-3.01c.068-.112.136-.218.205-.33.258-.417.53-.82.811-1.207.899-1.23 1.904-2.296 2.99-3.16a.426.426 0 00.055-.043c.114-.09.226-.18.343-.264.185-.136.373-.27.566-.395.096-.063.194-.123.29-.183 1.157-.716 2.385-1.217 3.665-1.462l.049-.008a9.7 9.7 0 012.031-.164c.115.003.226.014.338.022a10.208 10.208 0 014.237 1.245 16.33 16.33 0 00-2.295.722c-.11.043-.22.084-.33.13a19.59 19.59 0 00-1.046.474c-.13.063-.264.136-.394.205a24.85 24.85 0 00-3.227 1.983l-.055.038c-.376.272-.752.564-1.125.863-.544.436-1.086.899-1.62 1.39-.482.443-.956.915-1.424 1.402-.047.05-.096.095-.142.144-.28.297-.556.608-.83.916-.107.12-.216.228-.32.351-.405.471-.805.959-1.198 1.466-.16.207-.313.414-.465.62a36.048 36.048 0 00-1.85 2.757c-.263.439-.511.877-.748 1.316-.066.122-.136.245-.2.367a.997.997 0 01-.032.066 28.935 28.935 0 00-1.824 4.25zm24.22-15.161c-.123.022-.243.04-.368.065-.177.036-.36.08-.542.12-.264.06-.537.136-.81.207-1.16.313-2.374.733-3.63 1.264l-.103.041c-.272.117-.547.237-.825.362-.237.11-.48.226-.719.343a42.21 42.21 0 00-1.539.782c-.397.213-.798.441-1.198.673-.438.256-.88.523-1.324.798a48.246 48.246 0 00-2.598 1.749c-.166.12-.33.231-.495.351-.224.164-.447.338-.667.507-.21.16-.42.313-.63.48-.27.212-.536.424-.803.642-.122.1-.237.207-.36.308a47.75 47.75 0 00-3.507 3.2c-.15.15-.297.3-.444.45-.675.697-1.315 1.4-1.914 2.103.384-.945.827-1.896 1.331-2.847l.047-.087c.231-.436.476-.869.732-1.302l.03-.014-.014-.013c.303-.51.627-1.016.96-1.52.152-.229.299-.458.457-.684.171-.245.35-.48.528-.719.466-.63.94-1.24 1.427-1.82.12-.141.242-.274.365-.413.163-.188.327-.376.493-.559.158-.174.321-.338.482-.507.106-.111.212-.226.319-.335a29.406 29.406 0 013.769-3.225c.078-.057.157-.12.24-.174a21.298 21.298 0 013.586-2.024c.229-.098.457-.193.683-.278.003.003.003.009.006.011l.016-.019c.115-.043.226-.076.338-.114 1.182-.42 2.331-.665 3.42-.72.058-.002.117-.01.175-.013a8.73 8.73 0 011.315.06c.229.027.45.074.67.12a6.49 6.49 0 012.375 1.013 6.41 6.41 0 011.495 1.477c-.863-.006-1.79.084-2.77.261z" fill="url(#paint0_linear)"/><path d="M13.05 13.675c.166-.376.37-.724.626-1.04a4.881 4.881 0 011.79-1.324 6.947 6.947 0 011.916-.51c.096-.013.191-.024.286-.035.286-.027.583-.04.886-.043l.18-.003c.933.003 1.944.117 3.02.335.49.1.99.223 1.505.365l.093.025c1.18.332 2.416.773 3.693 1.323a38.308 38.308 0 012.748 1.316c.152.079.305.164.457.248 1.53.828 3.089 1.79 4.649 2.879a53.63 53.63 0 012.127 1.564c.406.313.811.632 1.215.961a53.863 53.863 0 012.551 2.226 49.1 49.1 0 011.27 1.217 47.407 47.407 0 013.278 3.59.437.437 0 00-.054.02l.06-.014c.144.174.283.351.422.525.063-.008.125-.01.188-.019.174-.022.354-.049.536-.079.058-.008.115-.019.172-.03a4.45 4.45 0 01.16-.027c.14-.027.281-.054.423-.087h.002c.087-.02.175-.038.262-.06l.278-.065.16-.041a23.22 23.22 0 002.44-.785 33.606 33.606 0 005.286-2.587c6.308-3.779 10.308-8.703 8.933-11-.447-.746-1.487-1.503-3.13-1.805a6.804 6.804 0 00-.852-.112 6.605 6.605 0 00-5.716-5.606 6.71 6.71 0 00-.817-.054c-.321 0-.634.03-.942.073a9.104 9.104 0 00-6.495-2.713c-.373 0-.738.03-1.1.074-.232.027-.463.06-.69.106A10.49 10.49 0 0039.172.811c-2.092 0-4.041.612-5.681 1.664a12.71 12.71 0 00-2.356-.158c-2.753.073-5.324 1.027-7.549 2.645l-.114.016c-2.645.243-4.84 1.972-5.716 4.32a5.773 5.773 0 00-2.277.894 5.774 5.774 0 00-2.43 3.483zm21.748-4.954a24.624 24.624 0 00-3.676-2.226c-.352-.169-.7-.33-1.046-.474a16.6 16.6 0 00-2.625-.852 10.106 10.106 0 014.237-1.245c.112-.008.224-.02.338-.022.705-.019 1.4.041 2.083.172 1.386.264 2.715.828 3.954 1.642a11.182 11.182 0 01.965.703c1.517 1.207 2.876 2.797 4.006 4.696 1.059 1.773 1.917 3.813 2.527 6.036.133.485.25.983.36 1.485.048.231.097.463.141.694a30.238 30.238 0 01.512 4.791c.005.17.003.336.005.504a29.07 29.07 0 00-1.819-4.246l-.032-.066-.2-.367a35.883 35.883 0 00-.748-1.316 35.435 35.435 0 00-4.662-6.112 33.444 33.444 0 00-1.57-1.547 31.35 31.35 0 00-2.75-2.25zm7.74-5.434c.51.234.994.517 1.452.85 1.367.994 2.5 2.41 3.346 4.132.183.37.35.757.507 1.154.63 1.613 1.035 3.438 1.185 5.388l.016.256c.016.256.027.515.036.774.002.125.008.248.01.373a23.96 23.96 0 01-.307 4.108c-.101.629-.224 1.26-.376 1.898a25.844 25.844 0 01-.64 2.22 25.305 25.305 0 00-.1-3.92 26.322 26.322 0 00-.467-2.939c-.1-.465-.215-.926-.34-1.378-.613-2.2-1.506-4.233-2.625-6.022-1.177-1.882-2.604-3.498-4.21-4.767-.044-.035-.088-.068-.131-.104a14.804 14.804 0 00-3.849-2.173c1.648-.61 3.353-.766 5.017-.37a8.555 8.555 0 011.476.52zm8.772 2.271c.109.087.218.175.321.267.273.248.523.515.75.801 1.192 1.495 1.745 3.478 1.712 5.71-.005.359-.022.721-.057 1.092-.142 1.476-.526 3.037-1.133 4.622-.01.03-.022.057-.033.087-.871 2.242-2.195 4.524-3.94 6.682a20.481 20.481 0 001.606-5.107 20.892 20.892 0 00.316-3.574 20.836 20.836 0 00-.125-2.272 20.335 20.335 0 00-1.555-5.878 9.475 9.475 0 00-.169-.463c-.016-.04-.032-.085-.049-.125a10.47 10.47 0 00-1.492-2.572c-.199-.3-.403-.594-.616-.882 1.705.1 3.233.626 4.464 1.612zm7.563 5.543c.008.2.005.403-.003.613-.076 1.779-.814 3.833-2.113 5.89-1.095 1.734-2.588 3.472-4.418 5.044-.25.215-.506.417-.76.618a20.23 20.23 0 002.887-5.12 20.135 20.135 0 001.256-5.435c.005-.065.01-.13.013-.193.03-.25.044-.504.052-.76.003-.106.016-.21.016-.316 0-.06-.008-.114-.008-.175a9.098 9.098 0 00-1.391-4.674 6.5 6.5 0 01.97.172c.98.248 1.816.71 2.428 1.425.673.781 1.019 1.778 1.07 2.911zM53.519 23.42c-.75.438-.303.177 0 0 .454-.436.898-.886 1.328-1.343a37.048 37.048 0 004.426-5.723c.42-.814.749-1.62.986-2.402a6.577 6.577 0 00.452-2.403v-.005c.46.068.901.228 1.277.504.199.147.37.302.458.446 1.375 2.3-2.266 6.943-8.576 10.719l-.351.207zM23.268 9.652c-.183-.04-.363-.084-.542-.12-1.12-.226-2.17-.335-3.135-.324a6.41 6.41 0 011.495-1.476c.896-.627 1.923-.994 3.042-1.133a8.695 8.695 0 011.316-.06c1.241.04 2.568.33 3.932.85l.016.019c.003-.003.003-.008.006-.011.226.087.455.18.683.278 1.185.512 2.391 1.196 3.587 2.026a28.23 28.23 0 014.006 3.4c.27.272.534.555.798.844a34.475 34.475 0 014.23 5.71.872.872 0 00-.014.013c.01.005.019.01.03.014.256.433.5.869.732 1.302l.047.087c.503.95.947 1.901 1.331 2.846a46.435 46.435 0 00-1.914-2.103c-.145-.15-.294-.3-.444-.449a52.692 52.692 0 00-3.867-3.508 55.114 55.114 0 00-2.1-1.63 47.061 47.061 0 00-5.71-3.625 37.907 37.907 0 00-2.163-1.073c-.278-.125-.55-.248-.825-.362-1.583-.678-3.11-1.185-4.537-1.515z" fill="url(#paint1_linear)"/><defs><linearGradient id="paint0_linear" x1="33.674" y1="33.232" x2="40.197" y2="9.138" gradientUnits="userSpaceOnUse"><stop offset=".029" stop-color="#DADEED"/><stop offset="1" stop-color="#868C92"/></linearGradient><linearGradient id="paint1_linear" x1="54.08" y1="27.989" x2="35.602" y2="9.876" gradientUnits="userSpaceOnUse"><stop stop-color="#EF8396"/><stop offset=".53" stop-color="#F29F99"/><stop offset="1" stop-color="#F5B99C"/></linearGradient></defs></svg>