<svg width="83" height="29" fill="none" xmlns="http://www.w3.org/2000/svg"><path d="M54.947.69H16.193c-1.561 0-2.826.73-3.182 2.903l-.003.016H5.905a.72.72 0 00-.71.73.72.72 0 00.71.729h51.608l.258-1.46.002-.015c0-1.603-1.265-2.902-2.826-2.902z" fill="#29AAE1"/><path d="M14.972 12.454h-3.755l-.504 2.843 3.54.044.72-2.887zM14 16.373H5.95a.742.742 0 00-.754.73c0 .403.338.73.754.73h4.292L9.8 20.108h3.305l.888-3.699.009-.037zm3.872 3.799c1.725 0 2.687-1.133 3.373-3.99.685-2.858.261-3.967-1.487-3.967-.966 0-1.7.378-2.255 1.156-.451.637-.805 1.534-1.133 2.904-.664 2.764-.222 3.897 1.502 3.897zm8.332-1.558c-.278 1.157.306 1.7 1.892 1.7 1.817 0 2.724-.708 3.143-2.455l.227-.944h-2.76c-1.381 0-2.23.566-2.502 1.7zm-25.45 3.2a.741.741 0 00-.754.73c0 .402.338.729.754.729h8.428l-.005.038h-.003l-.08.41c0 .378.07.738.199 1.068.34.975 1.185 1.721 2.238 1.87l.015-.064.01-.037 1.152-4.744H.754z" fill="#00F"/><path d="M56.868 8.715H1.331a.742.742 0 00-.754.73c0 .402.338.729.754.729h16.47l-.322 1.286c.716-.601 1.372-1.072 2.202-1.266l-.072.016h2.41c1.44.42 2.049 1.438 2.02 2.95-.02.85-.143 1.653-.484 3.069-.622 2.597-1.342 4.06-2.488 5.004-.86.709-1.963 1.087-3.16 1.087-1.334 0-2.024-.378-2.661-1.37l-1.361 5.672h19.273l.45-1.87h.598c.966 0 1.39-.237 1.979-1.252l1.097-1.888-1.358-11.402h2.507l.755 8.45 4.74-8.45h2.524l-8.61 14.353c-.614 1.035-1.31 1.707-2.164 2.06H51.03c1.56 0 2.826-1.094 3.182-2.902l2.397-13.548.258-1.458zm-22.423 5.46l-1.92 8.003h-2.3l.26-1.085c-1.204.992-2.014 1.204-3.394 1.204-2.6 0-3.736-1.298-3.18-3.612.52-2.172 2.35-3.47 4.833-3.47h3.128l.209-.873c.373-1.559-.25-2.22-2.09-2.22-.667 0-1.173.095-1.637.307-.385.166-.694.402-1.147.85l-1.184-1.486c.814-.71 1.18-.992 1.818-1.252.226-.099.694-.234 1.156-.328h3.095c1.95.453 2.87 1.807 2.353 3.962zm19.248-3.636c.523.212.76.378 1.262.873l-1.84 1.535c-.687-.685-1.516-.874-2.597-.874-1.403 0-2.315.544-2.559 1.559-.198.826.206 1.25 1.288 1.345l1.8.166c2.226.212 3.121 1.369 2.64 3.377-.577 2.407-2.752 3.801-6.018 3.801-1.057 0-1.985-.166-2.727-.52-.582-.259-.87-.495-1.483-1.204l1.92-1.582c.816.921 1.633 1.251 3.035 1.251 1.657 0 2.723-.613 2.979-1.676.203-.85-.195-1.299-1.23-1.392l-1.847-.166c-2.232-.188-3.116-1.299-2.645-3.258.444-1.85 2.38-3.2 4.418-3.624a7.38 7.38 0 011.048-.081c.422 0 .833.042 1.228.106h.02c.432.093 1.048.249 1.308.364zm-35.914-.329h-2.3 2.299z" fill="#00F"/><path d="M67.896 23.439l-2.303-5.603-2.075 2.035-.613 3.568h-2.346l2.928-17.05h2.346l-1.806 10.512 5.494-5.603h2.852l-4.867 4.765 3.288 7.376h-2.898zm6.79 5.052c-1.748 0-2.613-.454-3.704-1.604l1.758-1.533c.659.718 1.222 1.054 2.303 1.054 1.748 0 2.977-1.126 3.314-3.09l.267-1.555c-.997.981-1.917 1.39-3.183 1.39-1.196 0-2.124-.36-2.69-1.078-.96-1.246-.725-3.281-.441-4.933l.066-.384c.386-2.25 1.03-3.591 2.061-4.5.84-.743 1.868-1.102 3.088-1.102 1.31 0 2.041.431 2.747 1.413l.218-1.27h2.278L80.69 23.392c-.534 3.112-2.877 5.1-6.005 5.1zm2.995-15.157c-1.68 0-2.562 1.125-3.024 3.807-.465 2.705.037 3.807 1.738 3.807 1.656 0 2.559-1.102 3.02-3.783.468-2.73-.032-3.831-1.734-3.831z" fill="#29AAE1"/><path d="M57.152 23.346c.564 0 1.021-.47 1.021-1.049 0-.58-.457-1.049-1.021-1.049-.565 0-1.022.47-1.022 1.05 0 .579.457 1.048 1.022 1.048z" fill="#29AAFF"/></svg>