<svg width="23" height="23" fill="none" xmlns="http://www.w3.org/2000/svg"><path d="M11.102 9.57c-.406 0-.743.19-1.017.564-.275.375-.41.868-.41 1.483 0 .496.098.91.294 1.241.194.334.45.5.768.5.468 0 .867-.228 1.204-.68.337-.456.506-.974.509-1.558 0-.47-.138-.845-.409-1.126-.275-.287-.587-.424-.94-.424z" fill="#fff"/><path d="M11.283 0C5.052 0 0 5.052 0 11.283c0 6.23 5.052 11.283 11.283 11.283 6.23 0 11.283-5.052 11.283-11.283C22.569 5.052 17.517 0 11.283 0zm5.819 13.791c-.811.974-1.775 1.457-2.89 1.457-.758 0-1.332-.29-1.722-.876-.518.608-1.139.917-1.866.917-.814 0-1.51-.343-2.09-1.033-.58-.686-.868-1.594-.868-2.714 0-1.149.325-2.088.98-2.815C9.298 8 10.081 7.632 11 7.632c.577 0 1.107.2 1.594.596l.122-.443h1.903l-.552 4.521a8.34 8.34 0 00-.05.805c0 .284.131.421.393.421.484 0 .952-.302 1.401-.914.45-.608.674-1.376.674-2.296 0-1.345-.49-2.459-1.473-3.345-.98-.886-2.184-1.33-3.61-1.33-1.544 0-2.852.54-3.91 1.617-1.06 1.08-1.594 2.424-1.594 4.034 0 1.486.496 2.777 1.485 3.879.993 1.104 2.394 1.654 4.203 1.654 1.136 0 2.303-.256 3.492-.768a.888.888 0 011.176.48.892.892 0 01-.48 1.152 10.51 10.51 0 01-4.184.877c-2.36 0-4.232-.718-5.626-2.15-1.389-1.432-2.085-3.142-2.085-5.133 0-2.075.73-3.81 2.19-5.205 1.461-1.394 3.23-2.09 5.305-2.09 1.975 0 3.629.611 4.958 1.838 1.333 1.226 1.994 2.708 1.994 4.446-.006 1.373-.412 2.543-1.223 3.513z" fill="#fff"/></svg>