<svg width="24" height="23" fill="none" xmlns="http://www.w3.org/2000/svg"><path d="M11.72 8.873a2.398 2.398 0 00-2.399 2.4 2.398 2.398 0 104.798 0c0-1.327-1.073-2.4-2.399-2.4z" fill="#F2F2F2"/><path d="M11.723 0C5.473 0 .404 5.071.404 11.324s5.069 11.324 11.319 11.324c6.25 0 11.319-5.071 11.319-11.324C23.042 5.068 17.973 0 11.723 0zm6.65 15.035a3.134 3.134 0 01-3.124 3.127H8.194a3.134 3.134 0 01-3.125-3.127V7.613a3.134 3.134 0 013.125-3.127h7.055a3.134 3.134 0 013.125 3.127v7.422z" fill="#F2F2F2"/><path d="M14.505 5.508H8.942c-.757 0-1.471.299-2.01.838a2.83 2.83 0 00-.838 2.011v5.93c0 .757.298 1.472.838 2.012.539.54 1.253.838 2.01.838h5.563c.756 0 1.47-.299 2.01-.838a2.83 2.83 0 00.837-2.011v-5.93a2.83 2.83 0 00-.837-2.012 2.827 2.827 0 00-2.01-.838zm-2.76 9.428a3.666 3.666 0 11.001-7.331 3.666 3.666 0 01-.002 7.33zm3.72-6.518a.868.868 0 11.002-1.737.868.868 0 01-.001 1.737z" fill="#F2F2F2"/></svg>