<svg width="22" height="22" fill="none" xmlns="http://www.w3.org/2000/svg"><path d="M10.867 0C4.948 0 .135 4.814.135 10.732c0 2.018.561 3.979 1.625 5.68a440.464 440.464 0 00-1.195 4.324.412.412 0 00.517.502l4.252-1.309a10.703 10.703 0 005.533 1.535c5.918 0 10.732-4.814 10.732-10.732C21.599 4.814 16.785 0 10.867 0zm5.23 15.144c-.31.662-.762 1.211-1.415 1.56-.185.1-.404.131-.611.194-.239-.072-.468-.122-.678-.21-2.194-.91-4.211-2.084-5.812-3.882-.91-1.023-1.619-2.178-2.221-3.401-.286-.581-.525-1.183-.772-1.78-.223-.546.106-1.11.451-1.522.327-.386.744-.68 1.196-.9.355-.17.703-.072.96.229.559.65 1.07 1.33 1.488 2.08.254.462.185 1.026-.276 1.34-.113.076-.217.167-.32.251a1.093 1.093 0 00-.242.255.69.69 0 00-.047.611c.57 1.57 1.531 2.79 3.113 3.446.254.104.505.226.797.195.486-.057.646-.59.988-.873.333-.273.76-.276 1.12-.05.361.229.71.47 1.055.719.339.241.678.48.991.756.302.273.405.621.236.982zm-2.83-5.112c-.15.003-.072 0-.015-.003-.23-.003-.352-.132-.377-.345-.019-.154-.031-.308-.069-.458a1.283 1.283 0 00-.477-.747 1.26 1.26 0 00-.386-.188c-.176-.05-.358-.038-.533-.082-.192-.047-.295-.2-.267-.38a.344.344 0 01.364-.276c1.11.082 1.908.656 2.02 1.965a.833.833 0 01-.002.279c-.035.147-.139.22-.245.232.012 0 .016 0-.013.003zm-.693-2.993a3.96 3.96 0 00-1.086-.333c-.163-.028-.33-.044-.493-.066-.197-.028-.304-.154-.295-.351a.308.308 0 01.346-.305c.659.038 1.292.179 1.88.49 1.188.63 1.87 1.625 2.067 2.953.01.06.022.119.028.178.013.151.02.299.029.496-.004.035-.007.12-.029.201-.075.289-.511.323-.612.035a.825.825 0 01-.034-.277c0-.608-.132-1.214-.44-1.741a3.228 3.228 0 00-1.361-1.28zm3.678 4.104c-.23.003-.333-.188-.349-.395-.028-.408-.05-.82-.107-1.224-.298-2.137-2.002-3.904-4.126-4.284-.32-.056-.646-.072-.973-.106-.204-.022-.474-.035-.517-.289-.038-.213.14-.383.345-.395.056-.003.11 0 .166 0 2.777.078.122.006.003 0 2.868.081 5.222 1.986 5.727 4.82.085.483.116.976.154 1.468.015.207-.1.402-.323.405z" fill="#D536FD"/></svg>