<svg width="23" height="22" fill="none" xmlns="http://www.w3.org/2000/svg"><path d="M11.332 0C5.413 0 .6 4.814.6 10.732c0 2.018.561 3.979 1.625 5.68a440.593 440.593 0 00-1.195 4.324.412.412 0 00.517.502L5.8 19.929a10.703 10.703 0 005.533 1.535c5.918 0 10.732-4.814 10.732-10.732C22.064 4.814 17.25 0 11.332 0zm6.724 15.2c-.273.776-1.362 1.416-2.228 1.604-.593.126-1.368.226-3.979-.854-3.338-1.383-5.488-4.772-5.654-4.995-.16-.22-1.35-1.795-1.35-3.427 0-1.632.829-2.422 1.161-2.765.273-.279.728-.407 1.161-.407.142 0 .267.006.38.012.333.016.502.035.722.562.273.659.941 2.29 1.02 2.457.081.166.163.395.047.615-.107.226-.201.33-.367.52-.167.195-.327.343-.493.55-.154.179-.326.373-.135.706.195.326.86 1.415 1.842 2.29 1.268 1.13 2.297 1.491 2.664 1.642.273.113.6.088.8-.126.255-.273.568-.728.888-1.176.226-.32.515-.361.816-.248.308.106 1.93.91 2.263 1.073.332.166.552.248.634.389.084.144.084.803-.192 1.579z" fill="#47D25C"/></svg>