<svg width="24" height="23" fill="none" xmlns="http://www.w3.org/2000/svg"><path d="M11.85 0C5.62 0 .567 5.053.567 11.284c0 6.232 5.053 11.285 11.285 11.285 6.231 0 11.284-5.053 11.284-11.285C23.135 5.053 18.082 0 11.851 0zm6.835 15.78c-.27.76-1.339 1.394-2.194 1.578-.582.125-1.347.224-3.913-.841-3.284-1.361-5.399-4.698-5.563-4.915-.158-.217-1.328-1.766-1.328-3.37s.815-2.384 1.142-2.72c.27-.275.714-.4 1.141-.4.138 0 .263.006.375.013.329.013.493.033.71.552.27.649.927 2.253 1.003 2.42.08.164.16.387.049.604-.106.223-.198.322-.362.513-.164.19-.322.335-.486.539-.152.177-.322.368-.132.694.19.322.846 1.394 1.812 2.253 1.247 1.11 2.26 1.466 2.62 1.617.27.112.592.085.79-.125.25-.27.558-.717.872-1.157.223-.316.506-.355.802-.243.302.105 1.897.894 2.226 1.058.329.164.545.243.624.381.081.136.081.787-.188 1.55z" fill="#fff"/></svg>