<svg width="23" height="23" fill="none" xmlns="http://www.w3.org/2000/svg"><path d="M11.636 0C5.386 0 .316 5.071.316 11.324s5.07 11.324 11.32 11.324 11.318-5.071 11.318-11.324S17.886 0 11.636 0zm4.939 16.57h-.076c-.831-.136-1.398-.724-1.883-1.27-.274-.307-.69-1.003-1.19-.922-.709.115-.359 1.327-.654 1.845-.238.42-1.257.344-1.96.269-2.214-.236-3.347-1.417-4.339-2.69-1.06-1.36-1.886-2.78-2.651-4.344-.248-.507-.576-1.064-.576-1.692.359-.292.946-.193 1.537-.193.5 0 1.284-.111 1.651.076.217.111.44.7.615 1.076.404.862.778 1.484 1.269 2.192.214.308.54.883.922.808.37-.075.407-.989.422-1.577.018-.666 0-1.492-.193-1.845-.18-.332-.512-.34-.844-.537.277-.56 1.04-.615 1.959-.615.771 0 1.85-.087 2.152.422.307.519.096 1.454.075 2.153-.021.787-.157 1.598.383 1.96.418-.045.641-.452.882-.769.53-.693.86-1.296 1.27-2.192.168-.368.349-.998.653-1.115.464-.175 1.202-.04 1.884-.04.557 0 1.549-.153 1.73.23.147.32-.287 1.124-.423 1.344-.515.844-1.018 1.381-1.576 2.114-.223.292-.68.763-.654 1.23.022.356.377.627.654.883.597.555 1.016.959 1.498 1.577.18.232.576.736.537 1.037-.118.95-2.33.359-3.074.585z" fill="#F2F2F2"/></svg>